<mxfile host="app.diagrams.net" modified="2024-04-01T18:01:02.485Z" agent="Mozilla/5.0 (Windows NT 10.0; Win64; x64) AppleWebKit/537.36 (KHTML, like Gecko) Chrome/123.0.0.0 Safari/537.36" etag="zxpVAW9o-Bm6vFgTPdEc" version="24.2.1" type="device">
  <diagram name="PÃ¡gina-1" id="UoNjmCukAH9AbyWvKgEo">
    <mxGraphModel dx="875" dy="435" grid="1" gridSize="10" guides="1" tooltips="1" connect="1" arrows="1" fold="1" page="1" pageScale="1" pageWidth="827" pageHeight="1169" math="0" shadow="0">
      <root>
        <mxCell id="0" />
        <mxCell id="1" parent="0" />
        <mxCell id="Ryg6QgMLUXYhueZ2bqbR-25" value="" style="rounded=1;whiteSpace=wrap;html=1;fillColor=#dae8fc;strokeColor=#6c8ebf;" vertex="1" parent="1">
          <mxGeometry x="40" y="220" width="740" height="260" as="geometry" />
        </mxCell>
        <mxCell id="Ryg6QgMLUXYhueZ2bqbR-2" value="" style="rounded=1;whiteSpace=wrap;html=1;fillColor=#f5f5f5;strokeColor=#666666;fontColor=#333333;" vertex="1" parent="1">
          <mxGeometry x="120" y="230" width="640" height="240" as="geometry" />
        </mxCell>
        <mxCell id="Ryg6QgMLUXYhueZ2bqbR-6" value="" style="edgeStyle=orthogonalEdgeStyle;rounded=0;orthogonalLoop=1;jettySize=auto;html=1;" edge="1" parent="1" source="Ryg6QgMLUXYhueZ2bqbR-3" target="Ryg6QgMLUXYhueZ2bqbR-5">
          <mxGeometry relative="1" as="geometry" />
        </mxCell>
        <mxCell id="Ryg6QgMLUXYhueZ2bqbR-3" value="LOAD BRONZE" style="shape=step;perimeter=stepPerimeter;whiteSpace=wrap;html=1;fixedSize=1;" vertex="1" parent="1">
          <mxGeometry x="150" y="310" width="140" height="80" as="geometry" />
        </mxCell>
        <mxCell id="Ryg6QgMLUXYhueZ2bqbR-4" value="" style="shape=image;imageAspect=0;aspect=fixed;verticalLabelPosition=bottom;verticalAlign=top;image=data:image/png,iVBORw0KGgoAAAANSUhEUgAAAJYAAAA8CAYAAACEhkNqAAAAAXNSR0IArs4c6QAAAARnQU1BAACxjwv8YQUAAAAJcEhZcwAAEnQAABJ0Ad5mH3gAAABfaVRYdFNuaXBNZXRhZGF0YQAAAAAAeyJjbGlwUG9pbnRzIjpbeyJ4IjowLCJ5IjowfSx7IngiOjE1MCwieSI6MH0seyJ4IjoxNTAsInkiOjYwfSx7IngiOjAsInkiOjYwfV19ecyX6wAADX1JREFUeF7tnAtwVNUZx7+72c1uXpIEkhAMz0bpQEqkUJCHghVBpJahA1QGqDgj4ujwUMfhIc9KBwXtTHmJYlWQlzACMpZBq6IiiIWxaFGD8hQIlNBgEMJrH/2+75y7e3f33pubmLvqzPmtZ8/5zjn37N3sf7/7ne8uahEEFIpGxiNrhaJRUcJSuIISlsIVlLAUrqCEpXAFJSyFKyhhKVxBCUvhCkpYCldQwlK4ghKWwhWUsBSuoISlcIWUCOvQoUOgaZqj8v7778uj4mmMNRSpIyU/mxk1ahQ0nTgJDqXlwCXIgMtYLkEmaKE08F8DLBqkY93m6E4YUeqBvn37yiNjjBw5En49YBGEq3LBH9T4uHQ8TsOz13Cc3gTV/vyz0Pym/aZrKFKH6x5r//79cLGoAE6m+dCij15DEXiwoCiSHuZ8/vnncMGTDbm5uQBhnBVCIYWwDmONJWyo07xBeZTix8R1Yc2aNQvajrwHyC+GUTrhCAlLehjuxEK1jeOcOXMm3PPwFPZOYq6hTsCkS/Ej4Kqw9u7dC1k3dYQzZGDswx4La/JY9NLspSguij6S+fjjjyGj5EZo1qI12/o889n8CoqfAK4KizxN4d39hafCwo5GL/qTrIU3wpLA7Nmz4Q/jHo2NyWPY25lg3qtINa4Ja8eOHdB6wK1wjgIf9iNUKLail4x5Hd0y8zTvvPMOtOx6C2TnF7It5uFDejkzzHsVqcY1YZG3yurzGxFCoR3B2IokRo6GvJfsjK8TuKN/f/jd/RPFOE3geVj0uMwE815FqnFFWG+//TZ0GT0YasO4fZMxVYRjLHw5Ld5jiV7djrFlyxYY/9TfIC2QyaPxc3UrGfNeRapxRVjkrbTOv0BBGXeBwmOx15KyiMZVxiIZ+sd7oN+YB6WFGObwioa5Riy6FSmm0ROkb7zxBnx6pRLOl5ZwMlQkRDNlW68zUGHeaGJUr1t9+xEMu9EDZ86cgX3naqHbkNHgRafnDWlcn/xUg3MVOD8o5ntIpQlkNz8NBWUVtglSyszPmTNHWjG2b98uW3WzbNkyeO2116QVo641xowZA8eOHZOWoHXr1vDKK69Iy57q6mpYtGgRHD9+nNc5fPgwl3bt2kVLly5dYOjQoZCfny+PimH13p3i9G/U6MIKZGbApB0rhKA0FFIEhaRhwZrsWq4zQAuisKRASFiUSW95XAhr4O8Hw9rDZyES9gDlO31SXCc/BRRWLOtu5m6zUFiFDoR12223SSsG/cHJ29bFhQsXoLi4mGsj9Jp2f/gvvvgCysrKpBXPN998A6WlpdIyhwS1cOFCOHjwoOyxh+5WLFiwgM9Vx+q9O8WpXBr1Urhu3TqYvX4hyhUvdBxbYTHEVmTzGEdK2EwoBH0LZy57kS+Z0TE8RrRljbbVievrNARK5tI9ybqYMmVKkqicMGPGDNlKhtIqdowbNw4mTJjgWFTE6tWrYfz48dJKLY0qrAcnPASXiv1CUHpspe8GuQixRa9g2Mn3+sQgl4cfeQTK+t/Fpngy1NiIZt8tsB5xxtSpU2XLHErYLlmyRFrOoeM2bdokLYABAwZw0SERVFTgdd4E8lQvvPCCtAT0JVi1ahV89tln7EWOHDkCH374ITzwwANyhuD111+3FS2tQ17WaXFKo10KX375ZahpGYJz+YFoHJUYW9HN51rZ75M3kvXLIF3aSo7vgA7XX4aWN/eFq5AOXnkppPiKLocUY333lYixfHiMGU5jLOPlYPTo0fDqq69KC2Dz5s0wePBgacXTp08f/gDNsLsU9uvXD959911pAezatYvrnj17ck0MHz48KW6jWKpVq1bSAmjRogXHsV27dpU9yWzYsIHX0unevTvs3r2b24nvnYRVl7dsCI3msab+eRrU5kUMt/7kLpDaWFMfZ9+lJxOT4uuIV4N23XsIk7uwj8epTjjGAusRayjgDQQC0hKXOjOWL18eJ6rJkyfLlj2UfjGKasiQIdCjRw8u1NZZv34937Q3snPnTtkSjB071lZUxLBhw1gwJHQqGRkZ8Mknn8jR1NAoHmvp0qXg+ZUPqrO0BA8V2wUa7SsQiPNUel0eOAQ3lzeHa+AXHouDdvJWuCtEz1Vp8FhWP2JoiMeiDyEvLw8mTZokewDmzp0LTzzxhLTEbuyGG27gmiAx6r8R07HyWN26dYM9e/ZISwTxHTp04PaXX34JHTt25DZBQtu4caO0gGOkxYsXSwv40tepUydpCej9OIHO72cVvM9f8hRczLyM3iI+thI1eRFqx/JYhoFonaZdhazCXNElC2Mw+COMG0zGZsgSEsfEiRPjLkvTp0+Pi3nocqGLinj66adlyx4SiVFUI0aMiIqKoDb16VActm/fPmmJzYyRRFERtJslsdiVVPODhfXss8/C7Jfwmy13fbFdIImJMu70Ehq0rT4t+rEYs+figV7Jd5GPEVbsWbSoDVBVeYRr0WOO3VhdJIpFjz3o8kcBtA7FL5QncsK0adNkS0DBNXkNY0kMuI27R4qPjNAmoDHRL5dOi1N+sLBeXLcELni/l7EVioliK2zHx1YA16rOCJsOYi8VK17tCng8l2JdNAsbHGOJI9CjAVw+X0WDolhgM2SJ7t579+4dtz2nQJoC4cTg1qm3WrFiBRw4cEBaAjNvQsXIm2++GfVyicIyS6Sa7eycphloM5J4rF1xyg8SFsUhM557BN0EfuqysMciL2XwYC0rj4sxfDkquieiB1kB73meTzavQzVb+gOD2K1rKSDkNhUr7MacQAnFoqIiaYnLjPEPOn/+fGjTpo207KkrdWGHnqil+Kxt27bcJijtsHLlSmkJEr1KVVVVnIf9MfDKut6EQiE4UVMBRdov8RufySIKk3jIa+Gny54HbZLLyrH3wbC/PsfehAoLRBrpWi340FuFQ+nR8Rho4X9e9HlzHr0f5kzfzsfxsRbYDDnC7/ezeO699162KdDW6dy5Mzz++OPSsocC7lOnTklLfPjkHez44IMP+NJIbNu2jS97tHOkLzBl0XXo3Og2TtOmTaGwsJC/CCdOnODy1ltvRddo0qQJ1NTUcNsOfb4T6H04ocG7QoodugzPh+rw1aRdnzFvdd3BEzC0sABWnj4PB27sxf0ewz+iKIJK8EVCKNR0uKkwAB2LA7grTIdQxCt2g7gr/Gjtcrija3v410cBuC50M+4K8QQszrqhu8LEy92gQYNg69at0hK89957SZctq11hdnY2XLyIcaOE+uv6UBLP6/bbb+ffpBGUa6OEqFMGDhzI50CXckJ//cTXqC+u7grpdkY4qwpqQzXxeSusYzZAhicNnv/TaD6GbD2vpU/I1M6DDz2WPl8UGVVRjSV86QI8Nfkh6sE+0W/nlmyG6gVtSoxQ/sjpBzJv3rw4UdEHWpeoiMR5lPuiH0wSlMClW2a9evVi244nn3ySvxQFBQWyJ/U0yGNRvue3Y/Lhu3DQ1FPpxbfvINxXVg61tbWw4tT3UNFeeCxf0MMeq1XkGPjCIQiH/RBBj9Wp0C89lh8FmMYe65/LnoFRd/XlNfbsEB4r3SKHRTj1WLr7J49DfwKz7LOx77HHHoOcnBxpxaA5Rq9l5v2cCoswnptO4noU3B89epQvh7Q5yMrKgpKSkmjSldqE8dzoMkznYLZ+fUg8FyvqLayzZ8/Ci2tmQdtemQkJULTlrxguaZng9+TAqflLYc2aNfxGSFhfte/Nc0lUTYM10BxOQyiIsVU4HWMsPwurrEUArqKwIuE0CJ2tgk1zH42uIYTVHYVlHaI7+XWDwn3qfSmkbHSnWzNRkrTzww+Yi2gb81bnt++Ky1xTIE8BPkmCnpt6qkSLv1GxnSL1iRkA//j74rg1CDFijf2oIlXUS1h0Q7RTdz9cC13hUId+Hcq/EMW2seSBD0L/qYi7VUHBDycLMNDKhyoMzylvRXEUjYmam1wiUHPyGHjOVSatoXGQZo39qCJV1EtYtBMsLb8svA97KlHIS7GnkvbhjduSfntk9FgF2n+5peExcTU+cAEumxc/k7SGGKFna+xHFanCsbC+/vprGHB3M/YIeoZd7ASppj5yRhrkY7yUe642LqnH0BwcL8S4Kj0iPJ5YTBwbLdhVdbACrg9oyWswNMMa+1FFqnAsrPLyjlBSWh3nmWJei/poKQ12P7/O/Oe9NA/HW2iV2CQvJT2UvgQPizlr5881XUOM0rM19qOKVOFIWHS3fd2Gh6NeReSrDJ5KlrzLXmjfRGSCE6F5xXACfGHyViJHpcdY9D/04BrL0X/vha7tWpquITwcPVljP6pIFY6Edeedt0Bh8alonBTdBWJt9GBb5j3PeRwzPJ4ItIZjOE14KtMHjr30l9mWayiP9fOhTmHRT2hXrxoD4dD1AMFi8ISKwBtsBunBfMgINoGsYA7kBLMg+zsN+pR3M00iEs18/4NA2A+ZIR9kh72QE/ZADrqXJuiBciNB3ElegzOHv4VBvXtarkHuKCOvGjLyrYvyWD8N6kyQOs20ErSLS0tLk1aM+mR767sGebnEt1CfTLfCHRp8E1qhsMNRjKVQ1BclLIUrKGEpXEEJS+EKSlgKV1DCUriCEpbCFZSwFK6ghKVwBSUshQsA/B9y25ThV7/HogAAAABJRU5ErkJggg==;" vertex="1" parent="1">
          <mxGeometry x="350" y="240" width="150" height="60" as="geometry" />
        </mxCell>
        <mxCell id="Ryg6QgMLUXYhueZ2bqbR-8" style="edgeStyle=orthogonalEdgeStyle;rounded=0;orthogonalLoop=1;jettySize=auto;html=1;exitX=1;exitY=0.5;exitDx=0;exitDy=0;entryX=0;entryY=0.5;entryDx=0;entryDy=0;" edge="1" parent="1" source="Ryg6QgMLUXYhueZ2bqbR-5" target="Ryg6QgMLUXYhueZ2bqbR-7">
          <mxGeometry relative="1" as="geometry" />
        </mxCell>
        <mxCell id="Ryg6QgMLUXYhueZ2bqbR-5" value="LOAD SILVER" style="shape=step;perimeter=stepPerimeter;whiteSpace=wrap;html=1;fixedSize=1;" vertex="1" parent="1">
          <mxGeometry x="300" y="310" width="140" height="80" as="geometry" />
        </mxCell>
        <mxCell id="Ryg6QgMLUXYhueZ2bqbR-10" style="edgeStyle=orthogonalEdgeStyle;rounded=0;orthogonalLoop=1;jettySize=auto;html=1;exitX=1;exitY=0.5;exitDx=0;exitDy=0;entryX=0;entryY=0.5;entryDx=0;entryDy=0;" edge="1" parent="1" source="Ryg6QgMLUXYhueZ2bqbR-7" target="Ryg6QgMLUXYhueZ2bqbR-9">
          <mxGeometry relative="1" as="geometry" />
        </mxCell>
        <mxCell id="Ryg6QgMLUXYhueZ2bqbR-7" value="LOAD GOLD" style="shape=step;perimeter=stepPerimeter;whiteSpace=wrap;html=1;fixedSize=1;" vertex="1" parent="1">
          <mxGeometry x="450" y="310" width="140" height="80" as="geometry" />
        </mxCell>
        <mxCell id="Ryg6QgMLUXYhueZ2bqbR-9" value="LOAD LOOKUPS" style="shape=step;perimeter=stepPerimeter;whiteSpace=wrap;html=1;fixedSize=1;" vertex="1" parent="1">
          <mxGeometry x="600" y="310" width="140" height="80" as="geometry" />
        </mxCell>
        <mxCell id="Ryg6QgMLUXYhueZ2bqbR-11" style="edgeStyle=orthogonalEdgeStyle;rounded=0;orthogonalLoop=1;jettySize=auto;html=1;" edge="1" parent="1" target="Ryg6QgMLUXYhueZ2bqbR-3">
          <mxGeometry relative="1" as="geometry">
            <mxPoint x="220" y="180" as="sourcePoint" />
          </mxGeometry>
        </mxCell>
        <mxCell id="Ryg6QgMLUXYhueZ2bqbR-12" value="" style="shape=image;imageAspect=0;aspect=fixed;verticalLabelPosition=bottom;verticalAlign=top;image=data:image/png,iVBORw0KGgoAAAANSUhEUgAAAXgAAADICAYAAADiIPpnAAAAAXNSR0IArs4c6QAAAAlwSFlzAAALEwAACxMBAJqcGAAABBdpVFh0WE1MOmNvbS5hZG9iZS54bXAAAAAAADx4OnhtcG1ldGEgeG1sbnM6eD0iYWRvYmU6bnM6bWV0YS8iIHg6eG1wdGs9IlhNUCBDb3JlIDUuNC4wIj4KICAgPHJkZjpSREYgeG1sbnM6cmRmPSJodHRwOi8vd3d3LnczLm9yZy8xOTk5LzAyLzIyLXJkZi1zeW50YXgtbnMjIj4KICAgICAgPHJkZjpEZXNjcmlwdGlvbiByZGY6YWJvdXQ9IiIKICAgICAgICAgICAgeG1sbnM6eG1wTU09Imh0dHA6Ly9ucy5hZG9iZS5jb20veGFwLzEuMC9tbS8iCiAgICAgICAgICAgIHhtbG5zOnN0UmVmPSJodHRwOi8vbnMuYWRvYmUuY29tL3hhcC8xLjAvc1R5cGUvUmVzb3VyY2VSZWYjIgogICAgICAgICAgICB4bWxuczp4bXA9Imh0dHA6Ly9ucy5hZG9iZS5jb20veGFwLzEuMC8iCiAgICAgICAgICAgIHhtbG5zOnRpZmY9Imh0dHA6Ly9ucy5hZG9iZS5jb20vdGlmZi8xLjAvIj4KICAgICAgICAgPHhtcE1NOkRlcml2ZWRGcm9tIHJkZjpwYXJzZVR5cGU9IlJlc291cmNlIj4KICAgICAgICAgICAgPHN0UmVmOmluc3RhbmNlSUQ+eG1wLmlpZDoyREI0MUQzNjE1NDYxMUU2QTQ0NUYwOUYzNzQxMjg4RTwvc3RSZWY6aW5zdGFuY2VJRD4KICAgICAgICAgICAgPHN0UmVmOmRvY3VtZW50SUQ+eG1wLmRpZDoyREI0MUQzNzE1NDYxMUU2QTQ0NUYwOUYzNzQxMjg4RTwvc3RSZWY6ZG9jdW1lbnRJRD4KICAgICAgICAgPC94bXBNTTpEZXJpdmVkRnJvbT4KICAgICAgICAgPHhtcE1NOkRvY3VtZW50SUQ+eG1wLmRpZDoyREI0MUQzOTE1NDYxMUU2QTQ0NUYwOUYzNzQxMjg4RTwveG1wTU06RG9jdW1lbnRJRD4KICAgICAgICAgPHhtcE1NOkluc3RhbmNlSUQ+eG1wLmlpZDoyREI0MUQzODE1NDYxMUU2QTQ0NUYwOUYzNzQxMjg4RTwveG1wTU06SW5zdGFuY2VJRD4KICAgICAgICAgPHhtcDpDcmVhdG9yVG9vbD5BZG9iZSBQaG90b3Nob3AgQ0MgMjAxNSAoTWFjaW50b3NoKTwveG1wOkNyZWF0b3JUb29sPgogICAgICAgICA8dGlmZjpPcmllbnRhdGlvbj4xPC90aWZmOk9yaWVudGF0aW9uPgogICAgICA8L3JkZjpEZXNjcmlwdGlvbj4KICAgPC9yZGY6UkRGPgo8L3g6eG1wbWV0YT4KXB+9AQAAZPlJREFUeNrtfQmcHFW1/kwej+f23IXMTEB9gltcHyhbkumumpkQFHyKuCGoiElmJmF35YlB9OG+gBt/VFxwi4o7Lk9eZFMUF1AQEchsAbKQjT3TPT3/8917TvXpmuqllu7pSe79/eo3k8xMdfXtqu+e+53vfKejww033HCjzcb0mo55dOxV9ecdHZ34Ob662XLDDTfcmCNjXQjYbzu5Z8Hoyu4Xr185/6Vjw/MX3rb6iY/VQL/2uI5/cbPmhhtuuNHOUTuicgXWY0PdR48Ndn9ldLD7Bvr+7rHh7q30/dj4UM9vxoe7zhtbPf+5waKQqx7tu+GGG264MdvgTrSMAfbBff+DAP1SAvNd207rmd5Kxz2nlo9tpy2Y3nxKzzT9zvjoUPdZsiisW+NA3g033HCjbcF9YnjBIQTcf91x+oLpjasNiE+NDfVMEpBPUgS/y3wd6i6MD3UbsN+E36EofyvTNg7k3XDDDTfaaAgojwz1vIiA+9Z7z1hggN2A+WB3ib6fjjim6Ge7NqzqnsZiQH/3zY1n7ftos2A4kHfDDTfcaIPoncH49pX77kMgfdVOA+49kzZyjwT20NEziWh+uwX5C4PzusSrG2644casgvs8+Z6A+lPg2zliLzYG7sFRQCR/N9E1xNsPR53fDTfccMONFg6hZkaHFxxF0fcD4NyZY5+Oe+DvttjE6z3g8V0U74Ybbrgxe9G7AfcbT9j30SR7vHwnUSxJwV0dk5aP77l84vQFjzSLiJNPuuGGG260GOA5uh4b7DkOfPtdqww9U0wJ8Ia333SKo2rccMMNN2ZlCDXzx+Ud/0rSx7U2sZo6eg/4+C2nGqpmZGJowQF6MXHDDTfccKPZ0TsD/Nhg10FEy2zioqVCJgBPSVri84vbTzNqnC+4KN4NN9xwo1XgPl02ByMwXs3gPl1D7x77AMDfucomXieGuo4UgHfGZG644YYbTRxCzwBwx4e7v4HkambRe/kwUktYHNDXq/5x0pP/Ha/pTMnccMMNN5oZwTPAT6xc0EMR9o2gUkaz49+jE67kV2NeG5YI0y6Kd8MNN9xoDsCLemaoexEB7867rd9MMWuAH7Vfi5ssBbRhbIV1nnQJVzfccMONZoA7ImjmwceGu04AuI+raDvzA7w+HZaq6fqq2kW4hKsbbrjhRqYAr4CVgP39zJFPMWc+3aSjaDT2xPOPrux6pYvi3XDDDTeaMLSVL9wflbHYdBMPm3CFNn6w6/cjpz3t8Q7k3XDDDTeyj+BZ/77/E4gjv3bH6U1LsM6QTU4MS8K1573mWhRd5IYbbrjhRlqA56h5dKjrOQS8ozAHG48nkSyloHQKbEZ2N/q76gVnTs0hK4HcAuWGG260WwRvOPjRlT0erAlQjBQjwVoi3fy0+RtbFFVKIJucgiUx6KHwNbUtmNP1Qb9vCrW4WCs4pit/7u4wN9xwY3bASunPJ4a637pRFDQNVrCy2uZBOnYC5MeTKW8KLMssjA33vAbX0m4t/gyIA7BxxNTsyyLg7jY33HBjVugZDDIY+wgaZ49b/XupAT371D3WQOxPlJQ9kb7eaSwOkrlPFrbZ4qrrbl3e/eTZpmpMFE5zA1vjauCMCH181X7d40PzXzK+qvsYoriOJ7fMN5Dv/VETgwteIInjubArccMNN3bDEVgUAKyGui9r2EHSRvhT1jys+6c4B/m9n73dLhBTcT1ssKiA6jHNRQZ7/jugQlpU4Wpey1Iqe9VS8gDQaZfhjw93vYfe7/dpQbqVrv2+cW44Lu0K6es2+vkf6Ov56wnsHci74YYbsxbBjww9ZT6B0Z+3ntZwgtVQMbAApt//LM6x/tR99sU5tiW0OcDf8I5gQhKuf1x+0L82lXZZYyL0vaotJNhNjA73HAYDNrquS+n4u+lSRdeJxQw7Fuj5QU9BETTB+QhQTvfw79D8bKbd0SkO5N1ww42WjrUBwPe8iEBoK3PwjVAsRuIIICPuflUQ4Q51vx6RLCdqi7ErXANLYVXhmpE2HlE6dizwu692zttWP/GxWFwo+n7z+FDX5zkKvx9ADvkogJ3fm7lWnqupKgd+VsTfQAqKqN/dcW644UZroncl6QOHDIpkw3DDChqpRH1ofFXXUk35jA92fyuFG6UkXCepwvXYtACPBQy7gGp8PloIGnnoqp7jCKw/Oj7cs46+bsFCB0DHboTfp+QWLKCzYmi0nnzU2jLs2iR9bYnecXeeG2640XyAV1QBReNv32wdHhtV0BRtVNo9MbFiwYE2+j3g3wxVs3L+S9EwhPXtkyop2zBVA3Cl67hGEq6Iuht5T2uYdmFQn0GFYAEaG9z3PwhoX06v9T7kDygxOobdyHZ6TbzuplMCL54iL1KNAnqNnUkPv6eur7k7zw033Gg+wKvImEDuYgbVYgNa9lJZQdPzh41n7ftoXjCCKJl+vob59CSmZeb3seCMDHW/K2pBqtiFIDlKgF6tkffo8qd2QeNP1bJn0nm/TcctAG7kG7DTwHUC4JlumTTAnkzTX9NBkxfQW5DvcHefG2640RKAv3noKY8hAPo1JwQL9YBNVDIM4JdqsJVIG6BKP7t+e0zbg9GIhOsEq1Dk3AB6w6PbBWVGchSWCyPDCw4ZGexZSdd5MZ3jj9DpA2B3KtqFNfuTQZTeXHO1Kc5vbJGetG644YYbTRtBgnXl/KcRAK3nNn3FRiNsBuA1fLpA0qisD47H7zKYxuXj0cO1wL44X5Jrvvm4hXuH38fIm5/2iPGV+z2P6I83EvXySUqM/gYUEZKh+PvtTLsIxz8qUXpzAX2GDHSj5eE3jS/f7xnu7nPDDTeaOTqF8hhb2X0EkqWcTJxqBKw2WEpjeoJAVaJqSdgKwOP/QIlstwnXJIBKPVzt4jAxbC2FZacAHn1kuPsVtIh8gBQ3P4OHDq4dtIuoXSaGmUcf7t5lovTB1gF6lHPmFkvR3Hj7yn33cbefG2640Tx6RjfZHu550wbYDDSooAHAs9JlB9EghwqY6/OLfn1i9YKX0u9t3HJqT2MFVDMTlAKMt9CxiqLzM4lL/z6BNnj0h7DrwAIC22FZoBChc5Q+NUuAXkP+Waa03HDDDTeaA/AKkKly9IPbpMlHA1HuOCcM6XdvB9ceBfB6AUETkc2sTBlP0AYQXDkWFOwaAOIASlzvxtUh2mUwSI5Ot9lhFhqzKNJi6u4+N9xwo6ljrVLQUOT+rYZplEGtoOn+X/DfUQDP/2dULetPNhWuf+RFpJCQ4pgCp87UUHG0Mjk63eZHwc5X19+cgsYNN9xoGcBPvHXBEyF1ZMuBYqMKGoA1SSs/F7Uj0EO8bmDCNc7FUePJQF4WoJYmR7OK3nnHs9rdeW644UbLKJoNwz3PhLIjhkWBASxTDDTYc4acb00VgNfAT7z52q0xqKDd5LAFTsPdV8AGwcyJa0vohhtuNA3claRxZGXX0tF4TT6mNljf9wJZEhxjzjddu4uRUDVkaXAw/f0mlmMW2jjinsqowGmS3+s2KJVkwXMdn9xww42mDR1tQ5ly9+qgNH+qUT03fX/P2Or5z61Fz1QsKOJ5kzLh2iyFy7iVUZrrYXllat5dcgZjq7qW16Oy3HDDDTcypWcsbdLzyW1WvtdI5GqSnUa2ONh9g2rMURe0hJa4bfX8p8BSmJO0s8GnS//YgiRpN7APPeije06N19EqqgqXFwxzLvq/j4bnwA033HCj6QAP/xYCsp9sPbVBXnzQVJcWzYIw3PO9taqgqZHXld8n1c7rALSJLIWT0y4F8ZmRxiIAYIA6a/rRdvAmel8XESj/H/9fw340oyGKh1VJ31Yqo73cneeGG260DODvttH035knnhptQI9uG2Qb8PpwXNpB/x6d6ztNTLga2kVJKYMGHLh2ti14mF73n/Q7PyCLg3dPDM5fBjAeXbXv08dZVRS79aB9HwUG96vQAAXvtVEnTDfccMON9ADPCdYNqslHowlWaeYxOtx9spxvTQxeWWiKO1d3v3iMfdcziuKNcZhUsOIaTdcldos0CxjZAlP0/gsUdsH/Hh48+tqMp81Q9893nB5QVnEXnslttiPWrWPD8xe6yN0NN9xo6QAY37zGGnbB30XAsFGJJNMqD1N3oiVyvjiqEL0YkBXwmi1JLYUtXVSAz4xR9AxbrblUuSJRCvknImn6nQsmYHxGoDs9swWg9c+hOUEXKQb32NcjbfzGkXwe7O6TxcwpZtxww43mRuzWWMy0qtMVrOTpcnYcgB2XJh9D3eMw+8I51iZIHMrf3EVJWjrvn+4p0yGlOu6SQrvgKIF2AeUCUOadwA5UzMJ9cmS4ZxCWwXcsf8LjouYDBVjSoIQpI6vuGU6UF5hkJRLRQT0nqjl3ihk33HCjOaAu/UfDP0MEjwYYKJ1X9EwjTT6KzJtfuZWLdpIAvNbhjw32HIfzV2kVOKXsfc3uQdwimXZ5CDkEJDOJMnr7hlU93uYqVgBBL1ZJMGsl0VDX20A9sVlZIU4HKoD6Bm6yTdz92WEqyg033HAjG1CftqAexfsikgWtgoTiqLXX3XZXPKUIeosWAa4EapekBbJAgUNgT9z4t9hp0RiGAdAN7cIl/uLpztcxQpTLT+BDj0Ir7CSiFhnp8hRFk+joGslVev17beK1ZzKBdQIvNj1f0IuJuxvdcMONzEA9ClTuOrP7ySNDXUeapCI1kybw3LqJAXOT9UYpxVKI0GF5ZhWppqAhgsYgK7tfDO4a0Tki+R3cG5Wlipu4EfbH6Hg9eHSidh4VPtca7vKko/Squwd+XSSZaTEZvSeZlbGVQ9qF6afoioVzOsWMG264kYp6MYlNRKYRkevEygU9FKG/ikDn0zARo6/3iWf65nIzaZEPxlGJTCFxaao8iVYJwDJFErGSJul+B8s1HzDXDT36YPfJ40PzXzJy2tMeX+Xv96oWpVcbshBinvA6LPmMNxec4OW//dMdy7v3d+DuhhtuJAb1aQH1iOgUNAXa1RHofJFA628EQLsQlW4/raJVnSQnk/qsTHFEfe8dK7oOThu968gbX288Yd9HE6i/nA6/WscjUDFoJGKAfTr+whKA++kLHklz9COp4B2PPycF6Rcrc+FoGTfccKNxQJ+2oA5QiwIzUBWUHFyBBCMab0gT7K0VjTDAKfdk1dmoyGqXmzes7lmgKZYsaKYaC9te9WiXOHQQBgH6Zxmgk/jhFHh+76fjaFnonBzSDTfcqB+l8xEFUCMoTBrqOpWA5ccETBvAV4t/CitAStpjJeumFTtNA+yun4m8MEulyBpZzEyU3vGvWWrIQ1TQu0x3qFXdsStVx9lADDTVyMqewajzu+GGG25UgPraKtSLrayc/xLw0wRGv6CE4GYAOUAdfPWdq8rl8WNWdTLVzKbR7Gt+QVRU3LZzPF2WZJpiJ9rRcAQe1664KKoe8sH/4FyaAzfccKOFQyLVKGoCaoyxVd1HUBHSe0cHu9YRsGw3TocUpYNP55Z1U4G9bSsaZ9jXMIVFpGgZ1FF32y+g0rlq1YIcrBFsYVdPfMUMd7GiBPPX5JyOd3fDDTcqwCY6Sbr/E0iylyf64wMUpV8LfheRIqgXgOpEuQjItqxrVTck9kqHHQAWFkNPkOxSaIl2552lHmBkVfez6T3conrCluLOwXbuyoQWh/rcbrjhxp4O7gTs4WgXZfoAS/iFE4BcD38XALri0zWot6zFXbA7sDsEY+mLHcSDZxnFyV20CD1nLlATIlnEPNNu6DesVy/GobFGOVFt7ZG7b55YseBAF7m74YYbHUGUq4AQwECgcTgB54fo61/GjLe6BXU28SqxbK/Y4r6lugFGCQuMKHJ497CBQPLy0ZVdx0rUnkSm2OrIHZJKmudvWmolaPQRy2OG1TYwLVsU0GtOMeOGGy5q19Gk0XgP9nyPwPs+RJMAjg3DoSg9mUVtKntd4aOlo9HWUxkMh7tvh4WAkWKusK35NN3UrvOuo2t6Dx8JDMQG4xuImWQs1RTQZ/eagGZzihk33HDgLt+Prug5jGiN7wJQVfl9mHppMajbsnwkbbfxYmOAjDoawYlxbGXXCeIWOWNH0sbgrj1pyKLhVCyg2kAsRlcmI4fE35Itw+lRn6sbbrixB4M7wJDA4UyYeu08Y4FQMAWmX0qjretBWgHqYlvANsH3G/6fpI+gX6SAKfx+VA6hnWmZeUIbja7qOhYt+LCAjTboMRPup7rF9FPt+kTUzsANN9zYg8HdtH4b7P4cwHQzg8x4a3qPzgB1Aasd7EUD2SX935X09Xw4KW6MsAUQ87J25tnDlFFgIDbccxiSwVtPbRzcqxiIfUf6qTqPGTfccOAebN+J1/4UANVw7MOG+mglqBeQGAXtsrPcCGOTaVVH2nqjBydZZkQEPKdAPXzt+Dq+fL9n0OJ1I1sLTybpEMV/e/UI+8o7cHfDjT18aAkkNZ44CTy76VsaP4KMW106xVG6AXUkSQHqzDtPoKE0WQWfMTLYc+jGs/Z9dPi62eNlr7msCgm07uQ4Se/5l+xXX4ijQGJ6ZpKbmfxzfOW+z9PndsMNN1z03gEOGx2GjCyvOZF7SUkai9ghbGNQt4qcrjtogfnG2Kqu5etX97xQt6Tj0Rm4Me4GUj/hxbHA0g7ly0avnlAOucUmmre6fqpuuOGGjiDLTaTJgIp57lKWGvbRcvcg07ZO+pCan1MBDr3WxbALXj/Y/aywjG+aQX3dbgLqUZRYyn6q4g5ZdP1U3XDDjUigASggMcfAW8hM+mi5YQPqUOMwgP0ZPP/EcNcr1w93PXXGNU3vnqAetajSwrY83E91LEE/VVLMuH6qe9CYFzqyeEg6I86b9WtUe50sH/JOeY01a9YER4rXCV9v3N/vzPhziHMtARigPR4kh1z5WMwE4BncTZHOcPc19PUc2BuMr9qvO3wd0rJudwV1vSOR90f5hZehcIybmsR1h5ySZDRRW58P0z5u7L5jlh6OACjb9fo7FZjXA/89Zkhxze1D3fuBf2eKpjiajS9M0SRrqSk0cetvD0eWACPw7IZX30PmXaJ3itwPIkpmjBfUQmwTNe4vC2996fHqkqoO3Fu1e2hLcA9f5yGHLHvsokWLnnDEEUf8exvOY0spGsjq4C8jEXyGhUxSFLWTjt9C6ojGH1HAV6370+5IzcBGYefpAWU1FXfh3GT70952+9CCAxy47zm0TMfixYuf4uW8D+V7/S/le/Ofpa9fzeW8lQq0Gn6AjjvuuH+Rc9K5zsW57DnzF+Vz+S+Yr3nvc/T/5+bz+aOOW3jc3glBPoic6TyH0PVfTMfncX669otzub6+pMAbBnY616H0GufQ+X+Qz3l/pPP/PZ/zr6d/f5eOVZ7n9TTwWuZnvu8/if7mPDPXufwXMe+5XG5+xBwE5/J6vRPod79i3h/+ZonnNbCwdJavP/da+ttLMP85niPzWZjPw7+Ijs/y+T9Gv/s0/TnWAvibj1u4N9EoP9kuMr3s7AdK4hWjeqxupONScPDhhtS1bIl3K4AnSwVeTOOashmVDf/tVWtV5bGDwD0gcs/l/DP7+5ZO9/cNTPte3/SRS4+aJiD4Mz3sT2aAaHill98lQDzCy/sPLB040pyzz+83X+V7HASWJYBm36K+/4gC1kYWErwege1Pj1y6bLrPs+fF97SIXJAkutbARu/hIJqHb9F13qev3xz5PjNfOAgw31uPrpHzEjgfTud7eKB/6TTmhr4fwWIYfv/yvX1/3q/N+/MHzPujz+t1DdBD88qfifdjfKYy7xXvgw76nOy15L0xf5H/TPzNQQcd9K+NgA4Bxhr2HM/aCbIkXvDjyhiM//96iurPpgKm50fRR7uZ3C9Qt4wOw+One+fdgQImXncmTsrePyL+9i6xuvsOARwC1/0JQG5jwC3me71d/P3EkiV9z6/3sFeLfinqfL2X8w144Lz4ClDEYf6v15vCVwAdAcsvhfJoEOQlaYjF6dV0/uB16CgAdLFwLFy4cO960Wg1cKfrfxud6x5zLnvuknkPDIp4TRzm+7x/hrr2mgBPi8Yb5HrN3/Z6P4oGZbtQ4vMhgP4rPhO+ju3+Yv8F9eaqYieV864zC1HOm5TXDh9L+4/EtVxBr/uIRuZMQGcDFRQRaNyXEHTi6OBN0w8oQBCJgksm4N9MnPQ3SA3yKmlKURHVI/m6G0SplQtqzxe2JllQbfJ6ihfjHwut5aL43T56986TaBrgCIC3oOU9QCB3dMwIPrhZKKp9t1o0pgQQNcDgtQTo6LXeUg8kw4vIwMDAo+k6r+TXmdQLFAH8n4U6aWSBqojce/Nvx3WZ8/I18msYgKXX3IrXE/DHIqPO0VmTTqJoXxYIXhw+EvW5yOJEc38o/e4WibTpem4kmmffeiAs75l+9wVYrPn6H9afAx/43O1OJO/9v0Z3PZU2BV1fvfeMBKXyyboticWwieohpRy32vjryejsbCq8emE4eg98ZuZwVC+0yvoVPS+kediyMcmCOmijeNBpWBRdFL+bR+8UoT+HAONOBpyijlTN9xyZNsqPK8DpJLD4sqUvbKQO3p2A8OX5JflX0XnPQXQsUbcFUv9LDYKLjt7fas9hrneKzzfJwLzJ7/Vf0iDAz6vkuz2J0h+SuQHNgdejcy4G/YT34Vn6ZgP9268DuMH7Ia77Ut/rDxY5OueKqDkOIv4lJuIvqAXnR/J+GgF4M+f8Pniu/oJdBL3PV9LPXktfj6N/vwY7LtmxNRxZMjiMrux+MThyw/G2xocmaBKCw1gWnMq+7tSDFFE9Rbqvvj1kKjbNssq5GLWGuPiPbksexRd5B/Brqfp1UXyVhxYPGKJbHHig9IH/4wew3SZPR+8Xqsi0xBFeAd9zRPe5ODy2gMqyZcseS0B0JdMCOB6kROUi/btIGMrOwX71fxgFuNUWEU5W/plBj8Dd7BLM9TMoTwpXXY9uUHz+s+nvRvm6H+Tr20gAeFL1nENfH+0UnlprjhSf/gia898quuVBAtZl8rOFlHDGHCLxTHP4b/wZvY/fj3wmn4jadVR7TdoxnM6vxfkC/6JG74941EHXCkSHOEabHclHR/WGwtm02rpIclemP1JU/17IC8OR6lzUz0sUf8dwzzPpvY2LPDVuoZO0RyS/njeZHU7OqWnMAyPg3SinG/5bpjpm9YYKAJKiWwLFrWrrv9WqK7xt+DfAgMDl8qOPPvpRjfLYQuUQ+D6TznO74qtHQBUIrcIA/yFZXBDREnB9swGQ0dH7mRVUR867gd7DN8rcOJKR3tlhiqQmNUPgaXICtFDwOXfQ6/yXXsBkQY+grTrr75iWHJjL5deX54W+p4Wq1pzKTgg7FPNZWXVTvYVQ7xg+IwspU2GD9T6/JFG8Afnh7g8FrfgGy5F8K3zgR1WzaDEiA32DSNdw9dTGbmRl9+tGlz+1a7fg4qkAbKt9b/EVNYO2bSJ9f+0dy5/wuD2YqrHAXAvcEHkhYsWDioQWlCf4HknDKg9MJ86ZUYFP3FHmyPP+VyX6tRGr/21s0cHXCh0AOaDI5uLw2KAsEJ0GUSOpQEJztgCALJEpviIX0CgYm7/Pe7dqgAdw0eu+qiLaVbRPtflW5zyA5mJMKBkG0zXh3Ul4PuMsfIj26dz3BwBPfHofzTkSqf1L+g/ENdBu4Bn0Pp6F90ifx4s9jvh54SoKHdRRo6JVrom+7k1//xO1k4JqaSXdp112sckdIF/peEzcCF5z3AIS48NdHwc/bKJLC/JTLfSE1wuKGJRN4VpgeTBu//+PtBCdOz40/yUBcM6hKD6oIj61e396n7cmLHoyxWQwa6NzDO1xAI8HJOqBXrx4aReoBnpI3kyAtMbqiL3v09f/pa/X0vF7KBbouIYA8xfgW63O2TsZybK+vr7HRVAaLbu5lIQRAHy/bN3NQf+HxUqAlwFoq1ArDQB8AMxImIbA+7cUCb8RAAzOGWoNra4BR0yvk2uAx2bdu/9+OT+D3z8OO+ywRxpunN9Pv28WrXUoSqpx/VoqenxFToAWEAAfU07/lsWuCcqcQLnS64NSuh8KJrpH/omvFUevdyt2Pkw7lTjxfSdopEb59yVLBvbDIsIAX7A0nD/O58br3GL+TZ857s+kUbwGecMRUwUqyumVOdiuFjbTnhGxskbfeLBsF7/4YXJRJKtdcVLUn9UsBV/xuXiyRebK1CRGbwWO4v+0/uR99uVz795UDT7Y8A1u6AbiYFFggiIXJAcFQEQHXe9gCmQTAd3/QUUBfXXarXGS96a498sYGAv24c//r9zcoGV0xEf/fnMcHtvyvv4HhVZgbr/IKpdJpUjB91OWEsl/pR7tUI6CwZPnxzXACxVD0e9/Yp6D18h7dyAargbwlfSM/xGREvKcXFov+k+Q8/ioklgWZPdh9Oms4bc69fL3kjhm/v3apYctfWKjAI8CMPrbzXyeXdit6ToEfA/9O1F1m+h3F6a9FzXIj6/qWkqgc81m0wPV8PLCzU/NEtBLpPsgrun+M2Gz2/V7uqbDBTjXVL73tm+yjUpimLAxUMfNe5jkNOSttACeJXOwu9o/dOobGw8P3fBLIRsjLfc/hWrAoR46Aa4Cg9Uu+n2S1BlZ3S4l25sSwLGFRAZ47kSyy1vsvTQEYE2bXHl/UE+I9A86dbrGe6EMUeD8YQY6jmT99zdy08v57dx5a5nLLogML1DmMNUAQDO/Y7XXC+oAaadKzn6KP4Mp2R0cdJDNE5goPpf/nfqM7sXnWA24KgCeAJ2veZKLlz6c0cM+T137D2Ru5Z4SsI06+PMx9xjXC3yjkQRreTH0X4f3I0ln3Hv6NfFvLgr7vexS0kaveqtPfidPpvL6t8OvBpHm9iD52WOAvoU9Wkt4Tbw2l/rfPTbcddrE6QseietcrhZ/plbnt3cgWqGLX7HRgvR03MVztNzw46a72KFzt+vmZG/oNYqbzh+FCBfVixKlqyKayQC4LXCVInTFM3XGVgcufxuAPRQa9NB/4DCOyjrYrbBZiVVWcfxKtuxMw9yBcnv62ZsQrYNyYkDg6N6/VK6pEVCxFgXe71kiGWjI9cGvu4le95OgveoBi4reDyYw2iTXxwB/OX1mJ+L6DQ+f827C4mHlnuWkZJS+PpRgXasBHmX7WQC8vMbSpUufiB0gqlF5Z1Ow1Ij3W0Pt6cPQfP7vzP3BRWE2X5I/twGAD6gs7Gx0UZbJr+D1LI0ox9/ovB/MMnI1kaAC+tFV+z6dm3FfDwUHqBtwwEydFJtM30BOWQBXzdHqZbS7ODh4/o9buLd69oniy/9cdq0dbWwkJ3TKLcM9T8JOCXOapB8rFoZNNl9yTnDu3cXbR0d12KLSQ/41JAelZJ+ldxrQp1MfAvb80LJE8GqUsDcSnaV5nwBB0bmr6Fren96VaKrid1JKX4uHV/JFKqzx7yrrrr3N2AlhZwBZJu0I/sdUiebzL2yQAlHFU/6XgqIsO494L7sCKgj/x/8fJI8rC4nm1QD4Lw/0WQUNv+/vabuAMIA2uhCruX8RNPPleSEFzWL/uVApYX6RmMcicPjhA/sgikQxk7FxEEsHq5k/vj4Qq2CFaEWtwIFkErscEQTgK0QBopRqFgjJANeLBhMEKj8H6AKUuAJ2SgF9KUP5pFHTmJZ25MKI5iTljk/H/YtcHxLMNNfvonnaaWs28q9qFXWaeG7NPcguk8NdJyBhiiNuo3MTxdvOTrePrOo2+Z3p5QfN+Si+gpIxiT/idQXYVbSeDahXi+w5oudod5N+gLMCeXmfSDYiESw8swFFrjDVJeuq2nRXn01UjvfVtywIAI8Kc46S98c7gF/UApB67zOoyOz185AtCt0gIB4uuVdzW2Cp52VSfh9+YEN5ibOFq+bX2CgUGtQoYhsccb2djVw/gcYxlsKzlbvYSdX6O8wZkvW6lgARZqM7KST0oV6yyWbP7hry+d7ZoBPC235Y1Y4Ozl82NtjzNQKZ7TAUC7pCiVNi8qi+xCBnzLWQWIVJ2diK+c+V179ctfUz9xXVbAR+PLQI0/3+4gaFBW0Rxf/jpCf/u/RmjRvFi8ySi9Q+FJXMnXPgLg8IQM+4EDKNwJFgs4E9fBiONUg89nqrswT5wBsGrodlEDT0huVjZ/LAkthjoAOwHFMnotE88yqTZ5AImpwKqwFRjMQtKmPXav5aaK5I7tpeP0fi/l/6j+jvrvLAdq7hiJeVRZMyP/bzyP9cbAHCAwndXq6UrQX0wcKXz58h88+J4c/LewT/Ldp6WQyRiEeuBnPJks1/iilbrXlTFgcHiMcQV7CuV66XNfMcTQKjeVF9USFXHCVpJSJs8PQAGm5DN5UA6KdEAmh6lZI1LnYMwWsed1zgOAla1DioUp5G55w8JQ2WuWxrkGcqjIzXjg0MxQbjR/Est9yAqmTLxc/NKL5T656halEc+yQD/PQsHKWgxB7bcQXyaTj5crk6dOcEdMyLc5HN1dB5IwdgaBPc7JRQpTk5H8CgZY70s9NqcZIhquOCClogn3+HALoC9c4410/neEVgGxD42uQvRZUnrp2v/3zzb6t2ui8ooLKVqIdUW6Dk/0zE3Ov9knn4h1QB1XVsUfASHByJX4BID/LXOlytLjj6QrmwCxG8f2bU7ylJ5dGm0pWLzhCNC/jXog5kzgjMPdnx8P19m8mxUI4pn+87FgVcoCLs91YO2gq+GfzuuggTsAnyKCeAeReBzY0AKST/uGCq1ID/ufyOjURtc4uLwf3L+TVgWfuG/PVBPsgGDQ9xQBBIa9uZopEhihpQTxSN/8BKU3smk+x6sJOiKD5wYV07x7TxAbjDjQ8JLrX9LcwSsIePSU4QIpI/IWWiR8vz3hnym7mfnv/Dq2/zvYt5bh5iRcmnay048iCg1J4enJ/2+cG8PhQy4opNLSG6hR2w2AcYyoGoJqmIDQ9E3CbRGlgYkEcN+a3UuIagOpbmZADXHBhzcZ6EvXRgMLYFC6TcN/h9tYPprBa9i/xUFSwVZFcU+nyDa6E5P0U+M/OelRFYrblUxWYnKZfNghixKYXXg7KDRI1CqwGtmof73avnP4V09CcR6PzfGPumME8/zVWqxRlRO0euHIX+dWJV17HBZ6De0xH9/d0UCFzolR1TdS6qyFLUb2pF2FwANqFq0M4PMlA2IovZzq9nkmmye+AQGpVDmRPg3merNW9S2/1im4B7GeTtzbdFONMkD1652KX/QBS2MBf7kJUmRhp7aSnifwsfLZYFAqi15IZcoXqTsii4WzT/cfnM8jn941Vi2OwofAakqN83UkmSXrIE0+QRsMDVoiJCXPwqVYEbUEKa47dz4+2U3ES1XZbMFQqOvErL3230s+eF/3ZNR8V1fFLM2pg6OKtasjjqvWFnxu+hJDvTcK6CF8sH0txnWQxEiuFoceTNT3vE2HDPyymiXIvOTgBvABDTN0UGsAJUIGwy9jAdn95M2vAguq0UUbyG3uvN9jPoCz/7Kilf9vrp6JgbPPS0auAxTl2fkjRgGWWfmh32b78YPndbD5V4+g80sggq+0I2tm1ylETBwk03FsQFSA0aoBOWDiwzgMv0w/1StSg2DAAWMU5jcHgzftc2/1gGOmQcJfTVrkP52xwmydUjB/B33k0ig4xz/WXJJSqHvT/jGgBK5looISZl9bYblG1+vVB1hgJ9gwYX8jdo2tEReNhEg1glyFNVK3HeuihICpEkdwF5IS16+9QC+IAuWeItwWKDOeWF51ZRJukoUSluHlNu8sFKK1Z2NOI5j9eFeRvmIFzYpA9pOCLc/GxHrEELvtD740YXnyVwn4CkD2CPiB2Ab6POnj+MDi84Sn7/IkXH0OL6dNs9y5tWttiVqjjGAbZvfketXVnKMa9Zi4YksmlR9Amwd3AXrLgJ1wJH//eNrFqQmxMAX6EiocYSQeTenuBeVjwESUrvG7p7UZzoFzI4VJWitZyRKub87xFQnCKAFAFMnfah6Ht+Di3e0G6PtqxYJATga9AciJJeaKWm+a/QdX8HsjwoUOLmEpQ88eCcbTV3KWSM9PXbtIj0V4nGte3Aq83r25Z434W/uxTyNOLAaOdgCaLu0+gcP8Qig8UK7pV03p8hd4Frq5egVHTJQdyi71LTIYpsmNWCNy/8+/A2wmuY92Dn8wvCkzfS5MP45JMff868d/O6X7GHz4dpz3cJf0bvVfdVW+ifwdNzUrbivd452P0sAp/3kXPl37iwZxsd55ebfazR+ntSyvmQBd+ua1mq5NmKwc+ZGs16sav1uWXhVx/qsnVJii5bhZ1WjfNNOee6dqVqKqMj7/OyZW1DWma62k3Hkrp3Jky6zpst1USGEc9svGbF3EByiOpGOh6fJhfiRgKenqN6/f/jq/brht/7CHPF4STqYt9/Lqp+lYf+VJ1nXnJfO8TMLWOJZJCLGTh8YB/9/iIWtr2SetbLHGygHQ988beckszCQCyfg9Z+bWphEDyoFKUs1xLBOQDuYT5+Wy/7hmdU6epAp7Gczbx6OR03WhjVV+m1um6N3YEcgIR8b34ItRsqai/UlT1zrgaVvuLJk5VEsqINJOVRQlXDJpE5Nrj/E6Lel3m/BNqN9phdU2FE1v25e07t0S0PY0XxRo0z3P2j6TV2HtrOMz7gk2FARXriwHApC/rEdtjZpVQJhaZJLCkJxlzpTaANEiTDOiOOJH/X0eS/a/TaO5v4nqPOExQ48eKalJtN+x6ymrvOjD+jlkf1a636Zq9pk5xlWSnlEUA5Sa4kZo4tyHnFafMYK8jM549lNdYVes4B7kQ3fckkk4d7TiAF0X9ueceT/z3qfSOyrxfdCxc/MtTzIgLqO63bZGzZ5NQGm8wm76CuVwYLbLvcKypZBe+Vy8RjJIOCpMmyAyC7RfoDugnzZGb0j705C2U5V/4zKCvPMIp3w405v9NSFOxpaBxud+pe3EBOqp4vDxL46XdonRX9EchDyQRqZN+8sOw9ZdRC44Nd66bfvb8Yht1Nx/+S5PGDpIj5r9uW7/eMqERntehef0/n+xhomiRGZIjit1tjtl+j8lhes614W5rY5bZQJzALS6pqKdiCk6XsUePvNNs569dN2zpvp1VXLBWwL6Sshi23zaOCGq9sfuTA3Q03IugPCAGYZplM8HwX2WDuEkV4pLKIVr0XDgJOKIns5sWLbXezIIoniwD2dZ8GICPJaZOkJvK+Bd2oyKztdGqmsuQ2qhOoFt2bXQ3z+MzFo7XfyJYkTUFoQYCPD4rNJoa6jpfXmXUjMq09hu5VvFcSR9FQs/iimc//HAoIFLgYUy3yGkfRlCmQIcUICnJUIUySZG6pwjPdWukeHHVDu+HGnj50QRLUUmwWV0jwzElfgfOjdgdxh6ogPyBouMLOqrg+aQMpzzNM0LgDVgnNUcQ3H8lOAP0OaVJiVUO/JX79M7BgIHuC52MHMDMn0bHXzeySSbuD8zZx/UAcIzJugSgNun/bFq39KvTfJI1TutdSQkrGUDGQx6Easp7rHncVOgbukGrFbgzk2bkyoGSo4EJKpjsabA3nhht70hAgZWO1a0DFJsizFctdtqxFSEb2IPNV43nuG+Gz1j5/Bn5H9PoTq+YvA6hzM+ypCvuFYdP20BR0YRHYHkT33SUC+rHRoa6f0fdrUAewYXXPgvD1cGu/9dy/tZDETthUEg92LZeFb9aieFnRIUXydEFTMv6bmy54P8BuILz9wgeJ4pqoZtqsP79I+YAUG1hMhJKZ0JWa7dCo2w032jmCN31sqW1jQoqmwLTqw0iE6vMmBXfYPaPQLOhqJhbWUmzFBnzKKOz5MFu7p3ZCFMA/KdH9nfDr4SYqXOF7P2wa6O+/Tr+zChLSrauf+FhDARE4T7Cd8Fg8O2GzyOC6aDG54a4zu00OcLY8aso9O5eQiZL4cMQvaCqVe336Pz3kkGWPlQ+9Tg/VTjHUUrzgJ1QCtliT3/dt6zz4hodvGDfccKM6B8+tCe9RxmGJpMioxMb5kkgkVeS+F4rzwlYXYhnBVNCvOtSOnLjyJxEoX2e6TdlG5Q0BL4N9QZp2ILLHAYtk+tlm+tm1pMz5H9Kzn07fb1Te+7GjeNs1quf0gPdvdRRfpagpSaOOAvPfY6KJ5SrIzhjXsrdcE6pBZSWvkFJWqmRKaEyxjBeTDqezdsONhilZek5fliKgE4C/zV/kPzNJYFUR1PXmP67aLYbZgyK/1i0vXrwsSJYiKUoR+Le4SXkhSdcqjvw5urfJWlgmb7HR964GF46qiwknam/adGrQoHverAA8pIRojcaJ0UJSakaZDiXSCgvIW3dD/3chuijoyUmvM4bemaGbpZ2UMvz+18yTpheNHo5aKnd/inV0uLlrcG4loDtZ7ZRLSSSScCgVf6A4FE3ljt1/j6Jlo7CnyNe5JZfrP1i/D1LInBfYC6TpalW2V54c5+gekbvthZv4vFPSoBv0j0TwLdXFq9X8INNIusI7PCYfR38nNrdpaJLytq2vT6SU4mvOFNAvxFUwDffXhGGSuqqaM1WhkCoS6twDQCdcFNXh5i6SSk1ViKUTofDtSSGoKLIP/A9reDQ1whqsVD0EJmsldLnng7GwlkQrAedbTc/Y4USa9bo9aVP1vbV/O2W5+K510vawlVF8mX+nREma7RqvwA9k4UkRugk/VO7BSlJI+rfyNG8HSkaDSa1F61HoHQqVAKkX9odDJxz74HqJCAgJplp5ikZeYy5SBfbzq/2+oLKCMgq7un54k1PVJA7MJRLz1Tzu5/DcdUqgEFr05sUA98jFrSJyNr1nk0kkQZty57GLonYHDT3bBNbw168D7sHOnZvovAt/K/4x64e6B+DiaLnuRDRNs4+iSDVHhheYBjqtlExqq9dTZbuWwD4giOAlo5420Sl/T+AH69u/0rm3ivWrigJmLTpTkXrU9nO+sQBeQs0jyEODm5L/Gt2h0AIOFhDG890c/jjanUEial0Q/Y+g6QTa2kWZdO0GQN9Zbe7wvow3Pvmsm8iuN/9huILaJLpxprwN84UiNlswl18PvTQ6jMEkC3psAo23YBs/F+eu1j2V1VAa+L1Nv4Ik1erKJhjdwGJQssHuzOzOKcErgVtNm5NKCvjLGiTvoobXBJ7rQdOMxjcIawnAQ4VjpZxdK3DNaxv0yMmMnkm9XauUR34sDQcfFQ0YX3BugDHblEzUQ4hksvXuyZ8CW1sL2NT9idvGVfRA9cL+4uWeqPK7vIvaSef6A3IadIMvCwNWG+YcGgKXMMAi+qaH/VBrKOV9Hza1oOMi567Cm72yn2x47tBajs75KbSZO0yVuKu562x3YDf2xyRlxL1Fc7QI7QTp/Rxp2hIuyR+Dr+pYRvffUhz0vAwAQOnXnxp+npQdyXyTc0smiS5I8xO0ZQzTLrUWdn7tg+lvR/sbl2eWVO/XqzpU8AjLY6JCrmGTr11tCPBTosWvaM7daoBHf05OXk4lLHASZcsI+aI/J4soPmLb1zlbEVjUQ0gmZgfaTkZUqZvztpcbcgfdb4KuN8FR7ohTeZR/Xir79ljg4v9Hj9MzQetU23LPpcgUSisD6rn8OvSCDZqBe0GhW/250z8L5s6vnDvQCbRQwjpavPnlXmqDuZtxDWhcTXPzBnoOP0fHlWgag2DB6M0tGBakpaJ5VuVrUBRkf8cUINEuKLxbV+03n4tz8zNbTELJcmvJIxt41jvLlfL9B6JLl1pYGsUaUdLcdrhauBDJQ8POSppiOwK8WCmMDfYEdFZL5JKhlmvnYUVleqaU0HumxKvsd7W+NQsqaRYTZlEP4aHEPX4aklABkpBuPwAfNZ/1dkaloE2cBjR7jmDhMBEuNZvQRWRtXNQ1T8+dKY1fgjDUuxhNvWXu1GKYZO5KdefOD+ZuhADxHOn2NZtzF6YYvcXeS7Fbw+erdy+yY9FtA+sdwd/0eq9U4N6pAZ7e9yIsGiklkhuxu6gH8JW7hvzVCaXYRTsP3k7cQjyL5r1QhPx+9nBPlxRtIsAjgocV8awBPDrZqIa6pQyabZwXlTXPIIpv9UOoTdgOYXDaoQB3uiKqSm7xUB28WPsvCyhH9Tdjeyyy0o42qwEIL4rGGTDnf1sakvOCWIqYu+mmzx1ZSNP1nBiKaufNxtxY35X8p1EwFLqnqu9Uah3syYR7tJcLkNR90VmmavxXq0VhKuFu/W9CA1UL5IIm8IeYbls/kR1pgtecZBsTCDmOsFy2LawibvttqE611gCGppnkaH7WwX7cNjwXiuZcoWdaJZXUSda3ytY4pUd7IXCGtA/RrFIraZO8wba510fCb6v0XFUPYCljYJquE6kWRMHAqoLvLuEm1m1C2XSGAOx5UFpQ5PWAmbt84BrayrmbDs+djVz9r2qeuhULpJ4btLmjwp5/qgWvqHoklFJSpbfD1C/0mjrndlpqDXzO+40omKLmTkXue0nhos7ZxeX8VZ1Np1bSsIf7TbAfANDDPwZFS+JJMz67kX0R1wKQpwj+DSpB3BKAD1Z0JGZkS5tB31XZwm0hNUm+HVQvcRa9CjvVJfkTEfHZh7A/DE6z2mAcnxWrIEYJLF4/2yCvI2FIG+E1joK0kB10+8xdn2nkfWMv36PNBnn5XCCJRQI4KNor8+dZzMskn/M6SEhDyhndJeljCamSUtD3OO+tjQoWZ+5SvE+GdiYJzAvx9/kvBoEXBYw6Cl6/oueFBOLvJCC9DFa/ANTtVJGKQ6wGxKKgxWBf5Ebe4xNDCw4QFU2rH0psoZ9FW+i7EvpS1LrRbqEb7blzISFY8QBQZCdd5VWis93aFhpgMGoEI1H1zynL0Fo71/r1jCU0FcCUC9PMvLXj3HGxjncP7WCPb+YCKeeElh9GfLKLYBfHLBe8SbPo570fhfNgFbsHUntxcBDrc/EqFXOfiqJRKwIkyhfVqVKtC+5cUHUpGhGF38eM/qywL1i57/Oo8OmkUXR8IiMxWA6IfTCDLfdcNTYFU03m36eMdfBg98Ut5d/DH4btKO9dkdhJssqWmM93zeLFS7syVNY0mReFRtf/SxMfwkwjUlyfSAehvoh6EFo1d0YBQslMZRo12e5zF2ix8/5QMyL5wK11YGAfesZ+qeam0ITdSZGj68+F34t8hREg1EsJn/WyTTCpoMJJ3EplHvq8enr3Fld6XeLg6vtcCBh5T3OT8b2iKkTXD3c9FR2eCGA/QmB7NR3b4Q8DgzJ85a5NBQX2WUb3k7yg3IOWgrwAzZu9qDXnfUBFq6kfSlE18Dl/JB9Su4F8KLJB6fT20NZ5TjQaLzc88b/ERm9NB3nN71K0dm6woyjTMW0/d7JAWvohnynIyznQE0Ei94RNbeI5upK/S1hMIdeCSmrUaiSUSEqOreSzF1SI45ck7uvEXiQRuJdx42eoAG/0XtYt+cI/g/vkyOD8XlA5dPyEgPcuVJnuPMNy98YWeNAkZwtpwR50ELj3TUY903PGrETv5a2VvQFQSJFCOlV/m0WJlqjtYhuB+3llvs8A5tQcAfeKiJC3zxc2m5NXn+VjUGGoJH3tvOOpAvKegPykpmvWpGtBp5OaaXjoOI3tWcXmvymcZws08IZCI5vfhDbB/Hf30U43pwK2QMVlO7V5WxupUq3yHorc6/X/IK1Meg8jWgbYr+NWfHpMnL7gkUjOkiXwCujoCZRvgzHYDm4MwknaKbYVLjJvX6rZycn+fAqJXfD+W61P/af09cwqyOFBxaSmatdXJ1GSawHwJHjfe6E5twBUxu99ViJ5ax2Rf3ezkocyd4iuNKc8l+cuoGsInLIQBwT5rSWGthK9fzN3hGLKNSkFSCGJZNkmILmgQlQ6o2ILrpr3ANxfivoQVaVaSkQxkUtl36K+/bPCCYCr9F+N+tn46v2eQR7wr0FbPwLrvwDYYRsMZQ4naaWQqsgt/Kbk4H+bQxYJVvCcKzuJ2W68rQ2A3pbCk6au1Ik18ufPNsiHJFwXqVaBk/nmyhwbKXpKDfLsDbSLHsJXhLfPGSYMn4TmLk3klFs+dwB5jh7/Cnls0ntUgJWqnfdTdEiz6T4B37ulJ7G69k71jL8lhSS6gA5Q8AYSm2BFBz4b2vgEVaqVObte70+oD1DXnymtIQ22AfhR5x4Zesp8Au0Bauv3AQLqK+nYAaoFwI2EKb4H6MNfBsdGjtbx8wnTw7XnN/Q3R2vaqG2oCnxoNMG/b0IUH4A8DrpBzm6l/rha3gGRuwL3QqbbZV1eH12UMsOiILNDmpibgqjkQFVL6oe8ShPAPbIiNXLu5GfZF0gVWYnytTB/HUN+LCqSDwfUTHa0Zz3l2k2i75d8V6io8b0JfafKETYZwFUEhuTuCTGF5K5iLhxakHGT7AxaIa1GgnadTdDuFcWP30bt+8ZXdR1MgD9EoH2J6fZEkkf693309SE6HkDXJzqup+j/4tGVXcfexi3/2gbcZ2jiUYDBQNwEvrAQFFj05k9vNciH/Hfen0LCVfUBEG2xp3xRog5f+a4I95ghCPDDCClc/jNZzLNWY1QUrmRwj4Tef0mX3EfPXd90qFAny7krqkDkzdW03g3scJ4L18uMovdSA8fD9vP214UFDaGg5gsD1ia4mADgS5zI/6qcD1bOuko15uegwf02MRWcjboZo8ZBkraKIgdjbHD/J4DO2UD8/Qbq30p9Ww8aWd797LuW276repewto3AveLGxE0B61qlky01A+RNO75eb7CFIK/975ebhFQ2vGhJohZRsrCvD352L83lHRQNXgtTMgKMH7M52XWmvSH7YWPbG/KzKWW4mJIpVK5PLXCdaRZGqK0qbBrS7TSmggVx5tzdZ22BvRvgImiTbt5V+Df//31i8FYxd9kA/STzyLcIF9zg/am4bu99dXoLxwoaIrx5wsckSyS/GRYzyLXzs/2jREVOyiYYttZ83r3ps/l6QnVQKZjnvGn1eYS612a78t0A9LpcdbCvuUi0a1GnujGeB+9ymzzzdjWDL5SEpqeipGaCvJwblYuQQibJ8ld5+EqqqAc36630ni6hRNcK+IGgSQUiKujTOSH1CFjBAjjMtfTm3w5vbnSvkug0iGizKHyhaI3Of1lUNBdjYZTOXycGjWHSgXtJ/l7NXdF4/1OEiVwQW+Q+FXa/mD9rLZx7zFL6N/6fEqGLESCgCAY+8RWfQfq5UxWb/vujFrpa9xiiWiziqepK2LOl1i4wfBy5dFlFAVKYYkJrTthQK4lkKUkeDTw+L2IXJpzzkqp4v1saBXUoz/h2GkaRA+CmY62N8ufJsZb/v62BPToC8V+rZFGTzQF58wE/6Kv+qs0AeVm4+o/o75YiplS7E448A1Dp9R5A9SDN2RvBRyZZfLAYGJtYlphlQpGJWgILKcnXkiRcZe76lvS9mMD3rgwoh2LF3JGlBT3fX6WH/BgAUMLP9wB0+4G3S2ZzV7aonSC65ZmN3JuyiFpzNW6BmeTZweeW82V+Hoalgtn59eIe834cPuT/wY0rF8mOsEQSncTM+0kmkSxom2AsrinyV5OiWELzb7nWlLJUN2InIUlqlzFPXW0Vv5dumv9qNFJKzLubNmUD08ppMJXenN0Qv68ikIrFMkmjaLhW4mEFfZSoUKRKYgy7iriLqPwee8v8KqF/yYy54/Pca4zI2HJ2xtx1xJ87tpi4KFRBWUrDe3NdwX83cm8GPY5pV5Y4j8WLsv1bAvV8/ig0fFFeP/WOqtdlbIkpGDGSzbj3P/0+q7M2gQaCY2XC+zN45vP5vmP1s+LQt8VUjb1Z/U83sUijpFdz0e92qAKsrBYslNGbLW863r3sbIcWfEvyrwk/SIpDbKSrVdBDU4MuvofSCNFbBkAlXenvlmYsMfhkyVm8x7pXpoqMC0FyNO9d4QW+3uX3nGbuIsrk70+5QJZUFH+DyAJrzF2nylNczLUBsVQ+lcVK3oUZNs0RAcUrJd+RMMAR7/2kuyQBd+wC3tiMgM6NBofibPfGit3EMuswH9ebVbIloGbQrLmyk0zy5HDOWM1eJFV26nWy0Jp36oeaOe/70gBVqMJxuFFViMwdlA3SoCPhNZQCjTa0+dSnFqX7odfpzGLuQr44JyYul59JcekGGpHXKsAPXThyKknb4bG51k9FX47nL9R4u94RvjZd57I6qzqXJJ7uQg3Rs3hyqxV0btQAeVQsBlv0+FKoxjPq9uZej6bTGcilOssg4p2fchdS6ON8gZZ3RvUZzXoHRd+/KRTJJzehIjqpI9S+rR6thT6zEo0meKhLqgBns7YB4HurqXMHQ6yUkt8g2Urz8PlaEaeq5uxBIZDy5IlbiVrspT6rocUvE4qS5uNDSXYWVT7XZPJo6l3swL0NQd40vig36m2Gr3dkwUPSAh257iVIDua9O1OoZiQZfB9qBMLnbwVNBg5Y5UKKKWiaUSl8qrUwqej9mJRRcCFIVPb6/VHvrfkUo/cdKexJuEAFNI14rEfN3cKFtsMQzdkLJRnNvjyxqmjpXr1REvVZ3GOhxfrrTXx+6xY4UqrqHQ7c25iTJyXF8+mBuTW1CqUxkL+uXkuwGkNX7n02xQNeUGX/J7YKoMKvw345P2XQiB99lamGAi1SyxqhGoxmumxFkAQQJsuRe1+fvGarHmwBR/anvyuhe6JNLtq8zX0+t8GLokLk9TC/SGQmUNBM2gIk/4dZuoEKwBtL8Jz3a6bKploE8MXAhC7nrWn18+NGDLpDucUdTh/cBsXJZnqjcFMBcZS7HAqCuDdF8LCRQiNF9G57zBrFQf7ts3VzBkAFGWVSF0DVqEG/lyiKpLyo+P+VghoKFkbIbVsN7jOSxNRyMbFlAP++iUJJn19tcSxrzf0VqlagGJtGy6jyOAzwaDZiCreSLnTJaZwi8i4O3OcAyMvNArULwKaJJkrFwPCfCl9i3hyR3Htsf4wy93pJq2iZeu8HcxG8n7gl4YHHdv6ialyydh9Ek+w0FY/sHvq+2dySqwKf5yFRnGJxLNnOWfkPV1kcVUNr77wE9xxLMo2c9V1Rn31agGczsHsy7NrWGC3Y690J0zVNY7nRviPYmhJl8Roptc8Y5EsRlXOrayW4oiJebmzwV04qxa3GnQybdc1moxIl9TxCFdAU4wI8g+7lQgGE5zLY+Swxu7TNCXc+Bdl9SVPmWZy78uJI5mEJqTrz+9z0+ZtVAD6q1qLxhZELm7T/TVJbiYj3L1XIKL56KON+D3VVNvb1yhF8RxtWqroRHeUhWjk5KIBoTiQvPC71zew7tJFIMKCS6EFJsFWuMJuih+KkDB+2tAsre297v0rAowYATyD1J5TSRwC81nF/IOHOR9QS22Al0AZbcr3rfG3C+6E8d8RhS0tEPXflvMXRj1J5i0KCaPcByZFktOPRtQxlm4kWAHwouV+koqZXqPfV6ZB0joA8ZINKitYUkLfJp/zPRT9dDTTUdVELOe8bCbXILNfM/1wi0DbgDTUFcHZCPrlopZ759VS00xUGKYmyjWV0Lv+7BDsfTWt9cjapmSoUxdNg8JZm9wMVGXyEqs/d0i6lNJtMEMhskMrejO45LTZ4dwuti6NksrekEE240epRqdW2znlNsRhWLnb0OitrbfXK0sglz6G/uV11lomnRabXzM3sOdkW+Q+UriN5mWRnwuC2kebnwDBIBTpuqECSVYEGIAVp6mzTWgriBeD3QnSdUIlUZHrr79IjVM+dkkguhPGZ5etjmPSJfz/Jg+k6F2Q4d1oDf6EUK7ayHaXMNVOe32iXhd+N+CDfzL6T0sz5b4iSqt0gKql2fMLtuBRbXS0Pcrs0CVeR6AGQ/SWIRAXgtxAAPz8EUoqr9t+foCGEKqbyL2qzh1jrwM9P6EUkWvh/RGnhlWoLfY13JMhdSM7nCtkhZKmBZ+uLyxLLbCs96dN67K8K5/PcmAMgj68wtMqyEUSU8RNF1qdGPbyhrjUfD6puYyS61E7h7DA10i4ADwDwxPI15vtjH5itfRxhq0XDfIagpLxymf1kAu79IfLnOabNtuHai+VtYj2QCOAp6Q674mocPCp1RRwQ8/4vsCHc18Me7lncM4ccsuyx6NSWkQY+sdEcv/4mmJ45qmYOgjx8u1UT5qmMOxRJFH+daOP1QyARj2knR7apKXhQJHQXtVP0Ho62aY6/lSAak0TeDIBXRUHPNX0A/Nj8+yQD1B/Eo6eN5k4rScr0VuP3Zj0OPjg/rBHKHcvinZ+95z9Si4JMsetbgCpmttsoJqNaWOljDeeS7gDEMuMK6TrlQH6OgTwKKtB9J2F/xkaqMYtR1ZgKpJ5p+PcEAM/J1asXLXrZE9rv5qvwFLmEQTg+wBNFAyAPb+EtAPa9AgDIlZvF+ADlfS5LgMoO4IP8xSF0rTt5oUsC8L+BUqYavUWfy8fi7hzl+eAitNOz3DkqgD84cZEcN7RB7ga+RCmllkVVI3F+1O7bjTkA8kRFPsMYLmVraVDyen1RaXw0imc0AE+eJ8qBsRhH6xwurGonjlBH2/CLT7DdZoD376Ik69PVObWU7gyVRynF4ldNdGeT4O2WQFMJ6oVBsU8MgBcdvG2wYe/x8H1netVSdymlgY9tMkaBy+sznL+ggQZ7Ck0mFEFI/uH2JUv6D6Qcy5e4nWdSPxtxlXwQ1+Wi+Lk1AstW4tlgE3BHgki6vvFTr3elSBgVSM1jnvUtgSVqb8O7h7L2naOodosqNAdPQHJ9EoCXROHA4QP7SJRdIXnNexckqF4VP/+d4vHeTtSWnjve3W2Ou/hHNZvuCDqfBTmox4N6SLJzZDO7bWjhmCHgaepoZYr+sHLf3IRzcleoDSmr2Cc5UPurSCfb7Z5xo8aNVRFNcwu6TEC+XFR1N9QkQl2EEqznJrBElSThw+L73W5RhbxHRN94wGKDVEAz+FcL/wkAkPeJ6lYC+O/HrR1Az14G+LE+bijSbiXpKoJ/VlyA5yCBZX75j4cBXt4reuwCBJmiSSKRHFmS7fxpy47zEmrgy1W8Of8XylBtsNwbIT5VI/k53jF/JcwAuNHmQ1d+IqLOrNq1zMM/pDoCdepts7JETaLh3o4y/TYEqUAH32spqAdjm1mVH6hv6/Mqa4fHAfzN9rvX2xU/d+HdsGTJwH5tHsG/gBakrbEWx0pvnXeGo+MA9GjH6iUwtgtsgmlXhvxVhvOnOlx5X05i0yBBEldA/z85H5qQ0K7gu/2mADFddzSWTq7MMvfgRguG3vrTzXB+ii1itQ47J+gbDl+NHIwSYQak8vFAiqOUu+Dn3Y4AH/DkRCHFVWroYhOd3NIAj+pWNHeOHYEqe2cBqDaLxLSK5oggP9No5Kl6pCJYCX8eyjv/qITdt8S758cZV07PsLeIrYFXi5vY/ar3+0JF1STdnQu9dycSwS6Kn2NDwIObNl8eW5teQ6tOkrJyZ5iFFuCZH7wlTak4orw2jEIVBYUGFgPxCk+U5a2YWQlIqSKdZ4CfT6KBnysATwB9dJBsjAnw3BPgZerz6NSBDMC/nMfxpmJLB1WEnEX+RyloHo8CwUQ2wRFWydpLRrcATBG4SXHhL5x0cg6DfC7XD6nW3amSM5W+5u8Ov4bxqu+NuQUPNadAD9J2i+Ar/FSIq42tZxaKjBKh8v7CRU5sJ5vE3kGqMG9sU4pGq4ROSgDCIi/dIT4xIYmk7KzenbACmCkQ//1R/HlqWmqRSSxv8L1kAM875ofV4tapurw9gii/H6bqdVz5TJ8bxQC4kSHH29wHzP+fBIUgM7y5ecv432EOnptUJHHMEyXD/dJarp0KdZRd8EkJeoyqtnP+9eIkqTs3pQF4cMj23PlxabPYZvTWvI50Rm1SIDYmPjHyrFQk90WBFFPZpOifwayid/350jXnAu1/AgWN/bv8NjrNi6ICA/RPVoFbUqpGRA4PSo1LGzi47h7A3oqVUkWJz1Pt0wopV/u3qwdYONahBDpurUWelo7vbRRBBGACmsssbr1+bKtgpgEuCEd4CuAPUO0YJxPomu+jCHegnemtXHzDLV3kdB0S0VV2PxTJ+t9LEMkW2KTvAbHTzUoiqewTXpfQl6nCgbT/iP7u0AKk5tU/M1DVpKZqvBtkIXVUTcqIXYMYJ3g6m/yQddID87M0vUUDTjCiqAY7hD4/Udd45XVTtrpthwgi5PL4UOxIrDIx/crwrkoBPMrZ/5ZA5jfV5jUEwQIJ5UfMe88ujr5Jgl4WLnJS1dNPonP/FqoSL0Zyv7z78TbT4vjSDBdH5T7qn5EQfMuLW693rfDjUQ6kR8MHn57rlIWNum3hFx1VkxGw2wKN/LnI4kvRQRMmtaKcO01/zIB+yeePDT8QkEgOJJduCZd8pURqsx1BaH97mrefJFy8gkIV8YmJ8vABdQOQSiCTLCdaVcejdnkwK5pOE1DFLBDT8tLP1Nr9EID+k+dgV2yJJO2cIBDIkN7Snaw+kVQDbwHevKe1eqGMyrGZnsFkJJaSqpnRbCe8W3CjBrDrDwfNM4y7HjsTstnRKU0EeOHh35PYO76sp78X3B9f697qAb6Cy6iT3GCTkogks7G+NqAaylXBybtTKZVG2cgqtMCb14DSid77jxJWHnOSOr9efG7azWaZm07fHkdNUqkD998TBhwlGTxCtTgsJFgYrxQb4swbfRA4J0j+mvcu9h10/30qPJ+RzzYlmjPoCyGuk3eKos1F8XVu8LC1KQH7cRTtXoUPQlZ3Lmb4vRhtZTyp2m88TaLVcIJ07f9UvvAG4KHgkB6sCQE+8KMBV1vjhm7JUM1LDqT39c+EeYuiWhAPi3o/ld25/M+mabRtqQDvrPCDPxuLY/jzM/mfvLcpSZFTSF4anD9Ifi/JvyqhTbBIJNdqT5usAN5UJ8fftVTYfITyXZHRdMhu+lcZUDUF6aqGwMOBfBVgD08KkmDoahMoUeSGLHcIwo18chPoiTLA93rfTxJR6GgUlsTy3mRLiy5CcLxL2TU+KLwQSdxsKEIE3PGAGvtlpmYSOHMWQFnBXlgezIgHRdNnZyVMUms3zr/Q3PXM0tx1hgAo4KLNvY+ep3FAWGngZVenFi7tMz/I0tU4PWxLsOANBxQdGUokuYXgP5Jq4APv/Hz+DfUWbUXVLE5tT6LFFHn/nOB9dTjXyUhgJ7A+FO2yoGdlHlcmsRhRUXdV1gUH2mXS6LgTRKPVtstlHrSvT7fcS2NoxlHVl8PX30pw5y3vp1m+mUgBwXwmCnSW8t0RKT1TMkxrF5xgkdS2t1L12OLIq1M7PMrioppuvym2xLRMCW4TCWiUigQa9tj+RxVFe/n3ZLnrCYqvYPhHEsZEQU8Z4B+k53aJes+d9WjYoIVnOlVNkRvUPED2IQPqfe2x0sl5YSAy21LadoNX5htQA3spyhvCRvH+W7PkA4MoirTrafh3ueEQJYQ/cHTTCVwk03nQCzCiL+ub5OZtAVB1VoA7qKx8X5pm5pPIRyB6V5rovWotKmzGdVuChtthPfMOiXj5NZsdec0rU1oD+xHAnCa7iOC96abTjd974l56q5wvgkrphIVuApvggNKR+yyre6yK8qqQMN+1GcVSjdCVcv2m6Q6JFRLRfZENu/2/iEBgT5VOVqxqpmS/N/9BUBaYZOW9UW+ypWvSDeqG3juLB882Hcgn1cBreibYYYQA8R0JqZ/qVA2ZRyGBJjdvs0AeN62yAwYt8ym1EBZSAu2ieuAhDw2iXlBoqSoT5R7Ko7K1/8Dw+2vG3JUX+dzj0WyGAGEdRAQViVBSwcRUk+gCsXXwOdLzKPceXgdl9gmS+1Jcd1/WxXWR9gkJ8jc8X38TC4pG7n9VAJUnCmpnGpNBqfcIm53taQ1CAnA3hlEEdHQD3xET2Gu7xy2MD/L4oFXkuIDOd22KnpBap35WNJ3hfzplxFBtsbtFyvuzVofgRtXnG1gy8HTJUaQA98gWcHUeTu0dflqqauNKPfPVFFE/PWqHkgWI6fORVfHzAe7LjjyqovG3vDZyGTEDAB1UfCs8jypwmY+8Q9z6gUADr9QiGUokRdXy3oQ7ZvveffOefildrBoMcHRO5wOJJdFRRYhs9rbHVbmikg6SR/iBYEItQDQO7NW1qGWuG5F8Iytn+MEz236SgSWxK50ZTfjj/RwV2srOYLuGB/i7KSSSdYDKu02qNEPvsTMLcOJ5Opbew9/TNi0XbTWd689xKgLLFIdJVk+k1DMr/TjZ4LKkVa4lxTbbSEfDc0cUxxvRcxSvx0GAbppuJcHxG5WX30Ov//EwwMt7wMJi+p3Gny8OIAz9kGXlphI0+Bcl1sCXF7dL4uZT5PeMBTUFdhwopQm8mKrxJuj+fP4eR9WgQw94wiOXLpOJTNsmT0qop5TnSwAEOISywCEPXfgGINB6lXIoLKWNCMOt+vSNhORwht2jInhAbwd2R8t4q66jUsUzV01ACahH5klotyQVk6xqShrtTPLntkuqVhuNdkL2zl9PwClH7QYtSORhB+uvAP0UXuTqJM46JbfEoD4vdH8dhC5LZTmf5Y29kBKMpKb7QaOfQAMvzqVnaNoxlJj2E7SI1KKGX4lNcJYSSVas/Yyj8NiV3aLwAdWbhBpRC2Ef1Esp1W1qsfV+JvfRHiWdxAehbuBMKArZ3qFCFEAUY0dxMKIH5dKYpvl2UPggSoZwootdFm9J2Uas7lww5XUFgdWr0Tov6uGSBU8oqmoPhb/YfwE67cCkK0iA28Up6WdXVCqW85OoWFThzisSJ+eqLJD2/fk/hKIniqqRBVvPXRTwmxwFuYbCUkJyTOJ4GHwlW2BLeVhq0TTbRrPxmJ2cyqKD3GvD9IdS57wulU1wLn9pFDinof3w1fZG8K9X0XNsRZS93/NDCa9PN4n/kOwkUuCAYRb4mt6b5Zy19VDt8V6SwjWuZqafV84xAu0P0+vkoa8FLSTRld2K5Z9ljI1IUVCR3E23myg3w9Z62FDDY0Mr5BPZBMeaC3wNIlsCejSpxryLtUE98ATHjiIzE7ETsAudxtdcTAukHBFenlTmKvNpCmSoXiJlsrXaffQA8gxQjoBua+QabfI0dzC9t1XwhIHOWugYc30WWGWndbf4ukikByOv2IVIFRr43KJQBKsK94JG5Q0n9yuKiFSeJEuJpDGPK1fuFhIq1kpUxHVMeHGLey1Lly59IooouY9BGjwoSLV5Lyemd3uqRid9cPNn+FDqyLBowWjAeor3en+CDzS28khA0c9/jcSubKMyAi3dnPfPR7CbnebdpfCBNfCllBr4Rh/MSQErXlA20s17Bc3DhXDVQ6cp2Bab5hJL8q9BOzIkm9Cog37vZgFiBQpp6bSSzBM4fCy0aW58FcUfo6L4TPrpygPKrd6QyL8VuRPsZEDhYL7M6xK1hwUALfLo+Dzda+tEz42/VX74hYjeprdgRye5KVaTDCZINkoV8EZYKVeRSILn/ngam2B6n6dmqQxRNSeHQ7+fUiJ5f7h/QNx8gNrpHKl2WcW0gQxyKiKd3N0bduv2YccHGed0WvBIEME5Ie3CBEcdSvlRyIAmkoirhKhXbcc6I6KoE5v0vmstepMShcn7VzuIB02kyjd0xe/k+/TfZ0GlBc1KIE1TAJQoGqxsYO5/VcArw3kt6IheFjsuinmY5+0hAZmI35mMur8kuYxcDCJ+/eAr+jKWDzz/zQ3KFqMiwYq5wsKdILkvMtYC6L4sI9HgPcM+IXkvZFncRkUFlZTv1vcTjAZjF4TV6AlBAcLnklCRc1FFI14Q+9Cb/2MTko0VKygXwRRUlD7JNqmZ0CMVXderfIiVzRb892SogY97s02aQ/mWCF+vokY9b1lSSALuDxINcWxY8pj2fiKFyHNU5fFkkxbJguy+IuZN/95kHXCWyO5bKqLrlIUqAQdckFZyYT8UOb/huUkhZgrK4hWGTZYT97bOInMNPNFZCTXwSv+f/52YoKUBUPlbg0+0+8+AZaBnyYpAaCE7cU+QTqqoK396C8GuWecX8//roO2PinAqt8n5z/K2v9hSgI/I9CvqoKAWwVIT5l1A4mGamzclUTo0srWG9lg5WRaaeB/NnLdeP76kkexxwxEk9PGxJZLw8TGRef4r1SSSpM55upK2xu8BDFqTKbWsfOB1YjNhPYOmQX6QkQlaEHTQjuXlCY3ZqjqYigCkwTnsrHHUyzXMnoGe6i6zQFwVE5abz+qBnQAD10ZdRVotKjDb5Lz3fd4mF2YR4Fu3kPDNzXLItzRjm1rZ2MG7MEGZf6vnpML5MBAfUASaoOl0CfkW49tE+ZPw/MpXble3OQENEjQqp+f1yRl+dmXaMudfGrs5e4XCZ2mmFEhIhvvJBHmLWsKCyyTf0gDVJYuNWKjMC1G/Ir+eFyV1nk0/nPLqzUmlNn4g67V/exiKnFqUg9wwhx1GGfqcd00Tksvtd1SqRe7zqcCnmRykChoeA3VO8FA2MZGdstoR+ZoTrERyoUgkF6JALi7Ai0wQyd9qGnhOHJaSSyT9nwYLagZOibqVIIQPCWsZSlGmflnsDFUCuAcFXhlQycXy5+S9s861dqbA1M5arMlscPGPptX3ZxlXdrYK3EvorVrvxipLJKm8P2Yjhzl6FAPJaM7bgK1uKxJMZTpiYD9EnCryaqe5jjI5ewQDvC5EKjS6kCqr3JeFEvw6kHqLCqRKsQFUtabLUiJpLEsIQFO4tkoj8BOyvD57DmklaIogixlQf4IbO/zqIgOVr4NCyzsfOz0omIy1Cxn7Qb3FcvN+FHdClqvfNyS3UHaBAkfhXJbKp6RR16GgOTjbvKt9KRkrPQwAujd/SiPAFXDE1hL1PuW7k4T7LbX5/ASqk5yVhx3cSvVAQHeQq6Apnukb0HPXFrSeLejJjwsfK4lRuIwmSDYWIzqH/ctMlVH+vQnyXUWogbhg59wsud1K+4Rg15JMA4+vNPhpyyyBGdlgJh1VM61kwr9FIjdM1YTyde82su5c/nruf/EHVBND4mwXAG/t0S8/Buf6iT4H6OLABoZtS2ajV0TFamX8aaQirT0j+ULZs8S7V/dhbMAci1sA5l+WUANfqmiD1360gyhvpsqVoPmviPZXJ0JbQf8F6gx4+uetFawCzdIsU1esgadtP9dLSJETtu5JNPAMjvAgekZVDXwu/4UEBneBLTeBzfIsF2lJMgKYoWFP+NzL4rYF1dbNCCKUUdvTgkbv6fBJ+wZ9uhaGiDsurDz0TjiQl6LamgJGdFFTPvhQ6n3E1ADZ3OBRswnw4YTGB6BdV6XwbcMlB9WNeJDIuzpGVKoSgP6KFBp4E02pBGK7JGkL8qDx/ExoLniWEj0ByMP7iIDzW4F9QzZFbemcP7mKF/mCkFzwwgQaeFFxXSMtLNXOOPiKRvXJbIIt8IbBJbvdu3887uOkGnhp0k6V1/s1aZcYBCe+qX4PKLFCBnmY6VD+rjN6rkz+ZAQUnv5/Cl5+CfWQ6XyX9y4Ighq6F0xvDesu+4osP7dUHzZvhT6uHsbJFhUDVVWAiOLBXo//Q1I6PDNOMiek8DhPWto1XCpuCrbMXPwDbepE6qYeiMJsRexyowZJ47z3TfHgmUVwnwHy+IokHF3rzpCXTnEWaKxdTEV+eeZzQNXdfuziGtMsBX/bEWqwrb4+OchJxFTQSGEa0YsvzVgiOY9piHfE7l41sxH4FbJYNsMOoLLxu3dxVlSNyE8FU8LXLlE3qs0ROEk0Xv5cvavovX8NbILJY1gjw5PZmuQY7hHxilmN4KNAHm208oFDXFCgU2phxD4pySV+GMfQeUeusYo0qT6Pl/e/NBBPA2+2c5CQgXsTPTNMnwIuL9uK3MYKflTlJs/Zlap4qUPJumZ9VN5XfTk0xDCLkl8B9M2euxJTfCa/tHRgWeDropunwJM+gkYpVTnCbRsvqCaRhI9OQq8XAfhb0laJVlOJwIgthU2wWdzovX8j6vNuBlWDCJl20n9n58tdae8Jpuu+F16UK5Q8sBIxORv/SH3PgH6k+fvu4sXLnmJlrP6ZWOgRCNLfvojyPVvFn2fWAX7mm8PWLb8+VFbflIhekoM6Ymdd7j3gLlElGbrGzrirPxJpgXwvSVMTqnCs3J4hs298T0pqjkoZA1ZJzUtRWxnYmzu/DuoM6UjUBlF73UUWqi00CsG2XhYpfX9lNHclXTksu7Bg7ihgkN6z8uD19/d3S48EBo5iA0dAj4mmXssYK8z9ct720M6l/tEb1HlcIzbBWRWnVWrg+/VCW4zx3ifDJmhNTOQHO0JUpKp84UMRhW+FGtdcUBYYu+S5Ep+fsIS0DPDe6AyAx/NHCVbeCZ1rcoNkxY7cjrGnJoAXaq0tAD78Adnyc/8r8PxQplfTQTl4MlVJKQRck/JhqYd9A7ZiUrwUKipI9H7YmuGGWDbJqmM7fZDnhRdBPHRWDuX9EokqARAF9nITTUqSWG3/y4eqaq34feZGEa2Udwv5cTyUWGAigL2d7VA7Q9HRAiQ1YQQlUXB47ljRNalcIEu15k79flHfU0FiDsZ35DUjCUEdGfZah9UH0CdB+wHVOxDBDvQfOa3qDHS1I0d6fcfa31va8HnlsF2nvF9mqamWZ8K2EPSuw2vEec/6ONLuhs5oheY7pKr50lKa9yTXrA+876UDR0oXqFdG3a9osIOkqVhLlwHe+yMWX7OIU6ctye2YRWGJSV6X5JxJOt01beANVBj/mIa8/reRLZcbQdQaSpq3iyOfyRkH/t/+rFDx8PkD+lw70UMVcjJsbyJ2FqkMsYhawTZ5Y0yb4ECmhoIwvdBosMLuAPwcenkiCkRUoR8YySEoz5TwVj/wpenzK28+nsPb7TbSP7WPu9Tom34umSeFfe9Jh/0Umrs3mGYcFP1YWmIg0dzpB5c/5/vAjdI9dRG9xmuUqmhGVLgEwYxtpvIdKJA809eg+oGfm2tG3sN8DXIf82bSIIaa+h7ObR1V89+ud5R/z/jiL89SYy7zb6y70Y+51/sRaJZGrqvi+vJmrr5HYHZ4lhLORlgGFEChHzFkjABVuo6f0/ELfLWyRe/H4YN+9lP+vcqDGoPQPF+NJkEqaJqnGrWgWcxnFS6xKs8/B1JKua+NEyzz9KZojhYhus7/bCZ1lRllgzeFiJrexBqTRICXNnueh1fE8BH1O7YCNb8ek4tz0k0ysGjRoidE8G5pIgIVReWPAPDGlEgWg201J0u0UVEY6MuRKVkA48Mmm2RQEUiSyWuH50MB2JTZ4tHuxUQGpLHFrsHaCOeeHQZx3cd2Lo6o5trwJTd9AiAzo4fRWBrbuXu41tzxgr3DUC9kemUSX/TgYUstDeEjIrNW0ljzOmr7mtQ7mraryuDaWk4H6vsGgIyeBraCOvcY7KotHZt7RPjg/39M1IG/g1XFwuqRdmeV/+tshApr2xHqZ9rBCanH5nL9B5tO7GRUBDAi0LzWyIKIq6LV8C769yYsAqAUoBO12xkfD+3nURGGrQsoIALxR4UnJQNgn/EB0MP+2kDLHgPgbRs2cGn9B1fjQKP6pjJgPYKipP0pgjvUcPakZTY+8Kb6DYls/xymKVZhi2/kWPn8C1FdGHU+eZ0sStXbCeijohs8uNA+E399GOYOdRqcxDrbzJ3Z6cED3h+G9TWqChE1IeFV53X2nAbMu/Fosoigc5b/fna21tUkWigIwOpH0dJTc7mB5yGpBFBDtxwAFjLf4MAlUVQtS96EB1Br4M/0vX7h2uL6fI9IJFjnxpoX1Us1LQBG9bDdHR/YjOeuU3oCNxgsdAo1Gfuov+AmPnezk+a4dqHNkh6zCGjzdL/nLI5qkXqV9zkvdG9V9KCYq7bEnRmATnCOZkZVlT7w3idi6mdZImlUFb8XnW+MyCFoni1zpT7wzvA2WTckb6DB9O4+zP0B5UFo7sIPTKcAVPj3XaTuhhsZraICTPKAyXZYA5b8fytXNd0XE4mhuAAvpf/oC1pezFJvDduCx5yrwO/mzg033KgAeJuE8a6K08hB5Ixhz4qO3b0zuxtuuOHGXAJ49MlESXIsm2ClgUdSWNMpbmbdcMMNN9oE4FHYorrGNwzwor2OKGJxww033HBjFofu7XikaKkblkgywNPxQNnrumO3btbrhhtuuDGXAF408G81YJ1LoIGn6l0UGukdgRtuuOGGG7M7lETSPyemY15JaeBvkc4vDuDdcMMNN9oN4NFNh7vGN+iGqTXwV2Ts5OeGG2644UaaIdWF0N/DfIgNzWIVOXHvxq8H53QA74YbbrjRBgCvHfOka3wMDTwO6x3uf9gBvBtuuOFGGwI8N+udYB+ahiSSXq+lcZBk1Y0AOpwG3g033HCjfQDeuBFSN52EGvgSAfyr+ZROA++GG2640Qajs9w3Ea31TEOS2AAPDTx1+jlMRe8O4N1www032gXg4RduGmrk4gG8jfj9u2B1jPPs7na9brjhhhtzBuDlGzIZO4/17NIjdcokW2sd9Hu2kbL3J2kg4QDeDTfccKM9RrmfLMkcpWF1oweieDRIpsXhV+jK5ADeDTfccKPNAB7+82iqa+SOjdkTBIeVSHoXyAkdwLvhhhtutMcI2mahIzrMxqiFYB/6dtY7evkr/d3SgSUD+0Wc0w033HDDjd1ssXDDDTfccKPNRqKmwkzJuMImN9xwww033HDDDTdmb/x/LnPJkhc6h94AAAAASUVORK5CYII=;" vertex="1" parent="1">
          <mxGeometry x="374.2" y="380" width="131.6" height="70" as="geometry" />
        </mxCell>
        <mxCell id="Ryg6QgMLUXYhueZ2bqbR-13" value="" style="shape=cylinder3;whiteSpace=wrap;html=1;boundedLbl=1;backgroundOutline=1;size=15;fillColor=#d5e8d4;strokeColor=#82b366;" vertex="1" parent="1">
          <mxGeometry x="150" y="510" width="270" height="210" as="geometry" />
        </mxCell>
        <mxCell id="Ryg6QgMLUXYhueZ2bqbR-15" value="SILVER" style="swimlane;whiteSpace=wrap;html=1;startSize=20;fillColor=#f5f5f5;fontColor=#333333;strokeColor=#666666;" vertex="1" parent="1">
          <mxGeometry x="300" y="570" width="115" height="124" as="geometry" />
        </mxCell>
        <mxCell id="Ryg6QgMLUXYhueZ2bqbR-32" value="Partitioned Parquet&lt;div&gt;DF&amp;nbsp;&lt;/div&gt;" style="shape=document;whiteSpace=wrap;html=1;boundedLbl=1;" vertex="1" parent="Ryg6QgMLUXYhueZ2bqbR-15">
          <mxGeometry x="22.5" y="47.5" width="70" height="72.5" as="geometry" />
        </mxCell>
        <mxCell id="Ryg6QgMLUXYhueZ2bqbR-16" value="DATA LAKE&lt;div&gt;GCS&lt;/div&gt;" style="text;strokeColor=none;align=center;fillColor=none;html=1;verticalAlign=middle;whiteSpace=wrap;rounded=0;fontStyle=1;fontSize=16;" vertex="1" parent="1">
          <mxGeometry x="220" y="730" width="150" height="40" as="geometry" />
        </mxCell>
        <mxCell id="Ryg6QgMLUXYhueZ2bqbR-21" value="" style="shape=cylinder3;whiteSpace=wrap;html=1;boundedLbl=1;backgroundOutline=1;size=15;fillColor=#fff2cc;strokeColor=#d6b656;" vertex="1" parent="1">
          <mxGeometry x="480" y="510" width="270" height="210" as="geometry" />
        </mxCell>
        <mxCell id="Ryg6QgMLUXYhueZ2bqbR-22" value="DATA WAREHOUSE BIGQUERY" style="text;strokeColor=none;align=center;fillColor=none;html=1;verticalAlign=middle;whiteSpace=wrap;rounded=0;fontStyle=1;fontSize=16;strokeWidth=6;" vertex="1" parent="1">
          <mxGeometry x="530" y="730" width="210" height="50" as="geometry" />
        </mxCell>
        <mxCell id="Ryg6QgMLUXYhueZ2bqbR-23" value="Partitioned Table&lt;div&gt;EVENTS&lt;/div&gt;" style="shape=internalStorage;whiteSpace=wrap;html=1;backgroundOutline=1;fontStyle=1" vertex="1" parent="1">
          <mxGeometry x="500" y="575" width="140" height="115" as="geometry" />
        </mxCell>
        <mxCell id="Ryg6QgMLUXYhueZ2bqbR-24" style="edgeStyle=orthogonalEdgeStyle;rounded=0;orthogonalLoop=1;jettySize=auto;html=1;strokeWidth=4;" edge="1" parent="1" source="Ryg6QgMLUXYhueZ2bqbR-7" target="Ryg6QgMLUXYhueZ2bqbR-21">
          <mxGeometry relative="1" as="geometry" />
        </mxCell>
        <mxCell id="Ryg6QgMLUXYhueZ2bqbR-26" value="" style="shape=image;imageAspect=0;aspect=fixed;verticalLabelPosition=bottom;verticalAlign=top;image=data:image/png,iVBORw0KGgoAAAANSUhEUgAADFAAAAm4CAYAAADrhLxWAAAACXBIWXMAAC4jAAAuIwF4pT92AAAgAElEQVR4nOzbAQ2DMAAAwTIJCMDKzEzWxEwLArBQVCwlnzsFb+C3OecAAAAAAHiy43P9xhjv1R0ABed331Y3AAAAAADACq/VAQAAAAAAAAAAAAAAAP9moAAAAAAAAAAAAAAAAPIMFAAAAAAAAAAAAAAAQJ6BAgAAAAAAAAAAAAAAyDNQAAAAAAAAAAAAAAAAeQYKAAAAAAAAAAAAAAAgz0ABAAAAAAAAAAAAAADkGSgAAAAAAAAAAAAAAIA8AwUAAAAAAAAAAAAAAJBnoAAAAAAAAAAAAAAAAPIMFAAAAAAAAAAAAAAAQJ6BAgAAAAAAAAAAAAAAyDNQAAAAAAAAAAAAAAAAeQYKAAAAAAAAAAAAAAAgz0ABAAAAAAAAAAAAAADkGSgAAAAAAAAAAAAAAIA8AwUAAAAAAAAAAAAAAJBnoAAAAAAAAAAAAAAAAPIMFAAAAAAAAAAAAAAAQJ6BAgAAAAAAAAAAAAAAyDNQAAAAAAAAAAAAAAAAeQYKAAAAAAAAAAAAAAAgz0ABAAAAAAAAAAAAAADkGSgAAAAAAAAAAAAAAIA8AwUAAAAAAAAAAAAAAJBnoAAAAAAAAAAAAAAAAPIMFAAAAAAAAAAAAAAAQJ6BAgAAAAAAAAAAAAAAyDNQAAAAAAAAAAAAAAAAeQYKAAAAAAAAAAAAAAAgz0ABAAAAAAAAAAAAAADkGSgAAAAAAAAAAAAAAIA8AwUAAAAAAAAAAAAAAJBnoAAAAAAAAAAAAAAAAPIMFAAAAAAAAAAAAAAAQJ6BAgAAAAAAAAAAAAAAyDNQAAAAAAAAAAAAAAAAeQYKAAAAAAAAAAAAAAAgz0ABAAAAAAAAAAAAAADkGSgAAAAAAAAAAAAAAIA8AwUAAAAAAAAAAAAAAJBnoAAAAAAAAAAAAAAAAPIMFAAAAAAAAAAAAAAAQJ6BAgAAAAAAAAAAAAAAyDNQAAAAAAAAAAAAAAAAeQYKAAAAAAAAAAAAAAAgz0ABAAAAAAAAAAAAAADkGSgAAAAAAAAAAAAAAIA8AwUAAAAAAAAAAAAAAJBnoAAAAAAAAAAAAAAAAPIMFAAAAAAAAAAAAAAAQJ6BAgAAAAAAAAAAAAAAyDNQAAAAAAAAAAAAAAAAeQYKAAAAAAAAAAAAAAAgz0ABAAAAAAAAAAAAAADkGSgAAAAAAAAAAAAAAIA8AwUAAAAAAAAAAAAAAJBnoAAAAAAAAAAAAAAAAPIMFAAAAAAAAAAAAAAAQJ6BAgAAAAAAAAAAAAAAyDNQAAAAAAAAAAAAAAAAeQYKAAAAAAAAAAAAAAAgz0ABAAAAAAAAAAAAAADkGSgAAAAAAAAAAAAAAIA8AwUAAAAAAAAAAAAAAJBnoAAAAAAAAAAAAAAAAPIMFAAAAAAAAAAAAAAAQJ6BAgAAAAAAAAAAAAAAyDNQAAAAAAAAAAAAAAAAeQYKAAAAAAAAAAAAAAAgz0ABAAAAAAAAAAAAAADkGSgAAAAAAAAAAAAAAIA8AwUAAAAAAAAAAAAAAJBnoAAAAAAAAAAAAAAAAPIMFAAAAAAAAAAAAAAAQJ6BAgAAAAAAAAAAAAAAyDNQAAAAAAAAAAAAAAAAeQYKAAAAAAAAAAAAAAAgz0ABAAAAAAAAAAAAAADkGSgAAAAAAAAAAAAAAIA8AwUAAAAAAAAAAAAAAJBnoAAAAAAAAAAAAAAAAPIMFAAAAAAAAAAAAAAAQJ6BAgAAAAAAAAAAAAAAyDNQAAAAAAAAAAAAAAAAeQYKAAAAAAAAAAAAAAAgz0ABAAAAAAAAAAAAAADkGSgAAAAAAAAAAAAAAIA8AwUAAAAAAAAAAAAAAJBnoAAAAAAAAAAAAAAAAPIMFAAAAAAAAAAAAAAAQJ6BAgAAAAAAAAAAAAAAyDNQAAAAAAAAAAAAAAAAeQYKAAAAAAAAAAAAAAAgz0ABAAAAAAAAAAAAAADkGSgAAAAAAAAAAAAAAIA8AwUAAAAAAAAAAAAAAJBnoAAAAAAAAAAAAAAAAPIMFAAAAAAAAAAAAAAAQJ6BAgAAAAAAAAAAAAAAyDNQAAAAAAAAAAAAAAAAeQYKAAAAAAAAAAAAAAAgz0ABAAAAAAAAAAAAAADkGSgAAAAAAAAAAAAAAIA8AwUAAAAAAAAAAAAAAJBnoAAAAAAAAAAAAAAAAPIMFAAAAAAAAAAAAAAAQJ6BAgAAAAAAAAAAAAAAyDNQAAAAAAAAAAAAAAAAeQYKAAAAAAAAAAAAAAAgz0ABAAAAAAAAAAAAAADkGSgAAAAAAAAAAAAAAIA8AwUAAAAAAAAAAAAAAJBnoAAAAAAAAAAAAAAAAPIMFAAAAAAAAAAAAAAAQJ6BAgAAAAAAAAAAAAAAyDNQAAAAAAAAAAAAAAAAeQYKAAAAAAAAAAAAAAAgz0ABAAAAAAAAAAAAAADkGSgAAAAAAAAAAAAAAIA8AwUAAAAAAAAAAAAAAJBnoAAAAAAAAAAAAAAAAPIMFAAAAAAAAAAAAAAAQJ6BAgAAAAAAAAAAAAAAyDNQAAAAAAAAAAAAAAAAeQYKAAAAAAAAAAAAAAAgz0ABAAAAAAAAAAAAAADkGSgAAAAAAAAAAAAAAIA8AwUAAAAAAAAAAAAAAJBnoAAAAAAAAAAAAAAAAPIMFAAAAAAAAAAAAAAAQJ6BAgAAAAAAAAAAAAAAyDNQAAAAAAAAAAAAAAAAeQYKAAAAAAAAAAAAAAAgz0ABAAAAAAAAAAAAAADkGSgAAAAAAAAAAAAAAIA8AwUAAAAAAAAAAAAAAJBnoAAAAAAAAAAAAAAAAPIMFAAAAAAAAAAAAAAAQJ6BAgAAAAAAAAAAAAAAyDNQAAAAAAAAAAAAAAAAeQYKAAAAAAAAAAAAAAAgz0ABAAAAAAAAAAAAAADkGSgAAAAAAAAAAAAAAIA8AwUAAAAAAAAAAAAAAJBnoAAAAAAAAAAAAAAAAPIMFAAAAAAAAAAAAAAAQJ6BAgAAAAAAAAAAAAAAyDNQAAAAAAAAAAAAAAAAeQYKAAAAAAAAAAAAAAAgz0ABAAAAAAAAAAAAAADkGSgAAAAAAAAAAAAAAIA8AwUAAAAAAAAAAAAAAJBnoAAAAAAAAAAAAAAAAPIMFAAAAAAAAAAAAAAAQJ6BAgAAAAAAAAAAAAAAyDNQAAAAAAAAAAAAAAAAeQYKAAAAAAAAAAAAAAAgz0ABAAAAAAAAAAAAAADkGSgAAAAAAAAAAAAAAIA8AwUAAAAAAAAAAAAAAJBnoAAAAAAAAAAAAAAAAPIMFAAAAAAAAAAAAAAAQJ6BAgAAAAAAAAAAAAAAyDNQAAAAAAAAAAAAAAAAeQYKAAAAAAAAAAAAAAAgz0ABAAAAAAAAAAAAAADkGSgAAAAAAAAAAAAAAIA8AwUAAAAAAAAAAAAAAJBnoAAAAAAAAAAAAAAAAPIMFAAAAAAAAAAAAAAAQJ6BAgAAAAAAAAAAAAAAyDNQAAAAAAAAAAAAAAAAeQYKAAAAAAAAAAAAAAAgz0ABAAAAAAAAAAAAAADkGSgAAAAAAAAAAAAAAIA8AwUAAAAAAAAAAAAAAJBnoAAAAAAAAAAAAAAAAPIMFAAAAAAAAAAAAAAAQJ6BAgAAAAAAAAAAAAAAyDNQAAAAAAAAAAAAAAAAeQYKAAAAAAAAAAAAAAAgz0ABAAAAAAAAAAAAAADkGSgAAAAAAAAAAAAAAIA8AwUAAAAAAAAAAAAAAJBnoAAAAAAAAAAAAAAAAPIMFAAAAAAAAAAAAAAAQJ6BAgAAAAAAAAAAAAAAyDNQAAAAAAAAAAAAAAAAeQYKAAAAAAAAAAAAAAAgz0ABAAAAAAAAAAAAAADkGSgAAAAAAAAAAAAAAIA8AwUAAAAAAAAAAAAAAJBnoAAAAAAAAAAAAAAAAPIMFAAAAAAAAAAAAAAAQJ6BAgAAAAAAAAAAAAAAyDNQAAAAAAAAAAAAAAAAeQYKAAAAAAAAAAAAAAAgz0ABAAAAAAAAAAAAAADkGSgAAAAAAAAAAAAAAIA8AwUAAAAAAAAAAAAAAJBnoAAAAAAAAAAAAAAAAPIMFAAAAAAAAAAAAAAAQJ6BAgAAAAAAAAAAAAAAyDNQAAAAAAAAAAAAAAAAeQYKAAAAAAAAAAAAAAAgz0ABAAAAAAAAAAAAAADkGSgAAAAAAAAAAAAAAIA8AwUAAAAAAAAAAAAAAJBnoAAAAAAAAAAAAAAAAPIMFAAAAAAAAAAAAAAAQJ6BAgAAAAAAAAAAAAAAyDNQAAAAAAAAAAAAAAAAeQYKAAAAAAAAAAAAAAAgz0ABAAAAAAAAAAAAAADkGSgAAAAAAAAAAAAAAIA8AwUAAAAAAAAAAAAAAJBnoAAAAAAAAAAAAAAAAPIMFAAAAAAAAAAAAAAAQJ6BAgAAAAAAAAAAAAAAyDNQAAAAAAAAAAAAAAAAeQYKAAAAAAAAAAAAAAAgz0ABAAAAAAAAAAAAAADkGSgAAAAAAAAAAAAAAIA8AwUAAAAAAAAAAAAAAJBnoAAAAAAAAAAAAAAAAPIMFAAAAAAAAAAAAAAAQJ6BAgAAAAAAAAAAAAAAyDNQAAAAAAAAAAAAAAAAeQYKAAAAAAAAAAAAAAAgz0ABAAAAAAAAAAAAAADkGSgAAAAAAAAAAAAAAIA8AwUAAAAAAAAAAAAAAJBnoAAAAAAAAAAAAAAAAPIMFAAAAAAAAAAAAAAAQJ6BAgAAAAAAAAAAAAAAyDNQAAAAAAAAAAAAAAAAeQYKAAAAAAAAAAAAAAAgz0ABAAAAAAAAAAAAAADkGSgAAAAAAAAAAAAAAIA8AwUAAAAAAAAAAAAAAJBnoAAAAAAAAAAAAAAAAPIMFAAAAAAAAAAAAAAAQJ6BAgAAAAAAAAAAAAAAyDNQAAAAAAAAAAAAAAAAeQYKAAAAAAAAAAAAAAAgz0ABAAAAAAAAAAAAAADkGSgAAAAAAAAAAAAAAIA8AwUAAAAAAAAAAAAAAJBnoAAAAAAAAAAAAAAAAPIMFAAAAAAAAAAAAAAAQJ6BAgAAAAAAAAAAAAAAyDNQAAAAAAAAAAAAAAAAeQYKAAAAAAAAAAAAAAAgz0ABAAAAAAAAAAAAAADkGSgAAAAAAAAAAAAAAIA8AwUAAAAAAAAAAAAAAJBnoAAAAAAAAAAAAAAAAPIMFAAAAAAAAAAAAAAAQJ6BAgAAAAAAAAAAAAAAyDNQAAAAAAAAAAAAAAAAeQYKAAAAAAAAAAAAAAAgz0ABAAAAAAAAAAAAAADkGSgAAAAAAAAAAAAAAIA8AwUAAAAAAAAAAAAAAJBnoAAAAAAAAAAAAAAAAPIMFAAAAAAAAAAAAAAAQJ6BAgAAAAAAAAAAAAAAyDNQAAAAAAAAAAAAAAAAeQYKAAAAAAAAAAAAAAAgz0ABAAAAAAAAAAAAAADkGSgAAAAAAAAAAAAAAIA8AwUAAAAAAAAAAAAAAJBnoAAAAAAAAAAAAAAAAPIMFAAAAAAAAAAAAAAAQJ6BAgAAAAAAAAAAAAAAyDNQAAAAAAAAAAAAAAAAeQYKAAAAAAAAAAAAAAAgz0ABAAAAAAAAAAAAAADkGSgAAAAAAAAAAAAAAIA8AwUAAAAAAAAAAAAAAJBnoAAAAAAAAAAAAAAAAPIMFAAAAAAAAAAAAAAAQJ6BAgAAAAAAAAAAAAAAyDNQAAAAAAAAAAAAAAAAeQYKAAAAAAAAAAAAAAAgz0ABAAAAAAAAAAAAAADkGSgAAAAAAAAAAAAAAIA8AwUAAAAAAAAAAAAAAJBnoAAAAAAAAAAAAAAAAPIMFAAAAAAAAAAAAAAAQJ6BAgAAAAAAAAAAAAAAyDNQAAAAAAAAAAAAAAAAeQYKAAAAAAAAAAAAAAAgz0ABAAAAAAAAAAAAAADkGSgAAAAAAAAAAAAAAIA8AwUAAAAAAAAAAAAAAJBnoAAAAAAAAAAAAAAAAPIMFAAAAAAAAAAAAAAAQJ6BAgAAAAAAAAAAAAAAyDNQAAAAAAAAAAAAAAAAeQYKAAAAAAAAAAAAAAAgz0ABAAAAAAAAAAAAAADkGSgAAAAAAAAAAAAAAIA8AwUAAAAAAAAAAAAAAJBnoAAAAAAAAAAAAAAAAPIMFAAAAAAAAAAAAAAAQJ6BAgAAAAAAAAAAAAAAyDNQAAAAAAAAAAAAAAAAeQYKAAAAAAAAAAAAAAAgz0ABAAAAAAAAAAAAAADkGSgAAAAAAAAAAAAAAIA8AwUAAAAAAAAAAAAAAJBnoAAAAAAAAAAAAAAAAPIMFAAAAAAAAAAAAAAAQJ6BAgAAAAAAAAAAAAAAyDNQAAAAAAAAAAAAAAAAeQYKAAAAAAAAAAAAAAAgz0ABAAAAAAAAAAAAAADkGSgAAAAAAAAAAAAAAIA8AwUAAAAAAAAAAAAAAJBnoAAAAAAAAAAAAAAAAPIMFAAAAAAAAAAAAAAAQJ6BAgAAAAAAAAAAAAAAyDNQAAAAAAAAAAAAAAAAeQYKAAAAAAAAAAAAAAAgz0ABAAAAAAAAAAAAAADkGSgAAAAAAAAAAAAAAIA8AwUAAAAAAAAAAAAAAJBnoAAAAAAAAAAAAAAAAPIMFAAAAAAAAAAAAAAAQJ6BAgAAAAAAAAAAAAAAyDNQAAAAAAAAAAAAAADc7N3BUVxXGobhzy7vu8sBHMgAMpAmApQBLM4eZaDOwATgKnUG4wxMBiIElwM4NRl4FrQ8mhnLAgk4t//7PDsK6PsVGzb3rR8oT0ABAAAAAAAAAAAAAACUJ6AAAAAAAAAAAAAAAADKE1AAAAAAAAAAAAAAAADlCSgAAAAAAAAAAAAAAIDyBBQAAAAAAAAAAAAAAEB5AgoAAAAAAAAAAAAAAKC8H2YPAAAAAAB4gH2S28kbAAAAAAAAgCP23R9//DF7AwAAAAAAAAAAAAAAwLP6fvYAAAAAAAAAAAAAAACA5yagAAAAAAAAAAAAAAAAyhNQAAAAAAAAAAAAAAAA5QkoAAAAAAAAAAAAAACA8gQUAAAAAAAAAAAAAABAeQIKAAAAAAAAAAAAAACgPAEFAAAAAAAAAAAAAABQnoACAAAAAAAAAAAAAAAoT0ABAAAAAAAAAAAAAACUJ6AAAAAAAAAAAAAAAADKE1AAAAAAAAAAAAAAAADlCSgAAAAAAAAAAAAAAIDyBBQAAAAAAAAAAAAAAEB5AgoAAAAAAAAAAAAAAKA8AQUAAAAAAAAAAAAAAFCegAIAAAAAAAAAAAAAAChPQAEAAAAAAAAAAAAAAJQnoAAAAAAAAAAAAAAAAMoTUAAAAAAAAAAAAAAAAOUJKAAAAAAAAAAAAAAAgPIEFAAAAAAAAAAAAAAAQHkCCgAAAAAAAAAAAAAAoDwBBQAAAAAAAAAAAAAAUJ6AAgAAAAAAAAAAAAAAKE9AAQAAAAAAAAAAAAAAlCegAAAAAAAAAAAAAAAAyhNQAAAAAAAAAAAAAAAA5QkoAAAAAAAAAAAAAACA8gQUAAAAAAAAAAAAAABAeQIKAAAAAAAAAAAAAACgPAEFAAAAAAAAAAAAAABQnoACAAAAAAAAAAAAAAAoT0ABAAAAAAAAAAAAAACUJ6AAAAAAAAAAAAAAAADKE1AAAAAAAAAAAAAAAADlCSgAAAAAAAAAAAAAAIDyBBQAAAAAAAAAAAAAAEB5AgoAAAAAAAAAAAAAAKA8AQUAAAAAAAAAAAAAAFCegAIAAAAAAAAAAAAAAChPQAEAAAAAAAAAAAAAAJQnoAAAAAAAAAAAAAAAAMoTUAAAAAAAAAAAAAAAAOUJKAAAAAAAAAAAAAAAgPIEFAAAAAAAAAAAAAAAQHkCCgAAAAAAAAAAAAAAoDwBBQAAAAAAAAAAAAAAUJ6AAgAAAAAAAAAAAAAAKE9AAQAAAAAAAAAAAAAAlCegAAAAAAAAAAAAAAAAyhNQAAAAAAAAAAAAAAAA5QkoAAAAAAAAAAAAAACA8gQUAAAAAAAAAAAAAABAeQIKAAAAAAAAAAAAAACgPAEFAAAAAAAAAAAAAABQnoACAAAAAAAAAAAAAAAoT0ABAAAAAAAAAAAAAACUJ6AAAAAAAAAAAAAAAADKE1AAAAAAAAAAAAAAAADlCSgAAAAAAAAAAAAAAIDyBBQAAAAAAAAAAAAAAEB5AgoAAAAAAAAAAAAAAKA8AQUAAAAAAAAAAAAAAFCegAIAAAAAAAAAAAAAAChPQAEAAAAAAAAAAAAAAJQnoAAAAAAAAAAAAAAAAMoTUAAAAAAAAAAAAAAAAOUJKAAAAAAAAAAAAAAAgPIEFAAAAAAAAAAAAAAAQHkCCgAAAAAAAAAAAAAAoDwBBQAAAAAAAAAAAAAAUJ6AAgAAAAAAAAAAAAAAKE9AAQAAAAAAAAAAAAAAlCegAAAAAAAAAAAAAAAAyhNQAAAAAAAAAAAAAAAA5QkoAAAAAAAAAAAAAACA8gQUAAAAAAAAAAAAAABAeQIKAAAAAAAAAAAAAACgPAEFAAAAAAAAAAAAAABQnoACAAAAAAAAAAAAAAAoT0ABAAAAAAAAAAAAAACUJ6AAAAAAAAAAAAAAAADKE1AAAAAAAAAAAAAAAADlCSgAAAAAAAAAAAAAAIDyBBQAAAAAAAAAAAAAAEB5AgoAAAAAAAAAAAAAAKA8AQUAAAAAAAAAAAAAAFDeD7MHAMBMrY9tkvPZOwCKuPv95x//NXsESevjNMnp5BkAJfz+84+3szdwr/VxnmQ7ewdABf6/AQAAAACwVgIKANbuPMmvs0cAFPGPJLezR5AkuUrybvYIgCK+mz2AP90keTV7BEAR/r8BAAAAALBK388eAAAAAAAAAAAAAAAA8NwEFAAAAAAAAAAAAAAAQHkCCgAAAAAAAAAAAAAAoDwBBQAAAAAAAAAAAAAAUJ6AAgAAAAAAAAAAAAAAKE9AAQAAAAAAAAAAAAAAlCegAAAAAAAAAAAAAAAAyhNQAAAAAAAAAAAAAAAA5QkoAAAAAAAAAAAAAACA8gQUAAAAAAAAAAAAAABAeQIKAAAAAAAAAAAAAACgPAEFAAAAAAAAAAAAAABQnoACAAAAAAAAAAAAAAAoT0ABAAAAAAAAAAAAAACUJ6AAAAAAAAAAAAAAAADKE1AAAAAAAAAAAAAAAADlCSgAAAAAAAAAAAAAAIDyBBQAAAAAAAAAAAAAAEB5AgoAAAAAAAAAAAAAAKA8AQUAAAAAAAAAAAAAAFCegAIAAAAAAAAAAAAAAChPQAEAAAAAAAAAAAAAAJQnoAAAAAAAAAAAAAAAAMoTUAAAAAAAAAAAAAAAAOUJKAAAAAAAAAAAAAAAgPIEFAAAAAAAAAAAAAAAQHkCCgAAAAAAAAAAAAAAoDwBBQAAAAAAAAAAAAAAUJ6AAgAAAAAAAAAAAAAAKE9AAQAAAAAAAAAAAAAAlCegAAAAAAAAAAAAAAAAyhNQAAAAAAAAAAAAAAAA5QkoAAAAAAAAAAAAAACA8gQUAAAAAAAAAAAAAABAeQIKAAAAAAAAAAAAAACgPAEFAAAAAAAAAAAAAABQnoACAAAAAAAAAAAAAAAoT0ABAAAAAAAAAAAAAACUJ6AAAAAAAAAAAAAAAADKE1AAAAAAAAAAAAAAAADlCSgAAAAAAAAAAAAAAIDyBBQAAAAAAAAAAAAAAEB5AgoAAAAAAAAAAAAAAKA8AQUAAAAAAAAAAAAAAFCegAIAAAAAAAAAAAAAAChPQAEAAAAAAAAAAAAAAJQnoAAAAAAAAAAAAAAAAMoTUAAAAAAAAAAAAAAAAOUJKAAAAAAAAAAAAAAAgPIEFAAAAAAAAAAAAAAAQHkCCgAAAAAAAAAAAAAAoDwBBQAAAAAAAAAAAAAAUJ6AAgAAAAAAAAAAAAAAKE9AAQAAAAAAAAAAAAAAlCegAAAAAAAAAAAAAAAAyhNQAAAAAAAAAAAAAAAA5QkoAAAAAAAAAAAAAACA8gQUAAAAAAAAAAAAAABAeQIKAAAAAAAAAAAAAACgPAEFAAAAAAAAAAAAAABQnoACAAAAAAAAAAAAAAAoT0ABAAAAAAAAAAAAAACUJ6AAAAAAAAAAAAAAAADKE1AAAAAAAAAAAAAAAADlCSgAAAAAAAAAAAAAAIDyBBQAAAAAAAAAAAAAAEB5AgoAAAAAAAAAAAAAAKA8AQUAAAAAAAAAAAAAAFCegAIAAAAAAAAAAAAAAChPQAEAAAAAAAAAAAAAAJQnoAAAAAAAAAAAAAAAAMoTUAAAAAAAAAAAAAAAAOUJKAAAAAAAAAAAAAAAgPIEFAAAAAAAAAAAAAAAQHkCCgAAAAAAAAAAAAAAoDwBBQAAAAAAAAAAAAAAUJ6AAgAAAAAAAAAAAAAAKE9AAQAAAAAAAAAAAAAAlCegAAAAAAAAAAAAAAAAyhNQAAAAAAAAAAAAAAAA5QkoAAAAAAAAAAAAAACA8gQUAAAAAAAAAAAAAABAeQIKAAAAAAAAAAAAAACgPAEFAAAAAAAAAAAAAABQnoACAAAAAAAAAAAAAAAoT0ABAAAAAAAAAAAAAACUJ6AAAAAAAAAAAAAAAADKE1AAAAAAAAAAAAAAAADlCSgAAAAAAAAAAAAAAIDyBBQAAAAAAAAAAAAAAEB5AgoAAAAAAAAAAAAAAKA8AQUAAAAAAAAAAAAAAFCegAIAAAAAAAAAAAAAAChPQAEAAAAAAAAAAAAAAJQnoAAAAAAAAAAAAAAAAMoTUAAAAAAAAAAAAAAAAOUJKAAAAAAAAAAAAAAAgPIEFAAAAAAAAAAAAAAAQHkCCgAAAAAAAAAAAAAAoDwBBQAAAAAAAAAAAAAAUJ6AAgAAAAAAAAAAAAAAKE9AAQAAAAAAAAAAAAAAlCegAAAAAAAAAAAAAAAAyhNQAAAAAAAAAAAAAAAA5QkoAAAAAAAAAAAAAACA8gQUAAAAAAAAAAAAAABAeQIKAAAAAAAAAAAAAACgPAEFAAAAAAAAAAAAAABQnoACAAAAAAAAAAAAAAAoT0ABAAAAAAAAAAAAAACUJ6AAAAldt/cAACAASURBVAAAAAAAAAAAAADKE1AAAAAAAAAAAAAAAADlCSgAAAAAAAAAAAAAAIDyBBQAAAAAAAAAAAAAAEB5AgoAAAAAAAAAAAAAAKA8AQUAAAAAAAAAAAAAAFCegAIAAAAAAAAAAAAAAChPQAEAAAAAAAAAAAAAAJQnoAAAAAAAAAAAAAAAAMoTUAAAAAAAAAAAAAAAAOUJKAAAAAAAAAAAAAAAgPIEFAAAAAAAAAAAAAAAQHkCCgAAAAAAAAAAAAAAoDwBBQAAAAAAAAAAAAAAUJ6AAgAAAAAAAAAAAAAAKE9AAQAAAAAAAAAAAAAAlCegAAAAAAAAAAAAAAAAyhNQAAAAAAAAAAAAAAAA5QkoAAAAAAAAAAAAAACA8gQUAAAAAAAAAAAAAABAeQIKAAAAAAAAAAAAAACgPAEFAAAAAAAAAAAAAABQnoACAAAAAAAAAAAAAAAoT0ABAAAAAAAAAAAAAACUJ6AAAAAAAAAAAAAAAADKE1AAAAAAAAAAAAAAAADlCSgAAAAAAAAAAAAAAIDyBBQAAAAAAAAAAAAAAEB5AgoAAAAAAAAAAAAAAKA8AQUAAAAAAAAAAAAAAFCegAIAAAAAAAAAAAAAAChPQAEAAAAAAAAAAAAAAJQnoAAAAAAAAAAAAAAAAMoTUAAAAAAAAAAAADxS6+Nt6+O31sfr2VsAAICHEVAAAAAAAAAAAAA8QuvjNMkuyUmSX1sfN62P7dRRAADAFwkoAAAAAAAAAAAAHmefZPPJ19dJ7lyjAACAZRNQAAAAAAAAAAAAPFDr422SV3/xLdcoAABg4QQUAAAAAAAAAAAAD9D6OE2y+8KPuUYBAAALJaAAAAAAAAAAAAB4mH2SzQN+zjUKAABYIAEFAAAAAAAAAADAF7Q+rpK8euSvuUYBAAALIqAAAAAAAAAAAAD4G4crEjdf+euuUQAAwEIIKAAAAAAAAAAAAP7ePsnmGz/DNQoAAJhMQAEAAAAAAAAAAPAZrY83SS6e6ONcowAAgIkEFAAAAAAAAAAAAH/hEDnsn+GjXaMAAIAJBBQAAAAAAAAAAAB/bZ9k80yf7RoFAAC8MAEFAAAAAAAAAADA/2h9vEly8QKP+niN4vwFngUAAKsmoAAAAAAAAAAAAPjE4SLE/gUfeZLkQ+tj94LPBACA1RFQAAAAAAAAAAAA/Ld9ks2E575rfbhGAQAAz0RAAQAAAAAAAAAAcND6eJPkYuKEs7hGAQAAz0JAAQAAAAAAAAAAkKT1sc399YklcI0CAACemIACAAAAAAAAAADg3j7JZvaIT7hGAQAAT0hAAQAAAAAAAAAArF7r402Si9k7PsM1CgAAeAICCgAAAAAAAAAAYNVaH9vcX59YMtcoAADgGwkoAAAAAAAAAACAtdsn2cwe8UCuUQAAwFcSUAAAAAAAAAAAAKvV+niT5GL2jkdyjQIAAL6CgAIAAAAAAAAAAFil1sc299cnjpVrFAAA8AgCCgAAAAAAAAAAYK32STazR3wj1ygAAOCBBBQAAAAAAAAAAMDqtD7eJLmYveMJuUYBAABfIKAAAAAAAAAAAABWpfWxzf31iWrOkty2Pt7OHgIAAEskoAAAAAAAAAAAANZml2Qze8Qz2ST5qfVx2/o4nT0GAACWREABAAAAAAAAAACsRuvjdZLr2TtewKskd65RAADAfwgoAAAAAAAAAACAVWh9bJPsZ+94Qa5RAADAJwQUAAAAAAAAAADAWuySnMweMYFrFAAAEAEFAAAAAAAAAACwAq2P10muZ++YyDUKAABWT0ABAAAAAAAAAACU1vrYJtnP3rEQrlEAALBaAgoAAAAAAAAAAKC6XZKT2SMWxDUKAABWSUABAAAAAAAAAACU1fp4neR69o6Fco0CAIBVEVAAAAAAAAAAAAAltT62Sfazdyzcp9cotrPHAADAcxJQAAAAAAAAAAAAVe2SnMwecSQ+XqM4nz0EAACei4ACAAAAAAAAAAAop/XxOsn17B1H5iTJh9bH1ewhAADwHAQUAAAAAAAAAABAKa2PbZL97B1H7H3rYz97BAAAPDUBBQAAAAAAAAAAUM0u99cU+HqXrY+7Q4wCAAAlCCgAAAAAAAAAAIAyWh+vk1zP3lHEWZLfDn9TAAA4egIKAAAAAAAAAACghMO1hP3sHcVskvza+ng7ewgAAHwrAQUAAAAAAAAAAFDFLsnJ7BFF/dT62B8iFQAAOEoCCgAAAAAAAAAA4Oi1Pl4nuZ69o7jLJLetj9PZQwAA4GsIKAAAAAAAAAAAgKN2uIqwn71jJc6S3LU+zmcPAQCAxxJQAAAAAAAAAAAAx26X5GT2iBXZJPnQ+riaPQQAAB5DQAEAAAAAAAAAABytwyWE69k7Vup962M/ewQAADyUgAIAAAAAAAAAADhm+9kDVu6y9XHX+tjOHgIAAF8ioAAAAAAAAAAAAI5S62OX5Gz2DnKW5O5wDQQAABZLQAEAAAAAAAAAABydw8v672bv4E8nSW5bH1ezhwAAwOcIKAAAAAAAAAAAgGO0nz2A/7NJ8v5wGQQAABZHQAEAAAAAAAAAAByVwwv6Z7N38FnvWh+/tD62s4cAAMCnBBQAAAAAAAAAAMDRaH2cJ3k3ewdfdJHktvVxOnsIAAB8JKAAAAAAAAAAAACOyX72AB7sLMndIXoBAIDpBBQAAAAAAAAAAMBRaH3scv9SPsdjk+RD6+Nq9hAAABBQAAAAAAAAAAAAi3e4YvBu9g6+2vtDAAMAANMIKAAAAAAAAAAAgGNwM3sA3+xd62Pf+tjOHgIAwDoJKAAAAAAAAAAAgEVrfbxN8mr2Dp7EZZJbEQUAADMIKAAAAAAAAAAAgMVqfZwm2U2ewdM6S/Jb6+N89hAAANZFQAEAAAAAAAAAACzZTZLN7BE8uU3uL1G8mT0EAID1EFAAAAAAAAAAAACLdHi5/mL2Dp7NJsk/Wx9Xs4cAALAOAgoAAAAAAAAAAGBxWh/bJPvZO3gR71sf+9kjAACoT0ABAAAAAAAAAAAs0S73FwpYh8vWxy+HcAYAAJ6FgAIAAAAAAAAAAFiU1sd5kuvZO3hxF0luRRQAADwXAQUAAAAAAAAAALA0+9kDmOYsyd0hogEAgCcloAAAAAAAAAAAABaj9fE29y/Rs14nub9EIaIAAOBJCSgAAAAAAAAAAIBFaH1sk+xm72ARNkk+tD6uZg8BAKAOAQUAAAAAAAAAALAUN7l/cR4+en+4SgIAAN9MQAEAAAAAAAAAAEzX+nid5HL2Dhbpp9bHfvYIAACOn4ACAAAAAAAAAABYgpvZA1i0y9bHL62P7ewhAAAcLwEFAAAAAAAAAAAwVevjbZKz2TtYvIsktyIKAAC+loACAAAAAAAAAACY5vAy/G72Do7GWe4jitPZQwAAOD4CCgAAAAAAAAAAYKabJJvZIzgqZ0nuWh/ns4cAAHBcBBQAAAAAAAAAAMAUhxfgL2fv4Chtcn+JQkQBAMCDCSgAAAAAAAAAAIBZbmYP4KhtknxofVzNHgIAwHEQUAAAAAAAAAAAAC/u8NL7q9k7+Dd793LcVpalYXSrouZAyIADtAWAB7xlgdgWEIMzT3oglAVFAxQhmqCyoNUWdHpQGTLgVJYF7AGZT4kiSOLefR9rjTX4JgIipPNjz8JHIwoAAE5hQAEAAAAAAAAAAAyq1LaOiGN2B7PysdTmogkAAN9lQAEAAAAAAAAAAAztOiI22RHMzg+lttvsCAAAxsuAAgAAAAAAAAAAGEypbRv3Awrow5URBQAAjzGgAAAAAAAAAAAAhnSMiFV2BLN2VWr7sdS2zg4BAGBcDCgAAAAAAAAAAIBBlNq6iLjK7mARdhHx2YgCAIDfM6AAAAAAAAAAAACGcswOYFGMKAAA+AMDCgAAAAAAAAAAoHeltsuIuMjuYHF2EfFjqW2fHQIAQD4DCgAAAAAAAAAAYAg32QEs1ibuL1EYUQAALJwBBQAAAAAAAAAA0KtS2yHuH7FDllUYUQAALJ4BBQAAAAAAAAAA0JtS2zpcn2AcjCgAABbOgAIAAAAAAAAAAOjTddw/XIcx+GVEccgOAQBgeAYUAAAAAAAAAABALx6uT1xnd8CfrCLioxEFAMDyGFAAAAAAAAAAAAB9uQnXJxgvIwoAgIUxoAAAAAAAAAAAAM6u1LaNiKvsDniCEQUAwIIYUAAAAAAAAAAAAH04ZgfAiYwoAAAWwoACAAAAAAAAAAA4K9cnmCAjCgCABTCgAAAAAAAAAAAAzu02OwBe4GOp7SY7AgCA/hhQAAAAAAAAAAAAZ1Nq6yLiIrsDXuiHUtttdgQAAP0woAAAAAAAAAAAAM7pmB0Ar3RlRAEAME8GFAAAAAAAAAAAwFm4PsGMGFEAAMyQAQUAAAAAAAAAAHAux+wAOCMjCgCAmTGgAAAAAAAAAAAAXs31CWbKiAIAYEYMKAAAAAAAAAAAgHM4ZgdAT4woAABmwoACAAAAAAAAAAB4FdcnWAAjCgCAGTCgAAAAAAAAAAAAXuuYHQADMKIAAJg4AwoAAAAAAAAAAODFXJ9gYYwoAAAmzIACAAAAAAAAAAB4jWN2AAzMiAIAYKIMKAAAAAAAAAAAgBdxfYIFM6IAAJggAwoAAAAAAAAAAOCljtkBkMiIAgBgYgwoAAAAAAAAAACAZ3N9AiLCiAIAYFIMKAAAAAAAAAAAgJc4ZgfASFyV2o7ZEQAAPM2AAgAAAAAAAAAAeBbXJ+Ar70tth+wIAAC+z4ACAAAAAAAAAAB4rmN2AIzQRyMKAIBxM6AAAAAAAAAAAABOVmrbhusT8BgjCgCAETOgAAAAAAAAAAAAnuOYHQAjZ0QBADBSBhQAAAAAAAAAAMBJHq5PXGV3wAQYUQAAjJABBQAAAAAAAAAAcKpjdgBMyMdSW5cdAQDAbwwoAAAAAAAAAACAJ5Xa1uH6BDzXp1LbPjsCAIB7BhQAAAAAAAAAAMAprrMDYIJWEfHZiAIAYBwMKAAAAAAAAAAAgO96uD5hQAEvY0QBADASBhQAAAAAAAAAAMBTDnH/CBx4mV9GFOvsEACAJTOgAAAAAAAAAAAAnuL6BLyeEQUAQDIDCgAAAAAAAAAA4FGltkNEbLI7YCZ2YUQBAJDGgAIAAAAAAAAAAPge1yfgvHYR8Tk7AgBgiQwoAAAAAAAAAACAbyq1dXH/2Bs4r12p7TY7AgBgaQwoAAAAAAAAAACAx7g+Af25MqIAABiWAQUAAAAAAAAAAPCVUts2It5ld8DMXZXajtkRAABLYUABAAAAAAAAAAB8yzE7ABbifantkB0BALAEBhQAAAAAAAAAAMAflNrWEXGZ3QEL8tGIAgCgfwYUAAAAAAAAAADAnx0iYpUdAQvzsdS2z44AAJgzAwoAAAAAAAAAAODPrrMDYKE+G1EAAPTHgAIAAAAAAAAAAPhVqe0yIjbZHbBQq7gfUayzQwAA5siAAgAAAAAAAAAA+D3XJyCXEQUAQE8MKAAAAAAAAAAAgIiIKLVtI+IiuwOIXUR8yo4AAJgbAwoAAAAAAAAAAOAXx+wA4FcXpbbb7AgAgDkxoAAAAAAAAAAAAKLUto6Iy+wO4A+uSm3H7AgAgLkwoAAAAAAAAAAAACLuxxOr7AjgK+9LbYfsCACAOTCgAAAAAAAAAAAAIiKO2QHAoz6W2rrsCACAqTOgAAAAAAAAAACAhXt4mL3J7gC+61OpbZ8dAQAwZQYUAAAAAAAAAADAITsAeNIq7kcU6+wQAICpMqAAAAAAAAAAAIAFe3iMfZXdAZxkExGfjSgAAF7GgAIAAAAAAAAAAJbtOjsAeJZdRNxkRwAATJEBBQAAAAAAAAAALNshOwB4tqtS2zE7AgBgagwoAAAAAAAAAABgoUptlxGxye4AXuR9qe2QHQEAMCUGFAAAAAAAAAAAsFyH7ADgVT6W2vbZEQAAU2FAAQAAAAAAAAAAC1Rq20bEu+wO4NU+P/x9BgDgCQYUAAAAAAAAAACwTJfZAcBZrCLiU6ltnR0CADB2BhQAAAAAAAAAALBM19kBwNnsIuI2OwIAYOwMKAAAAAAAAAAAYGFKbV1EbLI7gLN6V2o7ZkcAAIyZAQUAAAAAAAAAACzPITsA6MX7UtshOwIAYKwMKAAAAAAAAAAAYEFKbeuIuMruAHpzU2rbZ0cAAIyRAQUAAAAAAAAAACzLZXYA0KtVRHx6GEsBAPA7BhQAAAAAAAAAALAs19kBQO82EfE5OwIAYGwMKAAAAAAAAAAAYCFKbfuI2GV3AIPYldpusyMAAMbEgAIAAAAAAAAAAJbjkB0ADOqq1HbIjgAAGAsDCgAAAAAAAAAAWI5DdgAwuI8P12cAABbPgAIAAAAAAAAAABag1HYZEavsDiDF51LbOjsCACCbAQUAAAAAAAAAACzDZXYAkGYVEZ+yIwAAshlQAAAAAAAAAADAzD388vxVdgeQ6qLUdpMdAQCQyYACAAAAAAAAAADmz/UJICLih1LbITsCACCLAQUAAAAAAAAAAMzfdXYAMBo3pbZ9dgQAQAYDCgAAAAAAAAAAmLFS2zYidtkdwGisIuK21LbODgEAGJoBBQAAAAAAAAAAzNtldgAwOruIuM2OAAAYmgEFAAAAAAAAAADM23V2ADBK70ptPh8AgEUxoAAAAAAAAAAAgJkqte0jYpPdAYzWPx4+JwAAFsGAAgAAAAAAAAAA5uuQHQCM3qdS2zo7AgBgCAYUAAAAAAAAAAAwX5fZAcDobSLiNjsCAGAIBhQAAAAAAAAAADBDpbYu7h9GAzzlXantmB0BANA3AwoAAAAAAAAAAJinQ3YAMCnvH4ZXAACzZUABAAAAAAAAAADzdJkdAEzOp1LbOjsCAKAvBhQAAAAAAAAAADAzpbbLiFhldwCTs4qI2+wIAIC+GFAAAAAAAAAAAMD8uD4BvNS7Utt1dgQAQB8MKAAAAAAAAAAAYH4MKIDX+EepbZ8dAQBwbgYUAAAAAAAAAAAwI6W2y4hYZXcAk/ep1LbOjgAAOCcDCgAAAAAAAAAAmBfXJ4Bz2ETEbXYEAMA5GVAAAAAAAAAAAMC8GFAA5/Ku1HbIjgAAOBcDCgAAAAAAAAAAmIlS22VErLI7gFm5KbVtsyMAAM7BgAIAAAAAAAAAAObD9Qng3FYR8Sk7AgDgHAwoAAAAAAAAAABgPgwogD7sSm032REAAK9lQAEAAAAAAAAAADNQaruM+1+KB+jDD6W2LjsCAOA1DCgAAAAAAAAAAGAeXJ8A+nZbaltnRwAAvJQBBQAAAAAAAAAAzEOXHQDM3iYibrMjAABeyoACAAAAAAAAAAAmrtS2j/uHzQB9e1dqc/EGAJgkAwoAAAAAAAAAAJi+Q3YAsCi3pbZtdgQAwHMZUAAAAAAAAAAAwPT5NXhgSKuIuM2OAAB4LgMKAAAAAAAAAACYsFLbPiI22R3A4lyU2q6zIwAAnsOAAgAAAAAAAAAApq3LDgAW6x8PIy4AgEkwoAAAAAAAAAAAgGk7ZAcAi3abHQAAcCoDCgAAAAAAAAAAmKhS2zYidtkdwKLtSm3H7AgAgFMYUAAAAAAAAAAAwHR12QEAEfG+1LbPjgAAeIoBBQAAAAAAAAAATNdldgDAg9vsAACApxhQAAAAAAAAAADAdL3LDgB4sCu1HbMjAAC+x4ACAAAAAAAAAAAmqNTm+gQwNu9LbfvsCACAxxhQAAAAAAAAAADANBlQAGN0mx0AAPAYAwoAAAAAAAAAAJimLjsA4Bt2pbZjdgQAwLcYUAAAAAAAAAAAwMSU2vYRscnuAHjE+4fPKQCAUTGgAAAAAAAAAACA6emyAwCecJsdAADwZwYUAAAAAAAAAAAwPZfZAQBP2JXajtkRAAC/Z0ABAAAAAAAAAAATUmpbR8RFdgfACa5LbdvsCACAXxhQAAAAAAAAAADAtHTZAQAnWkXEbXYEAMAvDCgAAAAAAAAAAGBaLrMDAJ7hotR2nR0BABAR8dfsAABI9lNE/D07AmAmfsoO4FefswMAoAe34TsOAAAAftFlBwA807HUdvvlw9ufs0MAgGV7c3d3l90AAAAAAAAAAACcoNS2j4j/y+4AeIF/fvnw1gUdACDVX7IDAAAAAAAAAACAk3XZAQAv9K7UZkABAKQyoAAAAAAAAAAAgOnosgMAXuGm1LbOjgAAlsuAAgAAAAAAAAAApuNddgDAK2wi4pgdAQAslwEFAAAAAAAAAABMQKmty24AOIMfSm377AgAYJkMKAAAAAAAAAAAYBouswMAzuQmOwAAWCYDCgAAAAAAAAAAmIYuOwDgTC5KbdfZEQDA8ry5u7vLbgAAAAAAAAAAAL6j1LaOiH9ndwCc0X8iYvvlw9ufs0MAgOVwgQIAAAAAAAAAAMavyw4AOLNVRNxkRwAAy2JAAQAAAAAAAAAA43eZHQDQg6tSW5cdAQAshwEFAAAAAAAAAACMX5cdANATVygAgMEYUAAAAAAAAAAAwIiV2rYRscnuAOjJrtR2nR0BACyDAQUAAAAAAAAAAIxblx0A0LNjqW2dHQEAzJ8BBQAAAAAAAAAAjFuXHQDQs1VE3GRHAADzZ0ABAAAAAAAAAADj1mUHAAzgqtS2z44AAObNgAIAAAAAAAAAAEaq1LaNiE12B8BAXKEAAHplQAEAAAAAAAAAAOPVZQcADOii1HbIjgAA5suAAgAAAAAAAAAAxqvLDgAY2LHUts6OAADmyYACAAAAAAAAAADGq8sOABjYJiKusyMAgHl6c3d3l90AAAAAAAAAAAD8SaltGxH/yu4ASPCfiNh/+fD2p+wQAGBeXKAAAAAAAAAAAIBx6rIDAJKsIuKYHQEAzI8BBQAAAAAAAAAAjNM+OwAg0VWprcuOAADmxYACAAAAAAAAAADGqcsOAEh2zA4AAOblzd3dXXYDAAAAAAAAAADwO6W2dUT8O7sDYAT++8uHt5+yIwCAeXCBAgAAAAAAAAAAxqfLDgAYiZvsAABgPgwoAAAAAAAAAABgfPbZAQAjsSm1XWdHAADzYEABAAAAAAAAAADj02UHAIzIsdS2zo4AAKbPgAIAAAAAAAAAAMbnIjsAYERWEeEKBQDwagYUAAAAAAAAAAAwIqW2LrsBYISuS23b7AgAYNoMKAAAAAAAAAAAYFz22QEAI7SKiGN2BAAwbQYUAAAAAAAAAAAwLl12AMBIXblCAQC8hgEFAAAAAAAAAACMiwsUAI+7yQ4AAKbrzd3dXXYDAAAAAAAAAAAQEQ+/rP6v7A6Akfvblw9vP2dHAADT4wIFAAAAAAAAAACMh+sTAE87ZgcAANNkQAEAAAAAAAAAAOPRZQcATMBFqa3LjgAApseAAgAAAAAAAAAAxsMFCoDTHLMDAIDpMaAAAAAAAAAAAIDxuMgOAJgIVygAgGczoAAAAAAAAAAAgBEotbk+AfA8t9kBAMC0GFAAAAAAAAAAAMA4dNkBABOzKbUdsiMAgOkwoAAAAAAAAAAAgHFwgQLg+Y7ZAQDAdBhQAAAAAAAAAADAOBhQADyfKxQAwMkMKAAAAAAAAAAAYBx22QEAE3XMDgAApsGAAgAAAAAAAAAAkpXauuwGgAlzhQIAOIkBBQAAAAAAAAAA5NtnBwBM3DE7AAAYPwMKAAAAAAAAAADIZ0AB8DquUAAATzKgAAAAAAAAAACAfAYUAK93zA4AAMbNgAIAAAAAAAAAAPLtsgMAZmBTarvMjgAAxsuAAgAAAAAAAAAAEpXauuwGgBm5zg4AAMbLgAIAAAAAAAAAAHLtswMAZuTCMA0AeIwBBQAAAAAAAAAA5DKgADivY3YAADBOBhQAAAAAAAAAAJBrmx0AMDOuUAAA32RAAQAAAAAAAAAAuS6yAwBm6JgdAACMjwEFAAAAAAAAAAAkKbXtsxsAZuqi1LbNjgAAxsWAAgAAAAAAAAAA8myzAwBm7JgdAACMiwEFAAAAAAAAAADkcYECoD9XrlAAAL9nQAEAAAAAAAAAAHm67ACAmbvODgAAxsOAAgAAAAAAAAAA8myzAwBm7lBqW2dHAADjYEABAAAAAAAAAAAJHh70brI7AGZuFa5QAAAPDCgAAAAAAAAAACDHPjsAYCEO2QEAwDgYUAAAAAAAAAAAQA4DCoBhbEpth+wIACCfAQUAAAAAAAAAAOTYZgcALMgxOwAAyGdAAQAAAAAAAAAAOVygABjOptTWZUcAALkMKAAAAAAAAAAAIIcBBcCwrrMDAIBcb+7u7rIbAAAAAAAAAABgUUpt64j4d3YHwAL915cPb3/KjgAAcrhAAQAAAAAAAAAAw3N9AiDHMTsAAMhjQAEAAAAAAAAAAMMzoADIcflwBQgAWCADCgAAAAAAAAAAGN42OwBgoVYRcciOAAByGFAAAAAAAAAAAMDwXKAAyHOdHQAA5DCgAAAAAAAAAACA4RlQAOTZlNousyMAgOEZUAAAAAAAAAAAwIBKbeuIWGV3ACzcITsAABieAQUAAAAAAAAAAAzL9QmAfO9KbdvsCABgWAYUAAAAAAAAAAAwrG12AAAREXGdHQAADMuAAgAAAAAAAAAAhrXNDgAgIiIO2QEAwLAMKAAAAAAAAAAAYFhddgAAERGxKrUdsiMAgOEYUAAAAAAAAAAAwLDW2QEA/OqQHQAADMeAAgAAAAAAAAAAhrXLDgDgVxeltm12BAAwDAMKAAAAAAAAAAAYiEe6AKN0nR0AAAzDgAIAAAAAAAAAAIazzQ4A4CuH7AAAYBgGFAAAAAAAAAAAMJx9dgAAX1mV2g7ZEQBA/wwoAAAAAAAAAABgOOvsAAC+6ZAdAAD0z4ACAAAAAAAAAACG02UHAPBNF6W2bXYEANAvAwoAAAAAAAAAABiOCxQA43XIDgAA+mVAAQAAAAAAAAAAw9llBwDwqEN2AADQLwMKAAAAAAAAAAAYQKltm90AwHdtSm2X2REAQH8MKAAAAAAAAAAAYBjb7AAAnmRAAQAzOVUmLAAAIABJREFUZkABAAAAAAAAAADD2GYHAPCkq1LbOjsCAOiHAQUAAAAAAAAAAAxjmx0AwElcoQCAmTKgAAAAAAAAAACAYWyzAwA4yXV2AADQj7+e+gcfTlLte2wBWJKfvnx4+1N2BL7fAM7sxy8f3v6cHUFEqW0b/hMO4Cy+fHj7ObuBe6W2fUSsszsA5sD323iU2rrsBoCZ+PnLh7c/ZkfAibbZAQCcZFdq23rfAwDzc/KAIu4fl/5PXyEAC/P3iDhmRxARvt8AzulvEfE5O4KIiDhExPvsCICZeJMdwK9uIuIiOwJgJny/jYd/mwQ4j/+NiC47Ak60zQ4A4GSH8L4HAGbnL9kBAAAAAAAAAACwEJvsAABOdsgOAADOz4ACAAAAAAAAAAB6VmrbZjcA8CybUts+OwIAOC8DCgAAAAAAAAAA6N82OwCAZztkBwAA52VAAQAAAAAAAAAA/dtmBwDwbIfsAADgvAwoAAAAAAAAAACgf9vsAACebVVqu8yOAADOx4ACAAAAAAAAAAD6t84OAOBFDCgAYEYMKAAAAAAAAAAAoH/77AAAXsSAAgBmxIACAAAAAAAAAAAA4NtWpTYjCgCYCQMKAAAAAAAAAADo30V2AAAvZkABADNhQAEAAAAAAAAAAADwOAMKAJgJAwoAAAAAAAAAAOhRqW2f3QDAq6xKbUYUADADBhQAAAAAAAAAANCvdXYAAK9mQAEAM2BAAQAAAAAAAAAA/dpmBwDwagYUADADBhQAAAAAAAAAANCvbXYAAK+2KrUZUQDAxBlQAAAAAAAAAAAAADzNgAIAJs6AAgAAAAAAAAAA+tVlBwBwFgYUADBxBhQAAAAAAAAAAAAAT1uV2rrsCADg5QwoAAAAAAAAAACgX9vsAADOxhUKAJgwAwoAAAAAAAAAAOjXJjsAgLMxoACACTOgAAAAAAAAAAAAADjNptS2z44AAF7GgAIAAAAAAAAAAHrikS3ALLlCAQATZUABAAAAAAAAAAD9WWcHAHB2BhQAMFEGFAAAAAAAAAAAAACn25XattkRAMDzGVAAAAAAAAAAAEB/9tkBAPSiyw4AAJ7PgAIAAAAAAAAAAPqzzg4AoBeX2QEAwPMZUAAAAAAAAAAAAAA8z7vsAADg+QwoAAAAAAAAAACgP112AAD9KLW5QgEAE2NAAQAAAAAAAAAAAPB8XXYAAPA8BhQAAAAAAAAAAAAAz+cCBQBMjAEFAAAAAAAAAAD0Z58dAEBvNqW2bXYEAHA6AwoAAAAAAAAAAOjPKjsAgF65QgEAE2JAAQAAAAAAAAAAAPAyXXYAAHA6AwoAAAAAAAAAAOhBqW2d3QBA77rsAADgdAYUAAAAAAAAAADQj312AAC9W5XauuwIAOA0BhQAAAAAAAAAAAAAL9dlBwAApzGgAAAAAAAAAAAAAHi5y+wAAOA0BhQAAAAAAAAAANCPfXYAAIPYldrW2REAwNMMKAAAAAAAAAAAoB8e0wIsR5cdAAA8zYACAAAAAAAAAAAA4HW67AAA4GkGFAAAAAAAAAAAAACv02UHAABPM6AAAAAAAAAAAIB+7LMDABjMrtS2zo4AAL7PgAIAAAAAAAAAAPrhIS3AsnTZAQDA9xlQAAAAAAAAAAAAALxelx0AAHyfAQUAAAAAAAAAAADA63XZAQDA9xlQAAAAAAAAAABAP9bZAQAMaldq89kPACNmQAEAAAAAAAAAAP3YZQcAMLguOwAAeJwBBQAAAAAAAAAAAMB5dNkBAMDjDCgAAAAAAAAAAAAAzqPLDgAAHmdAAQAAAAAAAAAAAHAeu+wAAOBxBhQAAAAAAAAAAAAAZ1Jq67IbAIBvM6AAAAAAAAAAAIAz83gWYNG67AAA4NsMKAAAAAAAAAAAAADOp8sOAAC+zYACAAAAAAAAAAAA4Hz22QEAwLcZUAAAAAAAAAAAAACcz6rUZkQBACNkQAEAAAAAAAAAAABwXgYUADBCBhQAAAAAAAAAAAAA59VlBwAAXzOgAAAAAAAAAACA89tmBwCQygUKABghAwoAAAAAAAAAADi/bXYAAKl22QEAwNcMKAAAAAAAAAAAAADOrNTWZTcAAH9kQAEAAAAAAAAAAABwfvvsAADgjwwoAAAAAAAAAAAAAM7PgAIARsaAAgAAAAAAAAAAAOD8uuwAAOCPDCgAAAAAAAAAAAAAzm9TaltnRwAAvzGgAAAAAAAAAAAAAOjHPjsAAPiNAQUAAAAAAAAAAABAPwwoAGBEDCgAAAAAAAAAAAAA+mFAAQAjYkABAAAAAAAAAADn58EsABG+DwBgVAwoAAAAAAAAAADg/NbZAQCMwi47AAD4jQEFAAAAAAAAAAAAQE9KbV12AwBwz4ACAAAAAAAAAAAAoD/b7AAA4J4BBQAAAAAAAAAAAEB/9tkBAMA9AwoAAAAAAAAAAACA/hhQAMBIGFAAAAAAAAAAAAAA9MeAAgBGwoACAAAAAAAAAAAAoD+rUts6OwIAMKAAAAAAAAAAAAAA6JsrFAAwAgYUAAAAAAAAAAAAAP0yoACAETCgAAAAAAAAAAAAAOjXNjsAADCgAAAAAAAAAAAAAOibCxQAMAIGFAAAAAAAAMD/s3d3N3EkWB+Hz47mHqsCKJOB/UZgMrAzMCvV/bARTE8Eg+9LmnYEiyOYJoJtItimAqiFCPxe0NgYg81HV536eB6phY0Z+q/Vrgav+tcHAACAbgkoAGAABBQAAAAAAAAAAAAA3dorq/ZF9ggAmDsBBQAAAAAAAAAAAED3XKEAgGQCCgAAAAAAAAAAAIDuCSgAIJmAAgAAAAAAAAAAAKB7L7IHAMDcCSgAAAAAAAAAAAAAuneQPQAA5k5AAQAAAAAAAAAAANA9FygAIJmAAgAAAAAAAAAAAKB7r7IHAMDcCSgAAAAAAAAAAAAAelBW7X72BgCYMwEFAAAAAAAAAAAAQD/2swcAwJwJKAAAAAAAAAAAYPc22QMAGKTX2QMAYM4EFAAAAAAAAAAAsHub7AEADNKL7AEAMGcCCgAAAAAAAAAAAIB+HGQPAIA5E1AAAAAAAAAAAAAAAACTJ6AAAAAAAAAAAAAA6Meb7AEAMGcCCgAAAAAAAAAAAICelFX7InsDAMyVgAIAAAAAAAAAAACgP6+zBwDAXAkoAAAAAAAAAAAAAACAyRNQAAAAAAAAAAAAAPTnIHsAAMyVgAIAAAAAAAAAAAAAAJg8AQUAAAAAAAAAAOzeOnsAAIN1kD0AAOZKQAEAAAAAAAAAALt3kT0AAACAbwkoAAAAAAAAAAAAAPrzOnsAAMyVgAIAAAAAAAAAAACgP3vZAwBgrgQUAAAAAAAAAAAAAD0qq3Y/ewMAzJGAAgAAAAAAAAAAAKBf+9kDAGCOBBQAAAAAAAAAALB7F9kDAAAA+JaAAgAAAAAAAAAAdqypi3X2BgAG7SB7AADM0a/ZAwAAAAAAAAAAAABgrsqqfR0RL259+kVEvL7nH7nr6+/6mr1nTtuVy4j4WVx68YOv2Wwf32jqYvWcUcA8CSgAAAAAAAAAAAAA+rWfPYDdKKv2duhwO264/fv9iHjZ/bJB2YuINw/4ureP+aZl1d716dNbv1/HVZxx5+9FGDA/AgoAAAAAAAAAAACAfu1nD+But65B/OjXQ7nuwLduhxo/DDduRRjn8fXSxc2LGN/8uqmLn13TAAZMQAEAAAAAAAAAAADApJVVe7D95c0Q4vpz+zG/qxB872V8+9+DOy9i3IgubgYXNy9brLYfN01dXP85MBACCgAAAAAAAAAA6MZp/ORdjwGYrdfZA6airNoX8fU/z4Ptx+tIYj+EEXTnZnBx82e+369/cSO2ON1+vA4tNtuHixbQMwEFAAAAAAAAAAAAQL/2sgeMxY1A4q6PrxKnwWO8ufXxizsii9X243VssW7q4iKAnRBQAAAAAAAAAAAAAJCmrNrbYcRBCCSYn59FFmdxFVSstp9ehQsW8GgCCgAAAAAAAAAAAICelVV70NTFKntHX8qq3Y+I/fg2ktiPiJdZm2BkroOi68Di94gvccVlXF2s2Gwf67iKK1Z9DoQxEFAAAAAAAAAAAEA31nHHOwgDwJRtr0nsx1UocR1L+PchdGsvrv539s3/1rZxxXnciCri6nLFpqmLTZ8DYSgEFAAAAAAAAAAA0I2L7AEA0JU7Qon9+PoO+cBwvNw+7rpccRZf44p1XIUV6/4nQn8EFAAAAAAAAAAAAAD9ex1X7wQ/aGXVvoirrQfxNZgQSsA0vNo+3l5/4p6wYu1iBVMhoAAAAAAAAAAAAADo34vsAbfduipxsP24lzgJyHFfWHEa34cVrq4xKgIKAAAAAAAAAADoxjp7AADcZxtL3Hy8yV0EjMCb7eP99SfKqj2PG0FFuFbBwAkoAAAAAAAAAACgG96NF4Af6e0CRVm1+/HtVQmxBLArL7ePm9cqLuMqpliFqIKBEVAAAAAAAAAAAAAA9O91F9+0rNoX8W0scRARe108F8A99uLrtYqI+C6qWMVVVCE4pncCCgAAAAAAAAAA6IYXhAHQue11iYP4Gku8SpwDcJ+bUcXvERFl1Z7HjUsVTV2sssYxHwIKAAAAAAAAAADoQFMX67Jqs2cAMDFl1V6HEtcP1yWAsXq5fbyNiNj+7Hwa30YVm6RtTJSAAgAAAAAAAAAAAKB/Lx7yRWXVHsTXWOJ1CCaAabu+UvFbxJcrFav4GlSs05YxCQIKAAAAAAAAAAAAgP69uuuTt4KJN/3NARiklxHxfvuIsmov42tQsRJU8FgCCgAAAAAAAAAA6M5pePErAD9QVu3r+BpMHIQLEwA/shcRb7cPQQWPJqAAAAAAAAAAAAAASFBW7UUIJgCe40dBxUlTF5usYQyTgAIAAAAAAAAAALpzkT0AgEETTwDs1s2g4s+yas/j26DCz+cz90v2AAAAAAAAAAAAmLB19gAAAJixlxHxPiL+ioj/lVW7Lqv2uKzag9xZZHGBAgAAAAAAAAAAAACAOXi1ffxWVu1lbC9TRMSqqYtN4i56IqAAAAAAAAAAAIDurCLi9+wRAADAd/Yi4u32EWXVnsXVz+/Lpi5ckpsoAQUAAAAAAAAAAAAAAHN3+zrFSUScNHVxkjuLXRJQAAAAAAAAAABAd7xzLQAAjM9eRLyPiPdl1UZEfIqvQcVF5jCe55fsAQAAAAAAAAAAMFVeXAUAAJPwNiL+ioj/lVW7Kqv2qKza/eRNPIELFAAAAAAAAAAA0K3ziHiZPQIAANiJN9vHn2XVnkXEMq4uU2wyR/EwLlAAAAAAAAAAAEC3NtkDAACATryKiD8j4r9l1a63lyleZI/ifgIKAAAAAAAAAADo1iZ7AAAA0LnrmOJ/ZdWelFV7KKYYHgEFAAAAAAAAAAB0a5M9AAAA6NXbiPgrrmKKZVm177IHceXX7AEAAAAAAAAAADBxm+wBAABAmvcR8b6s2suIWEbEsqmLde6k+RJQAAAAAAAAAABAtzbZAwAAgHR7EfFbRPxWVu1ZfI0pLlJXzcwv2QMAAAAAAAAAAGDiNtkDAACAQXkVEX9GxP/Kql2WVXuQvGc2BBQAAAAAAAAAANChpi422RsAAIDBeh8Rf5dVuymr9qis2hfZg6ZMQAEAAAAAAAAAAN07yx4AAAAM2stwlaJzv2YPAAAAAAAAAACAGbjIHgAAAIzG+4h4X1btWUQcR8RJUxf+TrEDLlAAAAAAAAAAAED3VtkDAACA0XkVEX9FxKas2kVZtfvJe0ZPQAEAAAAAAAAAAN3zbrEAAMBT7UXE7xHx37Jql2XVvs4eNFYCCgAAAAAAAAAA6N46ewAAADAJ7yPiP2XVrsqqPcgeMzYCCgAAAAAAAAAA6N4mewAAADApbyLi77JqN2XVHmaPGQsBBQAAAAAAAAAAdKypi032BgAAYJJeRsRfQoqHEVAAAAAAAAAAAEA/zrIHAAAAkyWkeAABBQAAAAAAAAAA9OMiewAAADB5QoofEFAAAAAAAAAAAEA/VtkDAACA2RBS3EFAAQAAAAAAAAAA/dhkDwAAAGbnZkhxkD0mm4ACAAAAAAAAAAD6sckeAAAAzNbLiPi7rNrVnEMKAQUAAAAAAAAAAPSgqYtV9gYAAGD23sRVSLEsq3Y/e0zfBBQAAAAAAAAAANCfy+wBAAAAEfE+ItZl1S6yh/RJQAEAAAAAAAAAAP1ZZw8AAADY2ouI38uq3ZRV+y57TB8EFAAAAAAAAAAA0B8BBQAAMDQvI+LfZdWelFW7nz2mSwIKAAAAAAAAAADozyZ7AAAAwD3eRsS6rNqj7CFdEVAAAAAAAAAAAEB/XKAAAACGbC8i/iyrdl1W7evsMbsmoAAAAAAAAAAAgP4IKAAAgDF4FRH/Kat2kT1klwQUAAAAAAAAAADQk6YuLiLiPHsHAADAA/0+pWsUAgoAAAAAAAAAAOjXJnsAAADAI0zmGoWAAgAAAAAAAAAA+rXKHgAAAPAEo79GIaAAAAAAAAAAAIB+bbIHAAAAPNGor1EIKAAAAAAAAAAAoF/r7AEAAADPNMprFAIKAAAAAAAAAADoUVMXAgoAAGAKXkXEqqzao+whDyWgAAAAAAAAAACA/p1lDwAAANiBvYj4s6zaVVm1+9ljfkZAAQAAAAAAAAAA/XOFAgAAmJI3EbEe+jUKAQUAAAAAAAAAAPRPQAEAAEzN4K9RCCgAAAAAAAAAAKB/AgoAAGCqBnuNQkABAAAAAAAAAAA9a+pilb0BAACgQ4O8RiGgAAAAAAAAAACAHGfZAwAAADo2qGsUAgoAAAAAAAAAAMixyR4AAADQg8FcoxBQAAAAAAAAAABAjnX2AAAAgB6lX6MQUAAAAAAAAAAAQI5V9gAAAICepV6jEFAAAAAAAAAAAECCpi5W2RsAAACSXF+jeNfnkwooAAAAAAAAAAAgz1n2AAAAgCR7EfHvsmpPyqp90ccTCigAAAAAAAAAACDPOnsAAABAsrcRsenjGoWAAgAAAAAAAAAA8ggoAAAAerpGIaAAAAAAAAAAAIA8AgoAAICvOr1GIaAAAAAAAAAAAIAkTV2ssjcAAAAMTGfXKAQUAAAAAAAAAACQ6zR7AAAAwADt/BqFgAIAAAAAAAAAAHKtswcAAAAM1E6vUQgoAAAAAAAAAAAg1yp7AAAAwMDt5BqFgAIAAAAAAAAAAHK5QAEAAPBzz75GIaAAAAAAAAAAAIBETV1sIuI8ewcAAMBIPPkahYACAAAAAAAAAADyuUIBAADwcNfXKI4fc41CQAEAAAAAAAAAAPlW2QMAAABG6LeIWJdVe/CQLxZQAAAAAAAAAABAvlX2AAAAgJF6GRF/P+QahYACAAAAAAAAAACSNXWxzt4AAAAwcj+9RiGgAAAAAAAAAACAYTjNHgAAADByP7xGIaAAAAAAAAAAAIBhWGUPAAAAmIg7r1EIKAAAAAAAAAAAYBhW2QMAAAAm5LtrFAIKAAAAAAAAAAAYgKYuVtkbAAAAJujLNQoBBQAAAAAAAAAADMdp9gAAAIAJehkRfwsoAAAAAAAAAABgOFbZAwAAACbqo4ACAAAAAAAAAACGY5U9AAAAYKIWAgoAAAAAAAAAABiIpi5W2RsAAAAm6GNTFxsBBQAAAAAAAAAADMtp9gAAAICJWURECCgAAAAAAAAAAGBYVtkDAAAAJuRjUxebCAEFAAAAAAAAAAAMzSp7AAAAwIQcX/9CQAEAAAAAAAAAAAPS1MUqewMAAMBEnDZ1sb7+jYACAAAAAAAAAACG51P2AAAAgAlY3PyNgAIAAAAAAAAAAIZnlT0AAABg5E5vX/gTUAAAAAAAAAAAwPCssgcAAACM3OL2JwQUAAAAAAAAAAAwME1drCPiMnsHAADASH13fSJCQAEAAAAAAAAAAEN1kj0AAABgpBZ3fVJAAQAAAAAAAAAAw7TKHgAAADBCZ3ddn4gQUAAAAAAAAAAAwFCtsgcAAACM0PF9fyCgAAAAAAAAAACAAWrqYhMRZ9k7AAAARuS8qYvlfX8ooAAAAAAAAAAAgOFaZQ8AAAAYkcWP/lBAAQAAAAAAAAAAw3WSPQAAAGAkfnh9IkJAAQAAAAAAAAAAg9XUxSoiLrN3AAAAjMDiZ18goAAAAAAAAAAAgGFbZQ8AAAAYuJ9en4gQUAAAAAAAAAAAwNCdZA8AAAAYuMVDvkhAAQAAAAAAAAAAw7bKHgAAADBglw+5PhEhoAAAAAAAAAAAgEFr6mITEWfZOwAAAAbq+KFfKKAAAAAAAAAAAIDhO8keAAAAMECXIaAAAAAAAAAAAIBJEVAAAAB877ipi4uHfrGAAgAAAAAAAAAABq6pi3VEnGfvAAAAGJBHXZ+IEFAAAAAAAAAAAMBYrLIHAAAADMijrk9ECCgAAAAAAAAAAGAsTrIHAAAADMSjr09ECCgAAAAAAAAAAGAUmroQUAAAAFx59PWJCAEFAAAAAAAAAACMyafsAQAAAMmedH0iQkABAAAAAAAAAABj4goFAAAwd8unXJ+IEFAAAAAAAAAAAMCYCCgAAIC5e9L1iQgBBQAAAAAAAAAAjMb2XVY/Ze8AAABI8rGpi81T/2EBBQAAAAAAAAAAjIsrFAAAwFwtnvMPCygAAAAAAAAAAGBcVtkDAAAAEjzr+kSEgAIAAAAAAAAAAEZl+4Khs+wdAAAAPVs89xsIKAAAAAAAAAAAYHyW2QMAAAB69OzrExECCgAAAAAAAAAAGKOT7AEAAAA9WuzimwgoAAAAAAAAAABgZLbvvHqWvQMAAKAHO7k+ESGgAAAAAAAAAACAsVpmDwAAAOjBYlffSEABAAAAAAAAAADjdJI9AAAAoGM7uz4RIaAAAAAAAAAAAIBR2r6I6DR7BwAAQIcWu/xmAgoAAAAAAAAAABivZfYAAACAjuz0+kSEgAIAAAAAAAAAAMbsJHsAAABAR5a7/oYCCgAAAAAAAAAAGKmmLi4i4lP2DgAAgB07bepitetvKqAAAAAAAAAAAIBxc4UCAACYmkUX31RAAQAAAAAAAAAA43YSEZfZIwAAAHakk+sTEQIKAAAAAAAAAAAYtaYuLsIVCgAAYDoWXX1jAQUAAAAAAAAAAIyfgAIAAJiCzq5PRAgoAAAAAAAAAABg9Jq6OImIy+wdAAAAz7To8psLKAAAAAAAAAAAYBqW2QMAAACeodPrExECCgAAAAAAAAAAmIpl9gAAAIBnWHT9BAIKAAAAAAAAAACYgKYu1hFxlr0DAADgCTq/PhEhoAAAAAAAAAAAgClZZg8AAAB4gkUfTyKgAAAAAAAAAACA6VhmDwAAAHikXq5PRAgoAAAAAAAAAABgMpq6uIiIT9k7AAAAHmHR1xMJKAAAAAAAAAAAYFqW2QMAAAAeqLfrExECCgAAAAAAAAAAmJSmLk4i4jJ7BwAAwAMs+nwyAQUAAAAAAAAAAEzPMnsAAADAT/R6fSJCQAEAAAAAAAAAAFN0nD0AAADgJxZ9P6GAAgAAAAAAAAAAJqapi01EnGbvAAAAuEfv1yciBBQAAAAAAAAAADBVy+wBAAAA9zjKeFIBBQAAAAAAAAAATFBTF8uIuMzeAQAAcMvHpi7WGU8soAAAAAAAAAAAgOlaZg8AAAC4ZZH1xAIKAAAAAAAAAACYruPsAQAAADd8bOpik/XkAgoAAAAAAAAAAJio7QuTTrN3AAAAbC0yn1xAAQAAAAAAAAAA07bMHgAAABARf2Ren4gQUAAAAAAAAAAAwKQ1dbGMiPPsHQAAwKxdRsRx9ggBBQAAAAAAAAAATN8yewAAADBri6YuLrJHCCgAAAAAAAAAAGD6ltkDAACA2Tpt6iL9+kSEgAIAAAAAAAAAACavqYtNRHzM3gEAAMzSInvANQEFAAAAAAAAAADMwzJ7AAAAMDunTV2sskdcE1AAAAAAAAAAAMAMbF+0dJa9AwAAmJVF9oCbBBQAAAAAAAAAADAfx9kDAACA2RjU9YkIAQUAAAAAAAAAAMxGUxfLiLjM3gEAAMzCYfaA2wQUAAAAAAAAAAAwL65QAAAAXfvY1MUme8RtAgoAAAAAAAAAAJgXAQUAANC1RfaAuwgoAAAAAAAAAABgRpq6uIiIj9k7AACAyfowxOsTEQIKAAAAAAAAAACYo0X2AAAAYJIuY8B/3xBQAAAAAAAAAADAzGzfDfY0ewcAADA5x9urd4MkoAAAAAAAAAAAgHlaZA8AAAAm5TwijrNH/IiAAgAAAAAAAAAAZqipi1VEnGXvAAAAJmMx5OsTEQIKAAAAAAAAAACYs0G/OywAADAaZ01dLLNH/IyAAgAAAAAAAAAAZmr7Aqfz7B0AAMDoHWUPeAgBBQAAAAAAAAAAzNsiewAAADBqp01drLJHPISAAgAAAAAAAAAAZmx7heIyewcAADBah9kDHkpAAQAAAAAAAAAAHGcPAAAARulDUxeb7BEPJaAAAAAAAAAAAACOwxUKAADgcS4jYpE94jEEFAAAAAAAAAAAMHNNXVyEKxQAAMDjLLZ/lxgNAQUAAAAAAAAAABDhCgUAAPBw501djC7CFlAAAAAAAAAAAACuUAAAAI9xmD3gKQQUAAAAAAAAAADANVcoAACAn/nU1MUqe8RTCCgAAAAAAAAAAICIcIUCAAB4kKPsAU8loAAAAAAAAAAAAG5yhQIAALjPH01dbLJHPJWAAgAAAAAAAAAA+MIVCgAA4B7nMfK/KwgoAAAAAAAAAACA21yhAAAAbjvaBtejJaAAAAAAAAAAAAC+4QoFAABwy2lTFyfZI55LQAEAAAAAAAAAANzFFQoAAODaYfaAXRBQAAAAAAAAAAAA33GFAgAA2PqjqYtN9ohdEFAAAAAAAAAAAAD3cYUCAADm7TwmFFYLKAAAAAAAAAAAgDttr1AssncAAABpjrZ/L5gEAQUAAAAAAAAAAHCvpi6O4+pdZwEAgHn51NTFSfaIXRJQAAAAAAAAAAAAP7PIHgAAAPRPRVR9AAAgAElEQVTqMiKOskfsmoACAAAAAAAAAAD4oaYuluEKBQAAzMmiqYtN9ohdE1AAAAAAAAAAAAAPcZg9AAAA6MVZUxfH2SO6IKAAAAAAAAAAAAB+qqmLVUScZu8AAAA6d5g9oCsCCgAAAAAAAAAA4KEW2QMAAIBOfWjqYp09oisCCgAAAAAAAAAA4EG2Vyg+Zu8AAAA6cR4Tj6YFFAAAAAAAAAAAwGMssgcAAACdOGzq4iJ7RJcEFAAAAAAAAAAAwIM1dbGJiD+ydwAAADv1cXtxbtIEFAAAAAAAAAAAwGMdR8Rl9ggAAGAnLiPiKHtEHwQUAAAAAAAAAADAozR1cREzeYEVAADMwOH2Z/zJE1AAAAAAAAAAAACP1tTFMiLOsncAAADP8qmpi5PsEX0RUAAAAAAAAAAAAE/lCgUAAIzXZUQcZo/ok4ACAAAAAAAAAAB4kqYuVhHxMXsHAADwJIdNXVxkj+iTgAIAAAAAAAAAAHiORVy9cy0AADAen5q6OMke0TcBBQAAAAAAAAAA8GRNXWwi4jh7BwAA8GCXEXGYPSKDgAIAAAAAAAAAAHiWpi4WEXGevQMAAHiQw6YuLrJHZBBQAAAAAAAAAAAAu3CYPQAAAPipT01dnGSPyCKgAAAAAAAAAAAAnq2pi1VEfMreAQAA3OsyZh4+CygAAAAAAAAAAIBdOYqrF2UBAADDc9jUxUX2iEwCCgAAAAAAAAAAYCeauthExCJ5BgAA8L0PTV2cZI/IJqAAAAAAAAAAAAB2pqmL44g4y94BAAB8cR5C54gQUAAAAAAAAAAAALt3mD0AAAD44rCpi4vsEUMgoAAAAAAAAAAAAHaqqYt1RHzI3gEAAMQfTV2sskcMhYACAAAAAAAAAADowiIizrNHAADAjJ01dbHIHjEkAgoAAAAAAAAAAGDnmrq4iIjD7B0AADBTlxHxLnvE0AgoAAAAAAAAAACATjR1sYqIj9k7AABgho6authkjxgaAQUAAAAAAAAAANClo7h691sAAKAfn5q6WGaPGCIBBQAAAAAAAAAA0JmmLi4i4jB7BwAAzMR5+Pn7XgIKAAAAAAAAAACgU01dnETEp+wdAAAwA++2ETN3EFAAAAAAAAAAAAB9OIyIy+wRAAAwYX80dbHOHjFkAgoAAAAAAAAAAKBz23fBPczeAQAAE3Xa1MUie8TQCSgAAAAAAAAAAIBeNHVxEhGfsncAAMDEXEbEu+wRYyCgAAAAAAAAAAAA+nQYEefZIwAAYELebS++8RMCCgAAAAAAAAAAoDfbF3YdZu8AAICJ+KOpi1X2iLEQUAAAAAAAAAAAAL3avsDrQ/YOAAAYudOmLhbZI8ZEQAEAAAAAAAAAAGRYRMRZ9ggAABipy4h4lz1ibAQUAAAAAAAAAABA75q6uIiIw+wdAAAwUu+2P1PzCAIKAAAAAAAAAAAgRVMX64j4V/YOAAAYmX81dbHKHjFGAgoAAAAAAAAAACBNUxfHEXGavQMAAEbi0/ZnaJ5AQAEAAAAAAAAAAGR7FxGX2SMAAGDgziPiMHvEmAkoAAAAAAAAAACAVE1dXMRVRAEAANztMiLebX925okEFAAAAAAAAAAAQLqmLlYR8SF7BwAADNRRUxfr7BFj9+sjvnYTEX90tANgblbZA/hiE/79BrArm+wBfLHKHgAAHViGf8cBMD3+v0mA3dhkDwB2p6mLo7JqDyLiVfYWAAAYkA9NXSyzR0zBPz5//py9AQAAAAAAAAAAICIiyqrdj4h1ROwlTwEAgCE4beriIHvEVPySPQAAAAAAAAAAAOBaUxebiDhMngEAAENwHhHvskdMiYACAAAAAAAAAAAYlKYuTiLiQ/YOAABIdBkR75q6uMgeMiX/+Pz5c/YGAAAAAAAAAACA75RVu4qIN9k7AAAgwT+bulhmj5gaFygAAAAAAAAAAIChehdX77wLAABz8kE80Q0XKAAAAAAAAAAAgMEqq/Z1RPwnewcAAPTkU1MX77JHTJULFAAAAAAAAAAAwGA1dbGOiH9m7wAAgB6cRcRh9ogpc4ECAAAAAAAAAAAYvLJqlxHxPnsHAAB05DIiXjd1sckeMmUCCgAAAAAAAAAAYBTKql1HxKvsHQAA0IH/215fo0O/ZA8AAAAAAAAAAAB4oIO4emdeAACYkn+KJ/ohoAAAAAAAAAAAAMbEC8sAAJiSD01dLLNHzIWAAgAAAAAAAAAAGLyyahcRsYmIN7lLAABgZz42dXGUPWJOfs0eAAAAAAAAAAAAcJ+yat9FxHFEvMzeAgAAO3QWEeKJnv3j8+fP2RsAAAAAAAAAAAC+UVbt67gKJ1ycAABgas4j4nVTFxfZQ+bGBQoAAAAAAAAAAGAwyqrdj4hFRLzPXQIAAJ24jIh34okcLlAAAAAAAAAAAADpyqp9ERFH28de8hwAAOjK/zV1sc4eMVcuUAAAAAAAAAAAAKnKqj2MiOMQTvw/e3d01MbhtXH4JON7M1uATAd2B6aD0EHIjArw1wHpQP/7vRAd4A6kDkQH0hagkSrgu1gRMBYggbRnd/U8MzsiRonfXCUz6OcDAEC//SOeyCWgAAAAAAAAAAAAUgyGy4uIGEfEl9wlAABwdP9UZTHOHnHqBBQAAAAAAAAAAECjNuHEdUR8z10CAACNuBFPtIOAAgAAAAAAAAAAaMRguDyPOpz4O3cJAAA05qYqi6vsEdT+uL+/z94AAAAAAAAAAAD02GC4PIuIUQgnAAA4LdOqLC6yR/DIBQoAAAAAAAAAAOAoNuHEj83zOXkOAAA06S4iLrNH8CsBBQAAAAAAAAAAcFDCCQAATtxdRFxUZbHKHsKv/ri/v8/eAAAAAAAAAAAA9MRguLyKiOuI+JK7BAAAUqwj4lw80U4uUAAAAAAAAAAAAB8mnAAAgFiHyxOtJqAAAAAAAAAAAADeTTgBAAAR8RhPzLKH8DIBBQAAAAAAAAAAsDfhBAAA/Ec80RECCgAAAAAAAAAAYGeD4fIiIkYR8TV5CgAAtMWVeKIbBBQAAAAAAAAAAMCbNuHEdUR8z10CAACt8k9VFrfZI9iNgAIAAAAAAAAAAHjRYLi8ijqc+JK7BAAAWuefqizG2SPYnYACAAAAAAAAAAD4jXACAABeJZ7oIAEFAAAAAAAAAADwH+EEAAC8STzRUQIKAAAAAAAAAABAOAEAALsRT3SYgAIAAAAAAAAAAE7UYLg8i4gfm+dz8hwAAGg78UTHCSgAAAAAAAAAAODECCcAAGBv4okeEFAAAAAAAAAAAMCJGAyX5xFxHRF/5y4BAIBOEU/0hIACAAAAAAAAAAB6bjBcXkTEVQgnAABgX+KJHhFQAAAAAAAAAABATw2Gy8uI+BER37O3AABAB4knekZAAQAAAAAAAAAAPTIYLs8i4jIiriPiS+4aAADoLPFEDwkoAAAAAAAAAACgBwbD5XlEXEV9ceJz6hgAAOg28URPCSgAAAAAAAAAAKDDBsPlRdThxN+5SwAAoBfEEz0moAAAAAAAAAAAgA4aDJdXUV+b+Jo8BQAA+kI80XMCCgAAAAAAAAAA6IjBcHke9bWJHxHxOXUMAAD0xzoirqqyuM0ewnEJKAAAAAAAAAAAoOUGw+VF1OHE37lLAACgd9YRcVGVxSx7CMcnoAAAAAAAAAAAgBYaDJdn8Xht4kvuGgAA6CXxxIkRUAAAAAAAAAAAQIsMhstvUUcTlxHxOXkOAAD0lXjiBAkoAAAAAAAAAAAg2ebaxGXU4cTX5DkAANB3dxFxWZXFPHsIzRJQAAAAAAAAAABAEtcmAACgcXdRX55YZQ+heQIKAAAAAAAAAABo0ObaxFXU4cSX3DUAAHBSxBMnTkABAAAAAAAAAAANGAyXl1Ffmvg7ewsAAJygm6osrrJHkEtAAQAAAAAAAAAARzIYLs+jvjRxGa5NAABAFvEEESGgAAAAAAAAAACAgxoMl2cRcbV5vqaOAQAA/qnKYpw9gnYQUAAAAAAAAAAAwAEMhsvLqKOJv5KnAAAANfEEvxBQAAAAAAAAAADAOw2Gy4uoo4nLiPicOgYAAHiwjoiLqixm2UNoFwEFAAAAAAAAAADsYTBcfovHaOJL7hoAAOCZRURciifYRkABAAAAAAAAAABvEE0AAEAn3EV9eWKVPYR2ElAAAAAAAAAAAMAWg+HyPOpg4ioivqaOAQAA3nITET/EE7xGQAEAAAAAAAAAABubSxMXIZoAAIAu+V9VFj+yR9B+AgoAAAAAAAAAAE7aJpq4ivraxJfcNQAAwJ7+qcpinD2CbhBQAAAAAAAAAABwckQTAADQeeuIuKjKYpY9hO4QUAAAAAAAAAAAcBIGw+Vl1MHEZUR8Tp4DAAC8311EXFZlMc8eQrcIKAAAAAAAAAAA6KXBcHkeERdRBxN/pY4BAAAO5WdEXFVlscoeQvcIKAAAAAAAAAAA6I3BcPktHq9MfE2eAwAAHNa/VVlcZ4+guwQUAAAAAAAAAAB01mC4PIvHKxMXEfElcw8AAHAU64j4UZXFOHsI3SagAAAAAAAAAACgUzZXJi6ijia+564BAACObBERl1VZzLKH0H0CCgAAAAAAAAAAWm1zZeLhwsRlRHxOHQQAADRlGnU8scoeQj8IKAAAAAAAAAAAaJ3BcPkQTFxExNfUMQAAQIb/VWXxI3sE/SKgAAAAAAAAAAAg3WC4vIjHYOJ75hYAACDVOiKuqrK4zR5C/wgoAAAAAAAAAABo3GC4/BaPwcRfqWMAAIC2uIs6nphlD6GfBBQAAAAAAAAAABzd5sLE02jic+IcAACgfW4i4kdVFqvsIfSXgAIAAAAAAAAAgIPbBBMPz/fMLQAAQOv9U5XFOHsE/SegAAAAAAAAAADgQwbD5Vk8xhLfQjABAADsZhERl1VZzLKHcBoEFAAAAAAAAAAA7GUwXH6Lx1jiIiK+ZO4BAAA66WdEXFVlscoewukQUAAAAAAAAAAA8KIn1yUeYgnXJQAAgI/6v6osRtkjOD0CCgAAAAAAAAAA/jMYLi/iMZj4Fq5LAAAAh7OIiMuqLGbZQzhNAgoAAAAAAAAAgBO1iSW+PXm+pg4CAAD67CYiflRlscoewukSUAAAAAAAAAAA9NxguDyLX0MJsQQAANCUddThxDh7CAgoAAAAAAAAAAB6ZDBcnkfEeURcxGMs8SVvEQAAcMLuIuKyKot59hCIEFAAAAAAAAAAAHTWYLi8iDqWeHpZ4nPiJAAAgAf/VmVxnT0CnhJQAAAAAAAAAAC03GC4/Ba/hxKuSgAAAG20iIirqiwm2UPgOQEFAAAAAAAAAEBLbAklziPia+IkAACAfdxExI+qLFbZQ2AbAQUAAAAAAAAAQIMGw+VZPMYR5xFxERFnIZQAAAC6ax311Ynb7CHwGgEFAAAAAAAAAMARbK5JnEUdSJzH42WJz2mjAAAADu9n1PGEqxO0noACAAAAAAAAAOCdnkUSTy9LfMlbBQAA0Ih1RFxXZTHKHgK7ElAAAAAAAAAAALxgMFw+jSKePi5JAAAAp2wa9dWJefYQ2IeAAgAAAAAAAAA4WU8CiW2vXxOnAQAAtJGrE3SagAIAAAAAAAAA6K3BcPkQQ5xvHoEEAADA+7g6QecJKAAAAAAAAACATtoSR0REXGxev0XE58ZHAQAA9I+rE/SGgAIAAAAAAAAAaJXBcHkevwcRT3/te5N7AAAATtjPiPjh6gR9IaAAAAAAAAAAAI5uMFyeRX0VIuLXGOLhikSEMAIAAKAt1hFxVZXFbfYQOCQBBQAAAAAAAADwLoPh8mn88NLXoggAAIBuuYn66sQqewgcmoACAAAAAAAAAHgeQzy9FhERcfHk628R8bmhWQAAADRnEfXViUn2EDgWAQUAAAAAAAAA9MhguLx48pfPQ4inkUSE6xAAAADU/q3K4jp7BBybgAIAAAAAAAAAWuLZFYiI3wOIiF+vQUSIIAAAAHi/adRXJ+bZQ6AJAgoAAAAAAAAA+IBnFx8ePA8hIn4PH84i4usRJgEAAMBb1lGHE7fZQ6BJAgoAAAAAAAAAem0wXJ5HxPkL377Y49fPI+LLR/cAAABAsv9FxHVVFqvsIdC0TxERg+FykrwDAAAAAHjdfPPQvEn2gAbM/JAEAGjCYLjcdpXhqbOoLze85DxeDiFccwAAAIDXTSPiR1UWs+whkOWP+/v7GAyX99lDAAAAAADgHabZA3awioi2/jCqrdtWfoAH8LbBcPlWbPCSiz3eu8/v8X3/KQAAAEADFlFfnBhnD4FsAgoAAAAAAIDdLaL9F4HaGsbsaxb1vwtsc5H0+751PWFfLiYAAAAAx/ZvRIxcoobap+wBAAAAAAAAHfJl87TdX9kDAAAAAIBUPyPiR1UW8+wh0CYCCgAAAAAAAAAAAACAfriLOpyYZA+BNhJQAAAAAAAAAAAAAAB02zrqcGKcPQTaTEABAAAAAAAAAAAAANBN64gYRcSoKotV9hhoOwEFAAAAAAAAAAAAAED33ETEdVUW8+wh0BUCCgAAAAAAAAAAAACA7phGxI+qLGbZQ6BrBBQAAAAAAAAAAAAAAO03jfrixCR7CHTVp8FweZY9AgAAAAAAAAAAAACArRZRhxPj7CHQdZ8i4lv2CAAAAAAAAAAAAAAAfiGcgAP7lD0AAAAAAAAAAAAAAID/rCNiVJXFdfYQ6BsBBQAAAAAAAAAAAABAvnVEjKKOJ1bZY6CPBBQAAAAAAAAAAAAAAHmEE9AQAQUAAAAAAAAAAAAAQPOEE9AwAQUAAAAAAAAAAAAAQHOEE5BEQAEAAAAAAAAAAAAAcHzCCUgmoAAAAAAAAAAAAAAAOB7hBLSEgAIAAAAAAAAAAAAA4PAWEXFdlcU4ewhQE1AAAAAAAAAAAAAAAByOcAJaSkABAAAAAAAAAAAAAPBx06jDiUn2EGA7AQUAAAAAAAAAAAAAwPvdRMRYOAHtJ6AAAAAAAAAAAAAAANjPOiLGETGqymKeOwXYlYACAAAAAAAAAAAAAGA3i4gYRX1xYpU9BtiPgAIAAAAAAAAAAAAA4HXTqKOJcfYQ4P0EFAAAAAAAAAAAAAAA291ExKgqi1n2EODjBBQAAAAAAAAAAAAAAI8WETGOOpxYJW8BDkhAAQAAAAAAAAAAAAAQMY06mrjNHgIch4ACAAAAAAAAAAAAADhV63i8NjHPnQIcm4ACAAAAAAAAAAAAADg104gYV2Uxzh4CNEdAAQAAAAAAAAAAAACcAtcm4MQJKAAAAAAAAAAAAACAPnNtAogIAQUAAAAAAAAAAAAA0D+LqK9NjF2bAB4IKAAAAAAAAAAAAACAPlhHxG3U0cQkeQvQQgIKAAAAAAAAAAAAAKDLplFfm7itymKVvAVoMQEFAAAAAAAAAAAAANA1d/EYTcxzpwBdIaAAAAAAAAAAAAAAALpgERG3ETGuymKWPQboHgEFAAAAAAAAAAAAANBW66ijiZFoAvgoAQUAAAAAAAAAAAAA0CYP0cRtVRa32WOA/hBQAAAAAAAAAAAAAADZRBPA0QkoAAAAAAAAAAAAAIAMogmgUQIKAAAAAAAAAAAAAKApi3iMJibJW4ATI6AAAAAAAAAAAAAAAI7pLh6jiVn2GOB0CSgAAAAAAAAAAAAAgEP7GRGTqKOJee4UgNof9/f3MRgu77OHAAAAAAAAAAAAAACdtY7NlYmImFRlsUreA/AbFygAAAAAAAAAAAAAgPe4i000UZXFLHsMwFsEFAAAAAAAAAAAAADALh6uTEyijiZcmQA6RUABAAAAAAAAAAAAALxkGptowpUJoOsEFAAAAAAAAAAAAADAg7t4vDAxyZ0CcFgCCgAAAAAAAAAAAAA4XQ/BxCTqKxOr1DUARySgAAAAAAAAAAAAAIDTIZgATpaAAgAAAAAAAAAAAAD6SzABsCGgAAAAAAAAAAAAAID+mMZjMDETTAA8ElAAAAAAAAAAAAAAQDctYhNKRH1dYpY7B6DdBBQAAAAAAAAAAAAA0H7r2IQS8RhMuC4BsAcBBQAAAAAAAAAAAAC0zzTqUGIWETPXJQA+TkABAAAAAAAAAAAAALnEEgANEFAAAAAAAAAAAAAAQDPWUUcSk4iYh1gCoFEPAcUiIr5kDgEAAAAAAAAAAACAHrmLOpaYRx1MzKqyWGUOAjh1DwHFPAQUAAAAAAAAAAAAALCvu9hck9g8c1clANrp09tvAQAAAAAAAAAAAICTN406lJiHUAKgkwQUAAAAAAAAAAAAAFC7i4hVREw2r7OImFVlscocBcBhCCgAAAAAAAAAAAAAOCXTeIwjHl7nVVnMM0cBcHwCCgAAAAAAAAAAAAD6ZLp5nTx9rcpisuW9AJwQAQUAAAAAAAAAAAAAXXEX9dWI+eZ5uCAhkADgTQIKAAAAAAAAAAAAALI9hBH/BRGb11VErKqymL30NwLArgQUAAAAAAAAAAAAABzaQxAR8Xgt4revq7KYBwA0REABAAAAAAAAAAAAwDZPI4iIX+OHiMcLERGuRADQAQ8BxSwivmcOAQAAAAAAAAAAAHptGhGTF753FhHf9vhnnUXE148O6oF11J8BfcnTwOGtX3cNAoDeewgotv3HEQAAAAAAAAAAAOBQrrI/oD8YLvcNNbLMqrLw2U4AOLBPb78FAAAAAAAAAAAA4EPusuOJiIhNlDDJ3gEA5PgzewAAAAAAAAAAAADQe6PsAQAAAgoAAAAAAAAAAADgmNYRcZs9AgBAQAEAAAAAAAAAAAAc07gqi1X2CAAAAQUAAAAAAAAAAABwTKPsAQAAEQIKAAAAAAAAAAAA4HimVVnMs0cAAEQ8BhSz1BUAAAAAAAAAAABAH42zBwAAPHgIKFapKwAAAAAAAAAAAIC+WVdlMc4eAQDw4M+33wIAAAAAAAAAAACwt3H2AACApwQUAAAAAAAAAAAAwDGMsgcAADwloAAAAAAAAAAAAAAObVqVxTx7BADAUwIKAAAAAAAAAAAA4NDG2QMAAJ4TUAAAAAAAAAAAAACHtK7KYpw9AgDguT8jIqqymCTvAAAAAAAAAAAAAPphnD0AAGAbFygAAAAAAAAAAACAQxplDwAA2EZAAQAAAAAAAAAAABzKtCqLefYIAIBtBBQAAAAAAAAAAADAoYyzBwAAvERAAQAAAAAAAAAAABzCoiqLcfYIAICXCCgAAAAAAAAAAACAQxhnDwAAeM3TgOIubQUAAAAAAAAAAADQdePsAQAAr3kaUKzSVgAAAAAAAAAAAABd9rMqi3n2CACA1/z59lsAAAAAAAAAAAAAXjXOHgAA8BYBBQAAAAAAAAAAAPARi6osbrNHAAC8RUABAAAAAAAAAAAAfMQ4ewAAwC6eBhSrtBUAAAAAAAAAAABAV42yBwAA7OJpQDFLWwEAAAAAAAAAAAB00U1VFv4AZwCgE/58+y0AAAAAAAAAAAAAW42zBwAA7EpAAQAAAAAAAAAAALzHoiqLSfYIAIBdCSgAAAAAAAAAAACA97jOHgAAsA8BBQAAAAAAAAAAALCvdUTcZo8AANjH04BikjUCAAAAAAAAAAAA6JTbqixW2SMAAPbhAgUAAAAAAAAAAACwr1H2AACAfQkoAAAAAAAAAAAAgH1Mq7KYZY8AANiXgAIAAAAAAAAAAADYxzh7AADAezwNKFZpKwAAAAAAAAAAAIAuWFdlMc4eAQDwHv8FFM5pAQAAAAAAAAAAAG8YZw8AAHivP99+CwAAAAAAAAAAAEBERIyyBwAAvJeAAgAAAAAAAAAAANjFz6os5tkjAADeS0ABAAAAAAAAAAAA7GKcPQAA4COeBxR3KSsAAAAAAAAAAACANltUZXGbPQIA4COeBxSrlBUAAAAAAAAAAABAm42yBwAAfNTzgAIAAAAAAAAAAADguXH2AACAjxJQAAAAAAAAAAAAAK+5qcpilT0CAOCjngcU84wRAAAAAAAAAAAAQGuNsgcAAByCgAIAAAAAAAAAAAB4yV1VFrPsEQAAh/A8oAAAAAAAAAAAAAB44PoEANAbAgoAAAAAAAAAAABgm3VVFuPsEQAAh/I8oJhnjAAAAAAAAAAAAABax/UJAKBXBBQAAAAAAAAAAADANuPsAQAAh/Q8oAAAAAAAAAAAAAD4WZXFPHsEAMAhCSgAAAAAAAAAAACA50bZAwAADu15QDHPGAEAAAAAAAAAAAC0xqIqi0n2CACAQ/sloHBuCwAAAAAAAAAAAE7edfYAAIBjeH6BAgAAAAAAAAAAADhd64i4zR4BAHAMAgoAAAAAAAAAAADgwW1VFqvsEQAAx7AtoLhrfAUAAAAAAAAAAADQBtfZAwAAjmVbQKEcBQAAAAAAAAAAgNMzrcpinj0CAOBYtgUUAAAAAAAAAAAAwOkZZQ8AADgmAQUAAAAAAAAAAACwqMriNnsEAMAxbQsoJk2PAAAAAAAAAAAAAFK5PgEA9J4LFAAAAAAAAAAAAHDa1hExzh4BAHBsAgoAAAAAAAAAAAA4bbdVWayyRwAAHNu2gGLe9AgAAAAAAAAAAAAgzSh7AABAEwQUAAAAAAAAAAAAcLqmVVnMskcAADRhW0ABAAAAAAAAAAAAnIZx9gAAgKZsCyhWja8AAAAAAAAAAAAAmraoymKcPQIAoCm/BRROcQEAAAAAAAAAAMBJGGcPAABo0rYLFAAAAAAAAAAAAED/jbIHAAA0SUABAAAAAAAAAAAAp+emKotV9ggAgCa9FFDcNboCAAAAAAAAAAAAaJLrEwDAyXkpoFCVAgAAAAAAAAAAQD9Nq7KYZY8AAGjaSwEFAAAAAAAAAAAA0E/j7AEAABleCiiUpQAAAAAAAAAAANA/i6osxtkjAAAyvBRQrBpdAQAAAAAAAAAAADRhnD0AACDLSwEFAAAAAAAAAAAA0C/riBhljwAAyPJSQDFvcgQAAAAAAAAAAABwdLdVWayyRwAAZBFQAAAAAAAAAAAAwGm4zh4AAJDppYACADgeQccAACAASURBVAAAAAAAAAAA6I9pVRbz7BEAAJlcoAAAAAAAAAAAAID+G2UPAADI9sf9/f3WbwyGy+3fAAAAAAAAAAAAALpkUZXFefYIAIBsL12gAAAAAAAAAAAAAPrB9QkAgHg9oFg0tgIAAAAAAAAAAAA4hnVEjLNHAAC0wWsBxbypEQAAAAAAAAAAAMBRjKuyWGWPAABog9cCCgAAAAAAAAAAAKDbRtkDAADa4rWAYtbYCgAAAAAAAAAAAODQflZlMc8eAQDQFq8FFE52AQAAAAAAAAAAQHe5PgEA8MRrAQUAAAAAAAAAAADQTYuqLCbZIwAA2uS1gGLW2AoAAAAAAAAAAADgkK6zBwAAtM1rAcWqsRUAAAAAAAAAAADAoayrshhnjwAAaJvXAgoAAAAAAAAAAACge0bZAwAA2ujFgKIqi0mDOwAAAAAAAAAAAIDDEFAAAGzhAgUAAAAAAAAAAAD0x01VFqvsEQAAbfRWQLFuZAUAAAAAAAAAAABwCK5PAAC84K2AYtbICgAAAAAAAAAAAOCjplVZ+NwfAMAL3gooAAAAAAAAAAAAgG5wfQIA4BUuUAAAAAAAAAAAAED3LaqyuM0eAQDQZm8FFKtGVgAAAAAAAAAAAAAfcZ09AACg7d4KKAAAAAAAAAAAAIB2W0eE6xMAAG94K6CYNDECAAAAAAAAAAAAeLdRVRar7BEAAG3nAgUAAAAAAAAAAAB02zh7AABAF7wVUMybGAEAAAAAAAAAAAC8y01VFvPsEQAAXfBqQOF/qgAAAAAAAAAAAKDVRtkDAAC64q0LFAAAAAAAAAAAAEA7TauymGWPAADoil0CiunRVwAAAAAAAAAAAAD7cn0CAGAPLlAAAAAAAAAAAABA9yyqsrjNHgEA0CW7BBTzY48AAAAAAAAAAAAA9nKdPQAAoGsEFAAAAAAAAAAAANAt64hwfQIAYE+7BBQAAAAAAAAAAABAe4yqslhljwAA6JpdAorJsUcAAAAAAAAAAAAAOxtnDwAA6CIXKAAAAAAAAAAAAKA7bqqymGePAADool0CitnRVwAAAAAAAAAAAAC7GGUPAADoqjcDiqosVk0MAQAAAAAAAAAAAF41rcrCH4oMAPBOu1ygiIhYH3UFAAAAAAAAAAAA8Jbr7AEAAF22a0ChWAUAAAAAAAAAAIA8i6osJtkjAAC6bNeAAgAAAAAAAAAAAMhznT0AAKDrdg0oJsccAQAAAAAAAAAAALxoXZXFOHsEAEDXuUABAAAAAAAAAAAA7TbKHgAA0Ae7BhSzo64AAAAAAAAAAAAAtlmHgAIA4CB2DShWR10BAAAAAAAAAAAAbHNblYXP8AEAHMCuAcX8mCMAAAAAAAAAAACAra6zBwAA9MVOAUVVFvMj7wAAAAAAAAAAAAB+dePzewAAh7PrBYqIiPXRVgAAAAAAAAAAAADPjbMHAAD0yT4BxexoKwAAAAAAAAAAAICnplVZTLJHAAD0yT4BBQAAAAAAAAAAANCMUfYAAIC+2SegmBxrBAAAAAAAAAAAAPCfRVUWt9kjAAD6xgUKAAAAAAAAAAAAaJfr7AEAAH20T0AxO9oKAAAAAAAAAAAAICJiXZXFOHsEAEAf7RNQrI62AgAAAAAAAAAAAIiIGGUPAADoKxcoAAAAAAAAAAAAoB3WIaAAADianQOKqixcoAAAAAAAAAAAAIDjufVZPQCA49nnAkVExOIoKwAAAAAAAAAAAIDr7AEAAH22b0AxP8YIAAAAAAAAAAAAOHE3VVnMs0cAAPSZgAIAAAAAAAAAAADyjbMHAAD0nYACAAAAAP6fvbs5biPL2jW6ZUFHHAN05cG9JrQHnwscyACakOUBan4GpAekBwkPQA+AY4ACsADfQOhbpWpKIsFM7PxZa14nn5pJEXqxAQAAAABybVstfXYEAMDSGVAAAAAAAAAAAABAri47AABgDQwoAAAAAAAAAAAAIM/B9QkAgNswoAAAAAAAAAAAAIA8XXYAAMBafDqfz+/6Dz5//fa+/wAAAAAAAAAAAAB4zaHV8iU7AgBgLd57gSIi4jB4BQAAAAAAAAAAAKzPJjsAAGBNrhlQ7IeOAAAAAAAAAAAAgJU5RcRDdgQAwJoYUAAAAAAAAAAAAMDtbVotx+wIAIA1MaAAAAAAAAAAAACA29tkBwAArI0BBQAAAAAAAAAAANzWo+sTAAC3Z0ABAAAAAAAAAAAAt9VlBwAArJEBBQAAAAAAAAAAANzOY6tlnx0BALBG7x5Q+IMbAAAAAAAAAAAAXG2THQAAsFbXXKCIiDgMWgEAAAAAAAAAAADLt2217LIjAADW6toBxX7ICAAAAAAAAAAAAFiBLjsAAGDNrh1QWMACAAAAAAAAAADA221bLX12BADAml07oDgOWgEAAAAAAAAAAADL9pAdAACwdi5QAAAAAAAAAAAAwLgOrZaH7AgAgLVzgQIAAAAAAAAAAADG1WUHAADgAgUAAAAAAAAAAACMyfUJAICJuGpA0WpxgQIAAAAAAAAAAAB+b5MdAADAd9deoIiI2A5WAQAAAAAAAAAAAMtzioiH7AgAAL77yIDCFQoAAAAAAAAAAAD4uU2rxb+1AwCYiI8MKHaDVQAAAAAAAAAAAMCynCJikx0BAMBfXKAAAAAAAAAAAACA4T24PgEAMC0uUAAAAAAAAAAAAMDwXJ8AAJiYjwwo9kNFAAAAAAAAAAAAwII8tlr22REAAPzo6gGFP9wBAAAAAAAAAADAq7rsAAAA/ttHLlBERLwMUgEAAAAAAAAAAADL4PoEAMBEfXRAcRykAgAAAAAAAAAAAJZhkx0AAMDrPjqg6IeIAAAAAAAAAAAAgAXYtlp22REAALzOBQoAAAAAAAAAAAAYRpcdAADAz310QGEpCwAAAAAAAAAAAN+vT/TZEQAA/NxHBxT7ISIAAAAAAAAAAABg5rrsAAAAfu3T+Xz+0AOfv3772AMAAAAAAAAAAAAwb4dWy5fsCAAAfu2jFygiIl4GeAMAAAAAAAAAAADmqssOAADg94YYUBwHeAMAAAAAAAAAAADm6NBqeciOAADg94YYUPQDvAEAAAAAAAAAAABz1GUHAADwNkMMKPYDvAEAAAAAAAAAAABz4/oEAMCMGFAAAAAAAAAAAADAdbrsAAAA3m6IAcVugDcAAAAAAAAAAABgTk6uTwAAzMuHBxStluMQIQAAAAAAAAAAADAjm+wAAADeZ4gLFBER24HeAQAAAAAAAAAAgKk7hQEFAMDsDDWg2A/0DgAAAAAAAAAAAEzdptVyzI4AAOB9DCgAAAAAAAAAAADg7VyfAACYqaEGFLuB3gEAAAAAAAAAAIApc30CAGCmhhpQ+MMgAAAAAAAAAAAAS+f6BADAjA0yoGi19EO8AwAAAAAAAAAAABP25PoEAMB8DXWBIiLiMOBbAAAAAAAAAAAAMDVddgAAANcbckCxH/AtAAAAAAAAAAAAmJLHVss+OwIAgOsNOaDoB3wLAAAAAAAAAAAApqTLDgAA4GOGHFAcB3wLAAAAAAAAAAAApsL1CQCABRhyQLEb8C0AAAAAAAAAAACYii47AACAjzOgAAAAAAAAAAAAgJ9zfQIAYCEGG1C0Wo4RcRrqPQAAAAAAAAAAAJiALjsAAIBhDHmBIsIVCgAAAAAAAAAAAJbD9QkAgAUZekCxH/g9AAAAAAAAAAAAyLLJDgAAYDgGFAAAAAAAAAAAAPDftq2WXXYEAADDGXpA0Q/8HgAAAAAAAAAAAGTosgMAABiWCxQAAAAAAAAAAADwo22rpc+OAABgWIMOKFot+yHfAwAAAAAAAAAAgARddgAAAMMb+gJFRMR2hDcBAAAAAAAAAADgFlyfAABYqDEGFPsR3gQAAAAAAAAAAIBb6LIDAAAYhwEFAAAAAAAAAAAAfOf6BADAgo0xoOhHeBMAAAAAAAAAAADG1mUHAAAwHhcoAAAAAAAAAAAAwPUJAIDFG3xA0WrZD/0mAAAAAAAAAAAAjKzLDgAAYFxjXKCIiNiO9C4AAAAAAAAAAAAMzfUJAIAVGGtAsR/pXQAAAAAAAAAAABhalx0AAMD4DCgAAAAAAAAAAABYM9cnAABWYqwBRT/SuwAAAAAAAAAAADCkLjsAAIDbcIECAAAAAAAAAACAtXJ9AgBgRUYZULRa9hFxGuNtAAAAAAAAAAAAGEiXHQAAwO2MdYEiImI34tsAAAAAAAAAAADwEa5PAACsjAEFAAAAAAAAAAAAa9RlBwAAcFtjDij2I74NAAAAAAAAAAAA13J9AgBghVygAAAAAAAAAAAAYG267AAAAG7PgAIAAAAAAAAAAIA1cX0CAGClRhtQtFqOEXEY630AAAAAAAAAAAC4QpcdAABAjjEvUERE7Ed+HwAAAAAAAAAAAN7K9QkAgBUbe0DRj/w+AAAAAAAAAAAAvFWXHQAAQJ6xBxS7kd8HAAAAAAAAAACAt3B9AgBg5cYeUOxHfh8AAAAAAAAAAADeossOAAAg16fz+TzqBz5//TbuBwAAAAAAAAAAAODXtq2Wf2dHAACQa+wLFBERLzf4BgAAAAAAAAAAAPxMlx0AAEC+Wwwodjf4BgAAAAAAAAAAALxm22rpsyMAAMh3iwHF/gbfAAAAAAAAAAAAgNd02QEAAEzDLQYU/Q2+AQAAAAAAAAAAAP/k+gQAAP/fLQYUuxt8AwAAAAAAAAAAAP6pyw4AAGA6Rh9QtFqOEXEY+zsAAAAAAAAAAADwN65PAADwg1tcoIiI2N/oOwAAAAAAAAAAABDh+gQAAP9wqwFFf6PvAAAAAAAAAAAAgOsTAAD8l1sNKHY3+g4AAAAAAAAAAAB02QEAAEyPAQUAAAAAAAAAAABL4voEAACvusmAotWyv8V3AAAAAAAAAAAAWL0uOwAAgGm61QWKiIjtDb8FAAAAAAAAAADA+rg+AQDAT91yQLG74bcAAAAAAAAAAABYny47AACA6TKgAAAAAAAAAAAAYAkeXZ8AAOBXDCgAAAAAAAAAAABYgi47AACAabvZgKLVYkABAAAAAAAAAADAGB5bLfvsCAAApu2WFygiIl5u/D0AAAAAAAAAAACWr8sOAABg+m49oHCFAgAAAAAAAAAAgCG5PgEAwJsYUAAAAAAAAAAAADBnXXYAAADzYEABAAAAAAAAAADAXLk+AQDAm910QNFq6W/5PQAAAAAAAAAAABatyw4AAGA+bn2BIiLiJeGbAAAAAAAAAAAALIvrEwAAvEvGgGKX8E0AAAAAAAAAAACW4xQR99kRAADMiwEFAAAAAAAAAAAAc7NptRyzIwAAmBcDCgAAAAAAAAAAAObkFBGb7AgAAObn5gOKVkt/628CAAAAAAAAAACwGK5PAABwlYwLFBERL0nfBQAAAAAAAAAAYL5cnwAA4GpZA4pd0ncBAAAAAAAAAACYL9cnAAC4mgEFAAAAAAAAAAAAc3AI1ycAAPgAAwoAAAAAAAAAAADmoHN9AgCAj/h0Pp9TPvz567ecDwMAAAAAAAAAADA3h1bLl+wIAADmLesCRUTES+K3AQAAAAAAAAAAmI8uOwAAgPnLHFDsEr8NAAAAAAAAAADAPBxaLQ/ZEQAAzF/mgKJP/DYAAAAAAAAAAADz0GUHAACwDC5QAAAAAAAAAAAAMFVb1ycAABhK2oCi1WJAAQAAAAAAAAAAwK902QEAACxH5gWKiIht8vcBAAAAAAAAAACYpm2rpc+OAABgObIHFK5QAAAAAAAAAAAA8JouOwAAgGUxoAAAAAAAAAAAAGBqXJ8AAGBw2QOKPvn7AAAAAAAAAAAATM99dgAAAMuTOqBotewj4pTZAAAAAAAAAAAAwKQ8tlp22REAACxP9gWKiAh/0AUAAAAAAAAAAOA/uuwAAACWaQoDij47AAAAAAAAAAAAgEl4bLXssyMAAFgmAwoAAAAAAAAAAACm4BSuTwAAMKIpDCh22QEAAAAAAAAAAACk27g+AQDAmNIHFK2WY0QcsjsAAAAAAAAAAABIc4qITXYEAADLlj6guOizAwAAAAAAAAAAAEizufwYLwAAjGYqA4pddgAAAAAAAAAAAAApDuH6BAAAN2BAAQAAAAAAAAAAQKbO9QkAAG7h0/l8zm6IiIjPX79NIwQAAAAAAAAAAIBbObRavmRHAACwDlO5QBERsc0OAAAAAAAAAAAA4Ka67AAAANZjSgOKXXYAAAAAAAAAAAAAN/PSannIjgAAYD2mNKDoswMAAAAAAAAAAAC4mfvsAAAA1mVKAwoXKAAAAAAAAAAAANZh22rpsyMAAFiXyQwoWi37iDhkdwAAAAAAAAAAADC6LjsAAID1mcyA4sIVCgAAAAAAAAAAgGV7dH0CAIAMUxtQ9NkBAAAAAAAAAAAAjKrLDgAAYJ0MKAAAAAAAAAAAALiVx1bLPjsCAIB1mtSAotWyy24AAAAAAAAAAABgFKeIuM+OAABgvSY1oLjYZgcAAAAAAAAAAAAwuE2r5ZgdAQDAek1xQNFnBwAAAAAAAAAAADCoU0RssiMAAFi3KQ4odtkBAAAAAAAAAAAADKpzfQIAgGxTHFD02QEAAAAAAAAAAAAM5tBqcX0CAIB0kxtQXFbGL9kdAAAAAAAAAAAADKLLDgAAgIgJDigudtkBAAAAAAAAAAAAfNhLq+UhOwIAACKmO6DoswMAAAAAAAAAAAD4sPvsAAAA+A8DCgAAAAAAAAAAAMawbbX02REAAPAfkxxQtFr2EXHK7gAAAAAAAAAAAOBqrk8AADApkxxQXPTZAQAAAAAAAAAAAFzlsdWyy44AAIC/M6AAAAAAAAAAAABgaF12AAAA/JMBBQAAAAAAAAAAAEP6o9Wyz44AAIB/muyAwvk2AAAAAAAAAACA2TlFxCY7AgAAXjPZAcXFNjsAAAAAAAAAAACAN9u0Wo7ZEQAA8JqpDyj67AAAAAAAAAAAAADe5NBq6bIjAADgZwwoAAAAAAAAAAAAGEKXHQAAAL/y6Xw+Zzf80uev36YdCAAAAAAAAAAAwLbV8u/sCAAA+JWpX6CIiNhmBwAAAAAAAAAAAPBLXXYAAAD8zhwGFH12AAAAAAAAAAAAAD+1bbX02REAAPA7cxhQ7LIDAAAAAAAAAAAA+Km77AAAAHiLOQwo+uwAAAAAAAAAAAAAXvXYatlnRwAAwFtMfkDRajlGxEt2BwAAAAAAAAAAAD84RcR9dgQAALzV5AcUF312AAAAAAAAAAAAAD/YXH4gFwAAZsGAAgAAAAAAAAAAgPc6RMQmOwIAAN7DgAIAAAAAAAAAAID36lyfAABgbj6dz+fshjf5/PXbLiL+b3YHAAAAAAAAAADAyr20Wv5fdgQAALzXXC5QRLhCAQAAAAAAAAAAMAX32QEAAHANAwoAAAAAAAAAAADeattq6bMjAADgGgYUAAAAAAAAAAAAvNVddgAAAFxrNgOKVssxIl6yOwAAAAAAAAAAAFbqsdWyz44AAIBrzWZAcdFnBwAAAAAAAAAAAKzQKSLusyMAAOAjDCgAAAAAAAAAAAD4nU2r5ZgdAQAAH2FAAQAAAAAAAAAAwK8cImKTHQEAAB81qwHFZcH8kt0BAAAAAAAAAACwIp3rEwAALMGsBhQXfXYAAAAAAAAAAADASmxbLQ/ZEQAAMAQDCgAAAAAAAAAAAH6myw4AAIChGFAAAAAAAAAAAADwmudWS58dAQAAQ5ndgKLVcoyIl+wOAAAAAAAAAACAhbvPDgAAgCHNbkBx0WcHAAAAAAAAAAAALNgfrZZ9dgQAAAxprgOKp+wAAAAAAAAAAACAhTpFxCY7AgAAhjbLAUWrpc9uAAAAAAAAAAAAWKiu1XLMjgAAgKHNckBxsc0OAAAAAAAAAAAAWJhDq8X1CQAAFmnOA4o+OwAAAAAAAAAAAGBh7rIDAABgLAYUAAAAAAAAAAAARERsWy19dgQAAIxltgOKyx/UT9kdAAAAAAAAAAAAC3GXHQAAAGOa7YDios8OAAAAAAAAAAAAWIDHVss+OwIAAMZkQAEAAAAAAAAAALBup4i4z44AAICxGVAAAAAAAAAAAACs26bVcsyOAACAsX06n8/ZDR/y+eu3fUT8n+wOAAAAAAAAAACAGTq0Wr5kRwAAwC3M/QJFhCsUAAAAAAAAAAAA17rPDgAAgFsxoAAAAAAAAAAAAFinbavlKTsCAABuxYACAAAAAAAAAABgnVyfAABgVWY/oGi17CPiJbsDAAAAAAAAAABgRh5bLbvsCAAAuKXZDygu+uwAAAAAAAAAAACAmTiF6xMAAKyQAQUAAAAAAAAAAMC6dK2WY3YEAADc2qfz+ZzdMIjPX78t438EAAAAAAAAAABgPIdWy5fsCAAAyLCUCxQREdvsAAAAAAAAAAAAgIm7yw4AAIAsSxpQPGUHAAAAAAAAAAAATNi21dJnRwAAQJYlDSj67AAAAAAAAAAAAIAJu8sOAACATIsZULRadhFxyu4AAAAAAAAAAACYoD9bLfvsCAAAyLSYAcXFU3YAAAAAAAAAAADAxJwiosuOAACAbEsbUPTZAQAAAAAAAAAAABNz32o5ZkcAAEC2pQ0oXKAAAAAAAAAAAAD4y0ur5SE7AgAApmBRA4rLSvoluwMAAAAAAAAAAGAi7rMDAABgKhY1oLjoswMAAAAAAAAAAAAm4LnV0mdHAADAVCxxQPGUHQAAAAAAAAAAAJDsFK5PAADADxY3oLgspk/ZHQAAAAAAAAAAAIk2rZZ9dgQAAEzJ4gYUF312AAAAAAAAAAAAQJJDRGyyIwAAYGqWOqB4yg4AAAAAAAAAAABIct9qOWZHAADA1Cx1QNFnBwAAAAAAAAAAACTYtlr8AC0AALxikQOKVss+Il6yOwAAAAAAAAAAAG7sPjsAAACmapEDios+OwAAAAAAAAAAAOCG/my17LIjAABgqpY8oHCGDgAAAAAAAAAAWItTRHTZEQAAMGWLHVC0Wvr4/pcCAAAAAAAAAACApbtvtRyzIwAAYMoWO6C46LMDAAAAAAAAAAAARvbSannIjgAAgKlb+oDiKTsAAAAAAAAAAABgZPfZAQAAMAdLH1D02QEAAAAAAAAAAAAjemy19NkRAAAwB4seULRa9hHxkt0BAAAAAAAAAAAwglO4PgEAAG+26AHFxVN2AAAAAAAAAAAAwAi6VssxOwIAAObCgAIAAAAAAAAAAGB+Dq2WTXYEAADMyeIHFK2WXXw/VQcAAAAAAAAAALAUd9kBAAAwN4sfUFy4QgEAAAAAAAAAACzFc6ulz44AAIC5MaAAAAAAAAAAAACYj1NE3GdHAADAHK1lQNFnBwAAAAAAAAAAAAxg02rZZ0cAAMAcfTqfz9kNN/H567eniPif7A4AAAAAAAAAAIArHVotX7IjAABgrtZygSLCFQoAAAAAAAAAAGDe7rIDAABgztY0oHjKDgAAAAAAAAAAALjSc6ulz44AAIA5W82AotWyj4iX7A4AAAAAAAAAAIB3OkXEfXYEAADM3WoGFBd9dgAAAAAAAAAAAMA7bS4/IAsAAHzA2gYUD9kBAAAAAAAAAAAA73BotXTZEQAAsASrGlC0Wnbx/ZwdAAAAAAAAAADAHNxlBwAAwFKsakBx8ZQdAAAAAAAAAAAA8AbPrZY+OwIAAJbCgAIAAAAAAAAAAGB6ThFxnx0BAABLssYBRZ8dAAAAAAAAAAAA8BubVss+OwIAAJbk0/l8zm64uc9fvz1FxP9kdwAAAAAAAAAAALzi0Gr5kh0BAABLs8YLFBERT9kBAAAAAAAAAAAAP3GXHQAAAEu01gFFnx0AAAAAAAAAAADwiudWS58dAQAAS7TKAUWrZR8RL9kdAAAAAAAAAAAAf3OKiPvsCAAAWKpVDiguHrIDAAAAAAAAAAAA/mZz+XFYAABgBGseUDxlBwAAAAAAAAAAAFwcWi1ddgQAACzZagcUl6X2IbsDAAAAAAAAAAAgIu6yAwAAYOlWO6C4cIUCAAAAAAAAAADI9thq6bMjAABg6dY+oHjIDgAAAAAAAAAAAFbtFBH32REAALAGqx5QtFp2EXHI7gAAAAAAAAAAAFara7UcsyMAAGANVj2guOizAwAAAAAAAAAAgFV6abVssiMAAGAtDCginrIDAAAAAAAAAACAVbrPDgAAgDX5dD6fsxvSff767RgR/8ruAAAAAAAAAAAAVuPPVosBBQAA3JALFN+5QgEAAAAAAAAAANzKKSK67AgAAFgbA4rvDCgAAAAAAAAAAIBbuW+1HLMjAABgbT6dz+fshkn4/PXbMSL+ld0BAAAAAAAAAAAs2rbV8u/sCAAAWCMXKP7SZwcAAAAAAAAAAACLd5cdAAAAa2VA8Zen7AAAAAAAAAAAAGDR/mi17LMjAABgrQwo/mJAAQAAAAAAAAAAjOUQEZvsCAAAWDMDiotWyzEinrM7AAAAAAAAAACARbq7/BslAAAgiQHFj1yhAAAAAAAAAAAAhvbcaumzIwAAYO0MKH5kQAEAAAAAAAAAAAzpFBH32REAAIABxQ8uJ/KeszsAAAAAAAAAAIDF6Fot++wIAADAgOI1rlAAAAAAAAAAAABDeGm1bLIjAACA7wwo/psBBQAAAAAAAAAAMIS77AAAAOAvBhT/0Go5RsRzdgcAAAAAAAAAADBrf7ZadtkRAADAXwwoXucKBQAAAAAAAAAAcK1DRHTZEQAAwI8MKF5nQAEAAAAAAAAAAFzrvtVyzI4AAAB+ZEDxistfXp6zOwAAAAAAAAAAgNl5brX4AVcAAJggA4qf85cYAAAAAAAAAADgPU4RcZ8dAQAAvM6A4ucMKAAAAAAAAAAAgPfoWi377AgAAOB1BhQ/0Wo5RsRzdgcAAAAAAAAAADALL62WTXYEAADwcwYUv+YKBQAAAAAAAAAA8BZ32QEAAMCvGVD8mgEFAAAAAAAAAADwO3+2WnbZEQAAwK8ZUPxCq+UYEc/ZHQAAAAAA+Mze2QAAIABJREFUAAAAwGQdIqLLjgAAAH7PgOL3XKEAAAAAAAAAAAB+5v7yQ60AAMDEGVD8ngEFAAAAAAAAAADwmudWi39fBAAAM2FA8RuXdfhzdgcAAAAAAAAAADApp4i4y44AAADezoDibazEAQAAAAAAAACAv+suP84KAADMhAHF2xhQAAAAAAAAAAAA/7FttWyyIwAAgPcxoHiDy1L8ObsDAAAAAAAAAACYhPvsAAAA4P0MKN7uITsAAAAAAAAAAABI90erZZcdAQAAvN+n8/mc3TAbn79+O0bEv7I7AAAAAAAAAACAFIdWy5fsCAAA4DouULzPU3YAAAAAAAAAAACQ5i47AAAAuJ4BxfsYUAAAAAAAAAAAwDr92WrpsyMAAIDrGVC8Q6vlKSJO2R0AAAAAAAAAAMBNnSKiy44AAAA+xoDi/VyhAAAAAAAAAACAdblrtRyzIwAAgI8xoHi/TXYAAAAAAAAAAABwM8+tFj+6CgAAC2BA8U6tll1EHLI7AAAAAAAAAACA0Z0i4i47AgAAGIYBxXUsygEAAAAAAAAAYPm6VssxOwIAABiGAcV1HrIDAAAAAAAAAACAUW1bLZvsCAAAYDgGFFdotewi4iW7AwAAAAAAAAAAGM1ddgAAADAsA4rrPWQHAAAAAAAAAAAAo/ij1bLPjgAAAIZlQHG9p+wAAAAAAAAAAABgcC+tli47AgAAGJ4BxZUuC/NtdgcAAAAAAAAAADCou+yA/2Xv3o7byLI0jG5a0BHHAGg8UJUFYlvQbAsGioABlAegB9T7eQA9oDwgPQA9AI8BCMCCnAeierqqdKMIYOdlLQu+1wTyzw0AAJyGAcXbrLIDAAAAAAAAAACAo7lptayzIwAAgNMwoHib++wAAAAAAAAAAADgKJ4j4jY7AgAAOB0Dijdotewi4i67AwAAAAAAAAAAeLP54X0gAABgpAwo3s4VCgAAAAAAAAAAGLbPrZaH7AgAAOC0DCjeqNVyHxH77A4AAAAAAAAAAOCXPEfEMjsCAAA4PQOK41hlBwAAAAAAAAAAAL/kutWyy44AAABOz4DiOFbZAQAAAAAAAAAAwKt9abXcZ0cAAADnYUBxBK2Wdbyc8gMAAAAAAAAAAIZhHxHz7AgAAOB8DCiO5zY7AAAAAAAAAAAA+GnzVssuOwIAADgfA4rjccoPAAAAAAAAAACG4Uurxfs+AAAwMQYUR9Jq2UTEY3YHAAAAAAAAAADwXfuImGdHAAAA52dAcVyr7AAAAAAAAAAAAOC7rlstu+wIAADg/Awojus+XhbqAAAAAAAAAABA/zy2WlbZEQAAQA4DiiM6LNPvszsAAAAAAAAAAIC/2UfEPDsCAADIY0BxfKvsAAAAAAAAAAAA4G+WrZZNdgQAAJDnouu67IbRmS22m4h4l90BAAAAAAAAAABERMRjq+UyOwIAAMjlAsVprLIDAAAAAAAAAACAiIjYR8Q8OwIAAMhnQHEaq+wAAAAAAAAAAAAgIiKWrZZNdgQAAJDvouu67IZRmi22DxHxIbsDAAAAAAAAAAAm7LHVcpkdAQAA9IMLFKezyg4AAAAAAAAAAIAJ20fEPDsCAADoDwOK07mPl4cwAAAAAAAAAADg/Jatlk12BAAA0B8GFCfSatnFy4gCAAAAAAAAAAA4r8dWy212BAAA0C8GFKflIQwAAAAAAAAAAM5rHxHz7AgAAKB/DChOqNWyjojn7A4AAAAAAAAAAJiQZatlkx0BAAD0jwHF6blCAQAAAAAAAAAA5/HYavG+DgAA8FUGFKe3yg4AAAAAAAAAAIAJ2EfEPDsCAADoLwOKE2u17CLiS3YHAAAAAAAAAACM3LLVssmOAAAA+suA4jxW2QEAAAAAAAAAADBij62W2+wIAACg3wwozqDVch8Rz9kdAAAAAAAAAAAwQvuImGdHAAAA/WdAcT732QEAAAAAAAAAADBCy1bLJjsCAADoPwOK83EiEAAAAAAAAAAAjuux1eK9HAAA4KcYUJzJYeX+mN0BAAAAAAAAAAAjsY+IeXYEAAAwHAYU57XKDgAAAAAAAAAAgJFYHj5qCgAA8FMuuq7LbpiU2WK7i4h/ZHcAAAAAAAAAAMCAPbZaLrMjAACAYXGB4vxW2QEAAAAAAAAAADBg+4iYZ0cAAADDY0BxfrfZAQAAAAAAAAAAMGDLVssmOwIAABiei67rshsmZ7bYriPifXYHAAAAAAAAAAAMzGOr5TI7AgAAGCYXKHK4QgEAAAAAAAAAAK+zj4ir7AgAAGC4DChy3MfLAx0AAAAAAAAAAPBz5q2WXXYEAAAwXAYUCQ4PcvfZHQAAAAAAAAAAMBBfWi3etwEAAN7EgCLPbXYAAAAAAAAAAAAMwD4i5tkRAADA8BlQJGm1rCPiKbsDAAAAAAAAAAB6bt5q2WVHAAAAw2dAkcsVCgAAAAAAAAAA+LYvrZb77AgAAGAcDCgStVpW8XJiEAAAAAAAAAAA+LPniJhnRwAAAONhQJFvlR0AAAAAAAAAAAA9NG+17LIjAACA8TCgyHebHQAAAAAAAAAAAD3zudXykB0BAACMiwFFslbLJiIeszsAAAAAAAAAAKAnniNimR0BAACMjwFFP6yyAwAAAAAAAAAAoCeuWi277AgAAGB8DCh6oNWyioh9dgcAAAAAAAAAACS7abWssyMAAIBxMqDoj9vsAAAAAAAAAAAASPTUallmRwAAAONlQNEfq+wAAAAAAAAAAABINM8OAAAAxs2AoidaLZuI+JLdAQAAAAAAAAAACT61WtbZEQAAwLgZUPTLKjsAAAAAAAAAAADO7LHVcpsdAQAAjJ8BRY+0Wu4j4jm7AwAAAAAAAAAAzmQfEfPsCAAAYBoMKPrHmh4AAAAAAAAAgKm4brVssiMAAIBpMKDon1V2AAAAAAAAAAAAnMGXVssqOwIAAJgOA4qeabXsIuIuuwMAAAAAAAAAAE5oHxHz7AgAAGBaDCj66TY7AAAAAAAAAAAATujq8KFRAACAszGg6KFWyzoinrI7AAAAAAAAAADgBD63Wh6yIwAAgOkxoOgvVygAAAAAAAAAABib54hYZkcAAADTdNF1XXYD3zBbbHcR8Y/sDgAAAAAAAAAAOJLfWy3r7AgAAGCaXKDoN1coAAAAAAAAAAAYixvjCQAAIJMBRb+tsgMAAAAAAAAAAOAInloty+wIAABg2gwoeqzVsomIu+wOAAAAAAAAAAB4g31EXGVHAAAAGFD03yo7AAAAAAAAAAAA3uD68CFRAACAVBdd12U38AOzxXYdEe+zOwAAAAAAAAAA4JW+tFpcnwAAAHrBBYphuM0OAAAAAAAAAACAV9pHxDw7AgAA4A8uUAzEbLHdRcQ/sjsAAAAAAAAAAOAn/bPV8pAdAQAA8AcXKIbDFQoAAAAAAAAAAIbis/EEAADQNwYUw7HKDgAAAAAAAAAAgJ/w1Gq5zo4AAAD4KwOKgWi1bCLiLrsDAAAAAAAAAAB+YJ4dAAAA8DUGFMOyyg4AAAAAAAAAAIDv+NRqWWdHAAAAfM1F13XZDbzCbLF9iIgP2R0AAAAAAAAAAPAXj62Wy+wIAACAb3GBYnhW2QEAAAAAAAAAAPAX+4i4yo4AAAD4HhcoBmi22G4i4l12BwAAAAAAAAAAHPy71XKfHQEAAPA9LlAM0yo7AAAAAAAAAAAADj4bTwAAAENgQDFMt/Fy9hAAAAAAAAAAADI9RcQyOwIAAOBnGFAMUKtlFxFW+wAAAAAAAAAAZJsf3mUBAADoPQOK4VpmBwAAAAAAAAAAMGmfWi3r7AgAAICfZUAxUK2WTUR8ye4AAAAAAAAAAGCSHlstt9kRAAAAr2FAMWweQgEAAAAAAAAAOLd9RFxlRwAAALyWAcWAtVoeIuIpuwMAAAAAAAAAgEm5arXssiMAAABey4Bi+FyhAAAAAAAAAADgXD4fPvoJAAAwOBdd12U38EazxXYTEe+yOwAAAAAAAAAAGLWnVstv2REAAAC/ygWKcVhlBwAAAAAAAAAAMGr7iJhnRwAAALyFAcU43MbLQyoAAAAAAAAAAJzCstWyzo4AAAB4CwOKEWi17MIVCgAAAAAAAAAATuNLq+U2OwIAAOCtDCjGw0MqAAAAAAAAAADH9hwR8+wIAACAYzCgGIlWyyYi7rI7AAAAAAAAAAAYlXmrZZcdAQAAcAwGFOPiCgUAAAAAAAAAAMdy02p5yI4AAAA4louu67IbOKLZYvsQER+yOwAAAAAAAAAAGLTHVstldgQAAMAxuUAxPsvsAAAAAAAAAAAABm0fEfPsCAAAgGMzoBiZw9nE5+wOAAAAAAAAAAAGa95q2WRHAAAAHJsBxTgtswMAAAAAAAAAABikz62W++wIAACAU7joui67gROYLbabiHiX3QEAAAAAAAAAwGA8tVp+y44AAAA4FRcoxus2OwAAAAAAAAAAgMHYR8Q8OwIAAOCUDCjGaxUvD7YAAAAAAAAAAPAj162WdXYEAADAKRlQjFSrZReuUAAAAAAAAAAA8GN3rZZVdgQAAMCpGVCM2224QgEAAAAAAAAAwLc9RcR1dgQAAMA5GFCM2OEKxX12BwAAAAAAAAAAvTU/vGMCAAAwegYU47fMDgAAAAAAAAAAoJc+tVrW2REAAADnYkAxcq2WTUTcZXcAAAAAAAAAANArX1ott9kRAAAA52RAMQ3L7AAAAAAAAAAAAHrjOSLm2REAAADnZkAxAYcrFF+yOwAAAAAAAAAA6IWrVssuOwIAAODcDCimw8lFAAAAAAAAAAA+tVrW2REAAAAZLrquy27gTGaL7UNEfMjuAAAAAAAAAAAgxZdWy1V2BAAAQBYXKKZlmR0AAAAAAAAAAECK54iYZ0cAAABkMqCYkFbLQ0Q8ZncAAAAAAAAAAHB281bLLjsCAAAgkwHF9KyyAwAAAAAAAAAAOKubw4c3AQAAJu2i67rsBs5stthuIuJddgcAAAAAAAAAACf32Gq5zI4AAADoAxcopmmZHQAAAAAAAAAAwMntI+IqOwIAAKAvXKCYKFcoAAAAAAAAAABG75+tlofsCAAAgL5wgWK6ltkBAAAAAAAAAACczI3xBAAAwJ+5QDFhrlAAAAAAAAAAAIzSY6vlMjsCAACgb1ygmLZldgAAAAAAAAAAAEf1HBFX2REAAAB95ALFxLlCAQAAAAAAAAAwKr+3WtbZEQAAAH3kAgWr7AAAAAAAAAAAAI7ik/EEAADAtxlQcBsR++wIAAAAAAAAAADe5Eur5TY7AgAAoM8MKCau1bKLlxEFAAAAAAAAAADD9BwR8+wIAACAvjOgIMIVCgAAAAAAAACAIbs6fEQTAACA7zCgwBUKAAAAAAAAAIDh+tRqWWdHAAAADIEBBX9whQIAAAAAAAAAYFjuWi0+mgkAAPCTDCiICFcoAAAAAAAAAAAG5ikirrMjAAAAhsSAgv/mCgUAAAAAAAAAQP/tI2J++GAmAAAAP8mAgv9whQIAAAAAAAAAYBCuWy3r7AgAAIChMaDgr1yhAAAAAAAAAADor7tWyyo7AgAAYIgMKPgTVygAAAAAAAAAAHrrqdUyz44AAAAYKgMKvsYVCgAAAAAAAACAftlHxFV2BAAAwJAZUPA3rlAAAAAAAAAAAPTOvNWyyY4AAAAYMgMKvsUVCgAAAAAAAACAfvjcarnPjgAAABg6Awq+yhUKAAAAAAAAAIBeeGy1XGdHAAAAjIEBBd/jCgUAAAAAAAAAQJ59RFxlRwAAAIyFAQXf5AoFAAAAAAAAAECqy8P7GwAAAByBAQU/4goFAAAAAAAAAMD5fWq1rLMjAAAAxsSAgu86fMVgmd0BAAAAAAAAADAhd62W2+wIAACAsTGg4IcOD+TP2R0AAAAAAAAAABPwFBHX2REAAABjZEDBz1pmBwAAAAAAAAAAjNw+Iuatll12CAAAwBhddF2X3cBAzBbbTUS8y+4AAAAAAAAAABipf7da7rMjAAAAxsoFCl5jmR0AAAAAAAAAADBSn40nAAAATssFCl7FFQoAAAAAAAAAgKN7bLVcZkcAAACMnQsUvNYyOwAAAAAAAAAAYET2EXGVHQEAADAFLlDwarPFdh0R77M7AAAAAAAAAABG4PdWyzo7AgAAYApcoOBXXGcHAAAAAAAAAACMwEfjCQAAgPMxoODVWi0PEfGY3QEAAAAAAAAAMGB3rZZVdgQAAMCUGFDwq5bZAQAAAAAAAAAAA/UUEdfZEQAAAFNz0XVddgMDNVtsHyLiQ3YHAAAAAAAAAMCA7CPit1bLJjsEAABgalyg4C2W2QEAAAAAAAAAAANzZTwBAACQw4CCX9ZqeYiIu+wOAAAAAAAAAICB+HR43wIAAIAEBhS81TI7AAAAAAAAAABgAL60Wm6zIwAAAKbMgII3OZyUdIUCAAAAAAAAAODbniJinh0BAAAwdQYUHMMyIvbZEQAAAAAAAAAAPbSPiHmrZZcdAgAAMHUGFLzZ4QqFE5MAAAAAAAAAAH83b7WssyMAAAAwoOB4bsMVCgAAAAAAAACA/3bTarnPjgAAAOCFAQVHcTgz6QoFAAAAAAAAAMCLL62WZXYEAAAA/8+AgmO6jYjn7AgAAAAAAAAAgGRPETHPjgAAAODPDCg4msMVimV2BwAAAAAAAABAon1EzA/vUQAAANAjF13XZTcwMrPFdhMR77I7AAAAAAAAAAAS/LvVcp8dAQAAwN+5QMEpzLMDAAAAAAAAAAAS3BhPAAAA9JcLFJzEbLF9iIgP2R0AAAAAAAAAAGfypdVylR0BAADAt7lAwaksswMAAAAAAAAAAM7kKSLm2REAAAB8nwEFJ9FqeYiIL9kdAAAAAAAAAAAnto+Ieatllx0CAADA9xlQcErX2QEAAAAAAAAAACc2b7WssyMAAAD4MQMKTqbVsomIz9kdAAAAAAAAAAAn8qnVcp8dAQAAwM8xoODUlvFyqhIAAAAAAAAAYEzuWi232REAAAD8PAMKTqrVsosIPxYAAAAAAAAAAGPyFBHX2REAAAC8zkXXddkNTMBssd1ExLvsDgAAAAAAAACAN9pHxG+tlk12CAAAAK/jAgXnsswOAAAAAAAAAAA4gkvjCQAAgGEyoOAsWi2reDlfCQAAAAAAAAAwVB9bLevsCAAAAH6NAQXndJ0dAAAAAAAAAADwi+4OH5AEAABgoC66rstuYEJmi+19RPwruwMAAAAAAAAA4BUeWy2X2REAAAC8jQsUnJsrFAAAAAAAAADAkDxHxFV2BAAAAG9nQMFZtVo2EfE5uwMAAAAAAAAA4CfsI+Kq1bLLDgEAAODtDCjIsIyXHxgAAAAAAAAAAPps3mpZZ0cAAABwHAYUnN3hqwzL7A4AAAAAAAAAgO+4abXcZ0cAAABwPBdd12U3MFGzxXYTEe+yOwAAAAAAAAAA/uKu1TLPjgAAAOC4XKAg03V2AAAAAAAAAADAXzyFdxoAAABGyQUKUs0W24eI+JDdAQAAAAAAAAAQEfuI+J9Wyy47BAAAgONzgYJsvtgAAAAAAAAAAPTBPiIujScAAADGy4CCVK2WdUTcZXcAAAAAAAAAAJN3fXiPAQAAgJEyoKAPruPlKw4AAAAAAAAAABk+t1pW2REAAACclgEF6Q6nL5fZHQAAAAAAAADAJH1ptVxnRwAAAHB6BhT0QqvlNiKeszsAAAAAAAAAgEl5ioh5dgQAAADnYUBBn8yzAwAAAAAAAACAydhHxFWrZZcdAgAAwHkYUNAbrZaHiHjM7gAAAAAAAAAAJuGy1bLJjgAAAOB8DCjom3l2AAAAAAAAAAAweh9bLevsCAAAAM7LgIJeOXzZ4Sa7AwAAAAAAAAAYrZtWyyo7AgAAgPMzoKCPbiNinx0BAAAAAAAAAIzOXatlmR0BAABADgMKeqfVsouI6+wOAAAAAAAAAGBUnsL7CAAAAJN20XVddgN81WyxfYiID9kdAAAAAAAAAMDg7SPifw4fdQQAAGCiXKCgz5bZAQAAAAAAAADA4O0j4tJ4AgAAAAMKeqvV8hARd9kdAAAAAAAAAMCgXbda1tkRAAAA5DOgoO+u4+VLEAAAAAAAAAAAr/Wp1bLKjgAAAKAfDCjotcP5zGV2BwAAAAAAAAAwOHetltvsCAAAAPrjouu67Ab4odliu46I99kdAAAAAAAAAMAgPLZaLrMjAAAA6BcXKBiK6+wAAAAAAAAAAGAQniLiKjsCAACA/jGgYBBaLQ8RcZfdAQAAAAAAAAD02j4i5q2WXXYIAAAA/WNAwZBcx8sPHQAAAAAAAAAAX3PZallnRwAAANBPBhQMxuHrEMvsDgAAAAAAAACglz4aTwAAAPA9F13XZTfAq8wW23VEvM/uAAAAAAAAAAB646bVssyOAAAAoN9coGCIrrMDAAAAAAAAAIDeuDOeAAAA4Ge4QMEgzRbbVUT8b3YHAAAAAAAAAJDqqdXyW3YEAAAAw+ACBUN1HRH77AgAAAAAAAAAIM1TRFxmRwAAADAcBhQMUqtlFxHL7A4AAAAAAAAAIMU+IuaH9wcAAADgp1x0XZfdAL9sttiuI+J9dgcAAAAAAAAAcFa/t1rW2REAAAAMiwsUDN11dgAAAAAAAAAAcFYfjScAAAD4FQYUDFqr5SEiPmd3AAAAAAAAAABn8anVssqOAAAAYJgMKBiDZUTssyMAAAAAAAAAgJO6a7XcZkcAAAAwXAYUDF6rZRcR19kdAAAAAAAAAMDJPLZa5tkRAAAADJsBBaNwOM/5mN0BAAAAAAAAABzdU0RcZUcAAAAwfAYUjMk8OwAAAAAAAAAAOKp9RFy2WnbZIQAAAAyfAQWj0WrZRMRNdgcAAAAAAAAAcBTGEwAAABzVRdd12Q1wVLPFdhMR77I7AAAAAAAAAIA3+Wer5SE7AgAAgPFwgYIxmmcHAAAAAAAAAABv8tF4AgAAgGMzoGB0Dj+g3GV3AAAAAAAAAAC/5KbVssqOAAAAYHwMKBir64jYZ0cAAAAAAAAAAK9y12pZZkcAAAAwTgYUjFKrZRcvIwoAAAAAAAAAYBgeWy3z7AgAAADGy4CC0Tqc83zM7gAAAAAAAAAAfugpIq6yIwAAABg3AwrGbp4dAAAAAAAAAAB81z4iLlstu+wQAAAAxs2AglFrtWwi4ia7AwAAAAAAAAD4KuMJAAAAzuai67rsBji52WK7joj32R0AAAAAAAAAwJ/83mpZZ0cAAAAwDS5QMBXX2QEAAAAAAAAAwJ98NJ4AAADgnAwomIRWy0NEfM7uAAAAAAAAAAAi4mU8scqOAAAAYFoMKJiSZUQ8Z0cAAAAAAAAAwMTdGU8AAACQwYCCyWi17CLiOrsDAAAAAAAAACbsrtUyz44AAABgmi66rstugLOaLbb3EfGv7A4AAAAAAAAAmJinVstv2REAAABMlwsUTNE8IvbZEQAAAAAAAAAwIU8RcZkdAQAAwLQZUDA5rZZdvIwoAAAAAAAAAIDT20fE5eH/egAAAEhjQMEktVruI+IxuwMAAAAAAAAARs54AgAAgN4woGDK5vHyQw0AAAAAAAAAcHx/jCfW2SEAAAAQYUDBhLVaNhGxTM4AAAAAAAAAgLG6Np4AAACgTy66rstugFSzxfYhIj5kdwAAAAAAAADAiHxstayyIwAAAOC/uUABEfN4ORsKAAAAAAAAALzdjfEEAAAAfWRAweS1WjYRsUzOAAAAAAAAAIAxuGu1LLMjAAAA4Gsuuq7LboBemC2264h4n90BAAAAAAAAAAN112qZZ0cAAADAt7hAAf9vnh0AAAAAAAAAAAP1ZDwBAABA3xlQwEGrZR0RN9kdAAAAAAAAADAwTxFxmR0BAAAAP3LRdV12A/TKbLFdR8T77A4AAAAAAAAAGICniLhsteyyQwAAAOBHXKCAv5tnBwAAAAAAAADAAOwjYm48AQAAwFAYUMBftFrWEXGT3QEAAAAAAAAAPbaPl8sT6+wQAAAA+FkXXddlN0AvzRbbdUS8z+4AAAAAAAAAgB763XgCAACAoXGBAr5tnh0AAAAAAAAAAD300XgCAACAITKggG84/Nhzk90BAAAAAAAAAD3ysdWyyo4AAACAX3HRdV12A/TabLFdR8T77A4AAAAAAAAASPap1XKbHQEAAAC/ygUK+LF5ROyzIwAAAAAAAAAg0Z3xBAAAAENnQAE/0GpZR8QyuwMAAAAAAAAAkty1WubZEQAAAPBWF13XZTfAIMwW24eI+JDdAQAAAAAAAABnZDwBAADAaLhAAT9vHhH77AgAAAAAAAAAOJOniLjOjgAAAIBjMaCAn9Rq2UTEMjkDAAAAAAAAAM7hKSIuWy277BAAAAA4louu67IbYFBmi+1DRHzI7gAAAAAAAACAEzGeAAAAYJRcoIDXm0fEPjsCAAAAAAAAAE5gH8YTAAAAjJQBBbxSq2UTLyMKAAAAAAAAABgT4wkAAABGzYACfkGr5T4ivmR3AAAAAAAAAMCR/DGeWGeHAAAAwKkYUMCvm8fLD0gAAAAAAAAAMGTGEwAAAEyCAQX8osPJ0qvsDgAAAAAAAAB4oyvjCQAAAKbAgALeoNXyEBGfszsAAAAAAAAA4Bd9PPz3DQAAAKNnQAFvt4yI5+wIAAAAAAAAAHilj62WVXYEAAAAnIsBBbxRq2UXEVfZHQAAAAAAAADwCsYTAAAATI4BBRxBq2UdETfZHQAAAAAAAADwE26MJwAAAJiii67rshtgNGaL7Toi3md3AAAAAAAAAMA33LVa5tkRAAAAkMEFCjiuq4jYZ0cAAAAAAAAAwFcYTwAAADBpBhRwRK2WTURcZ3cAAAAAAAAAwF8YTwAAADB5F13XZTfA6MwW2/uI+Fd2BwAAAAAAAACE8QQAAABEhAsUcCrziNhnRwAAAAAAAAAweY/GEwAAAPDCgAJOoNWyi4ir7A4AAAAAAAAAJu0p/HcNAAAA/2FAASfSanmIiM/ZHQAAAAAAAABM0lOVuw3TAAAgAElEQVREXB4+AAgAAABExEXXddkNMGqzxXYdEe+zOwAAAAAAAACYDOMJAAAA+AoXKOD05hGxz44AAAAAAAAAYBKMJwAAAOAbDCjgxFot64hYZncAAAAAAAAAMHrGEwAAAPAdF13XZTfAJMwW2/uI+Fd2BwAAAAAAAACjtI+I31otm+wQAAAA6CsXKOB85hHxnB0BAAAAAAAAwOjs4+XyxCY7BAAAAPrMgALO5HAidZ7dAQAAAAAAAMCo/DGeWGeHAAAAQN8ZUMAZtVoeIuImuwMAAAAAAACAUTCeAAAAgFe46LouuwEmZ7bYriPifXYHAAAAAAAAwP+xdzfHcaPpmoYfKWZPBQxA0QNxLKgcC0rHAiUjsC+WBUVZcKg9Ior0gGVBkxYM6QEFAxBMC3IWmX2mq7v0RzH5ApnXZcG9BuL5XmbLeAIAAAC+kwsUUONdNh+zAAAAAAAAAOB7GU8AAADAExhQQIGhbx6SLIszAAAAAAAAAJgf4wkAAAB4IgMKKDL0zXWSj9UdAAAAAAAAAMyG8QQAAAD8AAMKqHWe5L46AgAAAAAAAIBZODOeAAAAgKczoIBCQ988Jllm80oIAAAAAAAAAHzO6dA3l9URAAAAMGcGFFBs+zrIWXUHAAAAAAAAAJNlPAEAAADPwIACJmD7oeuqugMAAAAAAACAyTGeAAAAgGdiQAHTcZbkvjoCAAAAAAAAgMkwngAAAIBn9Gq9Xlc3AFttN54k+b/VHQAAAAAAAACUM54AAACAZ+YCBUzI0Dd3SX6r7gAAAAAAAACglPEEAAAA7IALFDBBbTdeJ/mlugMAAAAAAACAF2c8AQAAADviAgVM0zLJp+oIAAAAAAAAAF6U8QQAAADskAEFTNDQN49J3lV3AAAAAAAAAPBijCcAAABgxwwoYKKGvrlL8lt1BwAAAAAAAAA7ZzwBAAAAL+DVer2ubgC+oO3GyyTvqzsAAAAAAAAA2AnjCQAAAHghLlDA9J0lua+OAAAAAAAAAODZGU8AAADACzKggIkb+uYxyTLJqjgFAAAAAAAAgOdjPAEAAAAvzIACZmDom7tsLlEAAAAAAAAAMH/GEwAAAFDAgAJmYvvx7Kq6AwAAAAAAAIAfYjwBAAAARQwoYF7OktxXRwAAAAAAAADwJMYTAAAAUOjVer2ubgC+Q9uNx0nukhwVpwAAAAAAAADw7YwnAAAAoJgLFDAzQ988JFkWZwAAAAAAAADw7YwnAAAAYAIMKGCGhr65TvKxugMAAAAAAACArzKeAAAAgIl4tV6vqxuAJ2q78SbJz9UdAAAAAAAAAPwt4wkAAACYEBcoYN7eJVlVRwAAAAAAAADwH4wnAAAAYGIMKGDGhr55TLKo7gAAAAAAAADgL4wnAAAAYIIMKGDmhr65S/JbdQcAAAAAAAAASYwnAAAAYLJerdfr6gbgGbTdeJnkfXUHAAAAAAAAwAEzngAAAIAJc4EC9sdZkvvqCAAAAAAAAIADZTwBAAAAE+cCBeyRthuPk9wlOSpOAQAAAAAAADgkxhMAAAAwAy5QwB4Z+uYhybI4AwAAAAAAAOBQrJL8l/EEAAAAzIMBBeyZoW+uk3yo7gAAAAAAAADYc6ski+0/WgAAAGAGXq3X6+oGYAfabrxO8kt1BwAAAAAAAMAe+ud44q46BAAAAPh2LlDA/lomua+OAAAAAAAAANgzxhMAAAAwUwYUsKeGvnnMZkSxKk4BAAAAAAAA2BfGEwAAADBjBhSwx7Yf7ZbVHQAAAAAAAAB7wHgCAAAAZs6AAvbc0DfXST5UdwAAAAAAAADMmPEEAAAA7IFX6/W6ugF4AW03Xif5pboDAAAAAAAAYGaMJwAAAGBPuEABh2OZ5L46AgAAAAAAAGBG7pOcGE8AAADAfnCBAg5I240nSW6SHBWnAAAAAAAAAEzdfTaXJx6rQwAAAIDn4QIFHJDtqyjvqjsAAAAAAAAAJs54AgAAAPaQAQUcmKFvbpL8Vt0BAAAAAAAAMFHGEwAAALCnXq3X6+oGoEDbjZdJ3ld3AAAAAAAAAEyI8QQAAADsMRco4HCdZfPxDwAAAAAAAIDkzxhPAAAAwF5zgQIOWNuNb5I8JDkqTgEAAAAAAACodDX0zbI6AgAAANgtFyjggG1fTlkkWRWnAAAAAAAAAFQxngAAAIADYUABB27om7skZ9UdAAAAAAAAAAWMJwAAAOCAGFAAGfrmMsnH6g4AAAAAAACAF2Q8AQAAAAfm1Xq9rm4AJqLtxuskv1R3AAAAAAAAAOzY6fahOQAAAOCAuEAB/KtlkvvqCAAAAAAAAIAdMp4AAACAA+UCBfAXbTceJ7lLclScAgAAAAAAAPDcjCcAAADggLlAAfzF0DcPSRbFGQAAAAAAAADPzXgCAAAADpwBBfAfhr65S3Ja3QEAAAAAAADwDFZJ/rfxBAAAAGBAAfyt7cfDD9UdAAAAAAAAAD9glWSxfUQOAAAAOHCv1ut1dQMwYW03XiZ5X90BAAAAAAAA8J2MJwAAAIC/cIEC+JqzJPfVEQAAAAAAAADf4T7GEwAAAMC/cYEC+Kq2G98kuUvyU3ULAAAAAAAAwFf8czzxWB0CAAAATIsLFMBXbT8svsvmxC0AAAAAAADAVBlPAAAAAJ9lQAF8k+1p22V1BwAAAAAAAMBn/BnjCQAAAOALXq3X6+oGYEbablwm+aO6AwAAAAAAAOBfXA19s6yOAAAAAKbNBQrguwx9c5nkqroDAAAAAAAAYMt4AgAAAPgmBhTAd9t+fPyzugMAAAAAAAA4eB+MJwAAAIBvZUABPNUyyX11BAAAAAAAAHCwToe+Oa+OAAAAAObj1Xq9rm4AZqrtxjdJ7pL8VN0CAAAAAAAAHJTToW8uqyMAAACAeXGBAniyoW8ek7xLsqpuAQAAAAAAAA7CKsn/MZ4AAAAAnsIFCuCHtd24SPKP6g4AAAAAAABgr62SLIa+uasOAQAAAObJBQrghw19c5PktLoDAAAAAAAA2FufYjwBAAAA/CADCuBZbE/kfqjuAAAAAAAAAPbOfZIT4wkAAADgR71ar9fVDcAeabvxMsn76g4AAAAAAABgL9xnc3nisToEAAAAmD8XKIBnNfTNMsltdQcAAAAAAAAwe1cxngAAAACe0f+qDgD20rskN0neFncAAAAAAAAA83S1fbwNAAAA4Nm4QAE8u+0LMIskn4pTAAAAAAAAgPn5YDwBAAAA7MKr9Xpd3QDsqbYbT7K5RHFUnAIAAAAAAADMw+nQN5fVEQAAAMB+coEC2Jmhb+6yuUSxKk4BAAAAAAAApm0V4wkAAABgx1ygAHau7cZlkj+qOwAAAAAAAIBJWiVZbB9oAwAAANgZFyiAndu+EnNa3QEAAAAAAABMzqcYTwAAAAAvxIACeBHbEcXH6g4AAAAAAABgMu6TnBhPAAAAAC/FgAJ4MUPfnCW5qu4AAAAAAAAAyt1mc3nisToEAAAAOByv1ut1dQNwYNpuvE7yS3UHAAAAAAAAUOJq6JtldQQAAABweFygACossznHCwAAAAAAAByWj8YTAAAAQBUXKIASbTe+SXKT5G1xCgAAAAAAAPAyToe+uayOAAAAAA6XAQVQZjuieEhyVJwCAAAAAAAA7M4qyXLom+vqEAAAAOCwva4OAA7X0DePSRbZfDAFAAAAAAAA9s8qycJ4AgAAAJgCAwqg1NA3dzGiAAAAAAAAgH10n8144q46BAAAACBJXq3X6+oGgLTduEjyj+oOAAAAAAAA4Fn8czzxWB0CAAAA8E8uUACTMPTNTZLT6g4AAAAAAADgh13FeAIAAACYIBcogElpu3GZ5I/qDgAAAAAAAOBJroa+WVZHAAAAAPwdFyiASRn65jLJh+oOAAAAAAAA4LudGk8AAAAAU+YCBTBJbTdeJnlf3QEAAAAAAAB81SrJcuib6+oQAAAAgC8xoAAmy4gCAAAAAAAAJm+VZDH0zV11CAAAAMDXvK4OAPic7Xnfq+oOAAAAAAAA4G/dJzkxngAAAADmwoACmLqzbD68AgAAAAAAANNxm83liYfqEAAAAIBv9Wq9Xlc3AHxR241vktwkeVucAgAAAAAAACRX22vyAAAAALPiAgUweUPfPCZZxCUKAAAAAAAAqPab8QQAAAAwVwYUwCwYUQAAAAAAAECpVZLToW8uqkMAAAAAnurVer2ubgD4Zm03Hie5S3JUnAIAAAAAAACHYpVkMfTNXXUIAAAAwI9wgQKYlaFvHrK5RLGqLQEAAAAAAICDcJ/kxHgCAAAA2AcGFMDsbD/OLmJEAQAAAAAAALt0m83liYfqEAAAAIDn8Gq9Xlc3ADxJ240nSW6SHBWnAAAAAAAAwL65GvpmWR0BAAAA8JxcoABmyyUKAAAAAAAA2InfjCcAAACAfeQCBTB7bTcukvyjugMAAAAAAABmbpVkOfTNdXUIAAAAwC64QAHM3tA3N0lOqzsAAAAAAABgxlZJFsYTAAAAwD4zoAD2wtA3lzGiAAAAAAAAgKe4T3I89M1ddQgAAADALhlQAHvDiAIAAAAAAAC+21U2lyceq0MAAAAAdu3Ver2ubgB4Vm03LpP8Ud0BAAAAAAAAE/dh6Jvz6ggAAACAl2JAAewlIwoAAAAAAAD4otPthXcAAACAg2FAAewtIwoAAAAAAAD4D6ski6Fv7qpDAAAAAF7a6+oAgF3ZvphzWt0BAAAAAAAAE3Gf5MR4AgAAADhUBhTAXtuOKH6r7gAAAAAAAIBif2ZzeeKhOgQAAACgyqv1el3dALBzbTdeJnlf3QEAAAAAAAAFPg59c1YdAQAAAFDNBQrgIAx9s0xyVd0BAAAAAAAAL2iV5NR4AgAAAGDDBQrgoLhEAQAAAAAAwIFYJVkMfXNXHQIAAAAwFS5QAAfFJQoAAAAAAAAOwH2SY+MJAAAAgL8yoAAOjhEFAAAAAAAAe+wqm8sTj9UhAAAAAFPzar1eVzcAlGi78TLJ++oOAAAAAAAAeCa/DX1zUR0BAAAAMFUGFMBBM6IAAAAAAABgD6ySLIe+ua4OAQAAAJiy19UBAJWGvllmc8YYAAAAAAAA5ug+ycJ4AgAAAODrXKAAiEsUAAAAAAAAzNJtkndD3zxWhwAAAADMgQEFwJYRBQAAAAAAADPyceibs+oIAAAAgDl5XR0AMBVD3yyTXFV3AAAAAAAAwBeskpwaTwAAAAB8PxcoAP6NSxQAAAAAAABM1CrJYuibu+oQAAAAgDlygQLg37hEAQAAAAAAwATdJzk2ngAAAAB4OhcoAD6j7cazJP9d3QEAAAAAAMDBu9o+AgYAAADADzCgAPiCthuXSf6o7gAAAAAAAOBgnQ59c1kdAQAAALAPDCgAvsKIAgAAAAAAgAKrJIuhb+6qQwAAAAD2xevqAICp277oc1rdAQAAAAAAwMG4T3JsPAEAAADwvFygAPhGLlEAAAAAAADwAq6GvllWRwAAAADsIxcoAL6RSxQAAAAAAADs2KnxBAAAAMDuuEAB8J1cogAAAAAAAOCZrZIshr65qw4BAAAA2GcuUAB8J5coAAAAAAAAeEb3SY6NJwAAAAB2zwUKgCdqu3GR5DrJUXEKAAAAAAAA83Q19M2yOgIAAADgULhAAfBEQ9/cJFlkc1IZAAAAAAAAvtUqyanxBAAAAMDLcoEC4Ae13XiS5CYuUQAAAAAAAPB1n5K8G/rmrjoEAAAA4NC4QAHwg7YftxdxiQIAAAAAAIAvu01yYjwBAAAAUMMFCoBn4hIFAAAAAAAAX/Bh6Jvz6ggAAACAQ2ZAAfCM2m58k82I4m1xCgAAAAAAANOwSrIc+ua6OgQAAADg0BlQADwzIwoAAAAAAAC27pO8G/rmoToEAAAAgOR1dQDAvhn65jHJIpsP4gAAAAAAABymqyQL4wkAAACA6XCBAmBHtpcorpP8XN0CAAAAAADAizod+uayOgIAAACAvzKgANixthsvk7yv7gAAAAAAAGDnPiV5N/TNXXUIAAAAAP/pdXUAwL4b+maZzYlmAAAAAAAA9tdtkhPjCQAAAIDpcoEC4IW4RAEAAAAAALC3Pgx9c14dAQAAAMCXGVAAvKC2G5dJ/qjuAAAAAAAA4Fmskrwb+uamOgQAAACAr3tdHQBwSIa+uUxyWt0BAAAAAADAD7tPcmI8AQAAADAfLlAAFNheorhIclScAgAAAAAAwPf7OPTNWXUEAAAAAN/HgAKgSNuNJ0luYkQBAAAAAAAwF6sky6FvrqtDAAAAAPh+r6sDAA7V0Dd3SRbZfGgHAAAAAABg2u6TLIwnAAAAAObLgAKg0L+MKO6LUwAAAAAAAPi8q2zGE3fVIQAAAAA83av1el3dAHDw2m58k+QmydviFAAAAAAAAP6/VZKzoW8uq0MAAAAA+HEuUABMwNA3j9lcorgtTgEAAAAAAGDjPpurE5fVIQAAAAA8DxcoACam7cbLJO+rOwAAAAAAAA7YVTaXJx6rQwAAAAB4PgYUABNkRAEAAAAAAFBilc1w4rI6BAAAAIDnZ0ABMFFtNy6T/FHdAQAAAAAAcCDukyyHvrmrDgEAAABgN15XBwDw97YvG51WdwAAAAAAAByAqyQL4wkAAACA/eYCBcDEtd14kuQmyVFxCgAAAAAAwL5ZJTnbPmwFAAAAwJ4zoACYASMKAAAAAACAZ3efZOnqBAAAAMDheF0dAMDXbT/cH2fzIR8AAAAAAIAfc5VkYTwBAAAAcFhcoACYkbYb32RzieJtcQoAAAAAAMAcrZKcDX1zWR0CAAAAwMszoACYobYbL5O8r+4AAAAAAACYkfsk74a+eagOAQAAAKCGAQXATLXdeJHk1+oOAAAAAACAGfg49M1ZdQQAAAAAtQwoAGas7cZlkj+qOwAAAAAAACZqlWQ59M11dQgAAAAA9QwoAGau7cZFkuskR8UpAAAAAAAAU3KbzXjioToEAAAAgGkwoADYA203niS5iREFAAAAAABAknwY+ua8OgIAAACAaTGgANgTbTe+yWZE8bY4BQAAAAAAoMqnbK5O3FSHAAAAADA9r6sDAHgeQ988Jlkk+bM4BQAAAAAAoMKfSU6MJwAAAAD4HBcoAPZQ242XSd5XdwAAAAAAALyAVZLzoW8uqkMAAAAAmDYDCoA91XbjMskf1R0AAAAAAAA7dJ9kOfTNXXUIAAAAANP3ujoAgN0Y+uYyyX9l8+oSAAAAAADAvvmYZGE8AQAAAMC3coECYM+13XiS5CbJUXEKAAAAAADAc1hlc3XiujoEAAAAgHkxoAA4AG03vslmRPG2OAUAAAAAAOBH3CZ5N/TNY3UIAAAAAPNjQAFwILYjiosk76tbAAAAAAAAnuC3oW8uqiMAAAAAmC8DCoAD03bjeZLfqzsAAAAAAAC+0X2S5dA3d9UhAAAAAMzb6+oAAF7W0DfnSU6rOwAAAAAAAL7BxyQL4wkAAAAAnoMLFAAHqu3GkyQ3SY6KUwAAAAAAAP7dKpurE9fVIQAAAADsDxcoAA7U9qWmk2zOXgMAAAAAAEzFbZJj4wkAAAAAnpsLFAAHru3GN0kuk/xSnAIAAAAAABy2VZLzoW8uqkMAAAAA2E8GFAAkSdpuPE/ye3UHAAAAAABwkO6TLLcXtAEAAABgJwwoAPgfbTcuk1wkOSpOAQAAAAAADsfHoW/OqiMAAAAA2H8GFAD8RduNJ0luYkQBAAAAAADs1qdsrk7cVIcAAAAAcBheVwcAMC3b09jH2ZzKBgAAAAAA2IU/k5wYTwAAAADwklygAOCz2m68TPK+ugMAAAAAANgbq2yuTlxXhwAAAABweFygAOCzhr5ZJvmtugMAAAAAANgLt0mOjScAAAAAqOICBQBf1XbjIsl1kqPiFAAAAAAAYH5WSc6HvrmoDgEAAADgsBlQAPBN2m48zmZE8bY4BQAAAAAAmI/7JO+GvnmoDgEAAAAAAwoAvlnbjW+SXCR5X90CAAAAAABM3oehb86rIwAAAADgnwwoAPhubTeeJfnv6g4AAAAAAGCS7pMsh765qw4BAAAAgH9lQAHAk7TduEhyneSoOAUAAAAAAJiOj0PfnFVHAAAAAMDfMaAA4MnabjzOZkTxtjgFAAAAAACo9SmbqxM31SEAAAAA8DmvqwMAmK+hbx6SLJJc1ZYAAAAAAACFPiY5MZ4AAAAAYOpcoADgWbTdeJbkv6s7AAAAAACAF+PqBAAAAACzYkABwLNpu3GR5DrJUXEKAAAAAACwW39mM554rA4BAAAAgG9lQAHAs2q78TibEcXb4hQAAAAAAOD5rbIZTlxXhwAAAADA9zKgAGAn2m68TPK+ugMAAAAAAHg2rk4AAAAAMGsGFADsTNuNyyQXSY6KUwAAAAAAgKdzdQIAAACAvWBAAcBOtd14kuQ6yU/VLQAAAAAAwHdzdQIAAACAvWFAAcDOtd34Jsllkl+KUwAAAAAAgG/j6gQAAAAAe8eAAoAX03bjeZLfqzsAAAAAAIAvcnUCAAAAgL1kQAHAi2q7cZHkOslRcQoAAAAAAPBXrk4AAAAAsNcMKAB4cW03vklyk+RtcQoAAAAAALDh6gQAAAAAe8+AAoAybTdeJPm1ugMAAAAAAA6YqxMAAAAAHAwDCgBKtd34LsllkqPiFAAAAAAAODSuTgAAAABwUAwoACjXduNxkuskb4tTAAAAAADgEHxKcubqBAAAAACHxoACgMlou/Eiya/VHQAAAAAAsMc+Jjl3dQIAAACAQ2RAAcCktN34LsllkqPiFAAAAAAA2CefkiyHvrmpDgEAAACAKq+rAwDgX23PhZ8kua9uAQAAAACAPfExyYnxBAAAAACHzgUKACar7caLJL9WdwAAAAAAwEzdJzkznAAAAACADQMKACat7cZ3SS6THBWnAAAAAADAnHwY+ua8OgIAAAAApsSAAoDJa7vxOMl1krfFKQAAAAAAMHW32VyduKsOAQAAAICpMaAAYDbabrxI8mt1BwAAAAAATNAqyfnQNxfVIQAAAAAwVQYUAMxK243vklwmOSpOAQAAAACAqbhNshz65qE6BAAAAACmzIACgNlpu/FNkuskP1e3AAAAAABAoVU2w4nr6hAAAAAAmAMDCgBmq+3G8yS/V3cAAAAAAECBqyRnQ988VocAAAAAwFwYUAAwa203LpJcJvmptgQAAAAAAF7Ep2yuTtxUhwAAAADA3LyuDgCAH7H9QXSS5M/iFAAAAAAA2LUPSU6MJwAAAADgaVygAGBvtN14luQ8yVFxCgAAAAAAPKfbJGdD39xVhwAAAADAnBlQALBX2m48SXKZ5G1xCgAAAAAA/KhVkvOhby6qQwAAAABgHxhQALCX2m68SPJrdQcAAAAAADzRn9lcnXioDgEAAACAfWFAAcDeartxkeQ6yVFxCgAAAAAAfKtP2QwnrqtDAAAAAGDfvK4OAIBdGfrmJslxNq90AQAAAADA1H1IcmI8AQAAAAC74QIFAAeh7cazJOdxjQIAAAAAgOm5zebqxF11CAAAAADsMwMKAA5G240nSS6TvC1OAQAAAACAJFklOR/65qI6BAAAAAAOgQEFAAen7cbzJL9XdwAAAAAAcNCusrk68VgdAgAAAACHwoACgIPUduMim2sUP9WWAAAAAABwYD4lWQ59c1MdAgAAAACHxoACgIPVduObJBdJ3le3AAAAAACw91ZJLoa+Oa8OAQAAAIBDZUABwMFru/FdNtcojopTAAAAAADYT7fZXJ14qA4BAAAAgENmQAEA+Z9rFJdJfilOAQAAAABgf3xKcjb0zXV1CAAAAABgQAEAf9F241mS87hGAQAAAADAj/mQ5GLom8fqEAAAAABgw4ACAP5N243H2Vyj+Lm2BAAAAACAGbpNshz65qE6BAAAAAD4KwMKAPiMthvPk/xe3QEAAAAAwCx8SnI29M11dQgAAAAA8PcMKADgC9puPMnmGsXb4hQAAAAAAKbrQ5KLoW8eq0MAAAAAgM8zoACAb+AaBQAAAAAAf+M2yXLom4fqEAAAAADg6wwoAOAbuUYBAAAAAMDWpyRnQ99cV4cAAAAAAN/OgAIAvpNrFAAAAAAAB+1Dkouhbx6rQwAAAACA72NAAQBPsL1GcZ3kp+oWAAAAAABexG2S5dA3D9UhAAAAAMDTGFAAwBO13fgmyXmSX4tTAAAAAADYnU9Jzoa+ua4OAQAAAAB+jAEFAPygthsXSS7jGgUAAAAAwD5ZJbkY+ua8OgQAAAAAeB6vqwMAYO6GvrlJcpLkY3EKAAAAAADP488kJ8YTAAAAALBfXKAAgGfUduNJNtco3hanAAAAAADw/e6TnG0fzgEAAAAA9owBBQDsQNuN50l+r+4AAAAAAOCbrJKcD31zUR0CAAAAAOyOAQUA7IhrFAAAAAAAs/Axm/HEY3UIAAAAALBbBhQAsGOuUQAAAAAATNJtkrOhb+6qQwAAAACAl2FAAQAvYHuN4iLJz9UtAAAAAAAH7lM2w4nr6hAAAAAA4GUZUADAC2q78SzJeZKj4hQAAAAAgEOzSnIx9M15dQgAAAAAUMOAAgBeWNuNx0ku4xoFAAAAAMBLucrm6sRjdQgAAAAAUMeAAgCKtN24THIR1ygAAAAAAHblNpvhxF11CAAAAABQz4ACAAq13fgmm2sUvxSnAAAAAADsk0/ZDCeuq0MAAAAAgOkwoACACWi7cZHNkOKn2hIAAAAAgFlbJbkY+ua8OgQAAAAAmJ7X1QEAQDL0zU2SkyQfi1MAAAAAAObqKsmx8QQAAAAA8DkuUADAxLTdeJLNNYq3xSkAAAAAAHNwm2Q59M1DdQgAAAAAMG0GFAAwUW03niU5T3JUnAIAAAAAMEWfshlO3FSHAAAAAADzYEABABPWduNxkoskvxSnAAAAAABMxSrJ2dA3l9UhAAAAAMC8GFAAwAy03fgumyHFT9UtAAAAAABFVtl8J70Y+uaxOgYAAAAAmB8DCgCYiaaRYJwAABbySURBVLYb3yQ5T/JrcQoAAAAAwEu7SnI+9M1DdQgAAAAAMF8GFAAwM203nmTzytrP1S0AAAAAADt2m+Rs6Ju76hAAAAAAYP4MKABgptpuPMvmIsVRcQoAAAAAwHO7z2Y4cVMdAgAAAADsDwMKAJixthvfZHON4n11CwAAAADAM/iU5Hzom8vqEAAAAABg/xhQAMAeaLtxkeQyyU+1JQAAAAAAT7LK5rGYi6FvHqtjAAAAAID9ZEABAHuk7cbzJGdJjopTAAAAAAC+1YcYTgAAAAAAL8CAAgD2TNuNx9m81PZLcQoAAAAAwJdcJTkf+uahOgQAAAAAOAwGFACwp/5fe3dw1MbWtmv4yQCVAmiUAWSAMthkYAY9P2TwOwQC0EDOAGcgMoAMJAXQBRmcwRKfgG1vGxBaavV1VXW1wNj1zKnbb9N20yTzJKd1lwAAAAAAvHKX5Ho9G9/XHgIAAAAADIuAAgCOXNN235NcJzmpPAUAAAAAGLa7lIsTi9pDAAAAAIBhElAAwAA0bTdJcpPkn8pTAAAAAIDhWaWEE/PaQwAAAACAYRNQAMCANG03TTJPclp3CQAAAAAwAMIJAAAAAOCgCCgAYICatrtO8j3JSeUpAAAAAMDxeUq5iHuzno0fa48BAAAAAHgmoACAgWrabpTyS8xvtbcAAAAAAEdBOAEAAAAAHDQBBQAMXNN205RrFBd1lwAAAAAAPfYjybVwAgAAAAA4ZAIKACBJ0rTdVcr/DndSeQoAAAAA0B8/knxfz8bL2kMAAAAAAP5EQAEA/E/TdqMk10n+r/YWAAAAAOCgCScAAAAAgN4RUAAA/9K03STlGsU/lacAAAAAAIflLiWcWNQeAgAAAADwXgIKAOC3mrabpoQUZ5WnAAAAAAB1CScAAAAAgN4TUAAAf9S03VVKSHFSeQoAAAAAsF/CCQAAAADgaAgoAIC/0rTdKMl1kv+rvQUAAAAA+HKrJFfCCQAAAADgmAgoAIB3adpuknKN4p/KUwAAAACA3VulXJyY1x4CAAAAALBrAgoA4EOatpsm+Z7kou4SAAAAAGAHhBMAAAAAwNETUAAAn9K03VVKSHFadwkAAAAA8AHCCQAAAABgMAQUAMCnNW03SnK9eU4qzwEAAAAA/kw4AQAAAAAMjoACANiZTUhxk+Rb7S0AAAAAwC8JJwAAAACAwRJQAAA717TdJMk8yUXdJQAAAADAhnACAAAAABg8AQUA8GWatpsm+R4hBQAAAADUIpwAAAAAANgQUAAAX65pu6uUkOK07hIAAAAAGAzhBAAAAADAGwIKAGBvmra7TgkpTipPAQAAAIBjJZwAAAAAAPgNAQUAsFdN242SXG8eIQUAAAAA7IZwAgAAAADgDwQUAEAVTdtNUq5RfKu7BAAAAAB6TTgBAAAAAPCXBBQAQFVCCgAAAAD4EOEEAAAAAMA7CSgAgIPQtN00JaS4qLsEAAAAAA7aQ5Ib4QQAAAAAwPsJKACAgyKkAAAAAIBfuku5OLGoPQQAAAAAoK8EFADAQWra7iolpDituwQAAAAAqhJOAAAAAADsiIACADhoQgoAAAAABko4AQAAAACwYwIKAKAXmra7TgkpTipPAQAAAICv9CPJzXo2vq89BAAAAADg2AgoAIDeaNpulOR68wgpAAAAADgmP1IuTixrDwEAAAAAOFYCCgCgd4QUAAAAAByJpyTzlIsTy7pTAAAAAACOn4ACAOgtIQUAAAAAPfWU5CYlnHisPQYAAAAAYCgEFABA721Ciu9J/l/lKQAAAADwX1Yp4cRcOAEAAAAAsH8CCgDgaDRtN0kJKb7VXQIAAAAAr6ySfF/PxvPaQwAAAAAAhkxAAQAcHSEFAAAAAAfiLsnNeja+rT0EAAAAAAABBQBwxIQUAAAAAFRyl3JxYlF7CAAAAAAAWwIKAODoCSkAAAAA2JMfKeHEsvYQAAAAAAD+TUABAAyGkAIAAACAL/CU5CbJXDgBAAAAAHDYBBQAwOAIKQAAAADYgVWSeZKb9Wz8WHkLAAAAAAB/QUABAAyWkAIAAACAD1gl+b6ejee1hwAAAAAA8D4CCgBg8DYhxVWS6yQnVccAAAAAcKjuUsKJRe0hAAAAAAB8jIACAGCjabtRSkQhpAAAAADg2Y+UcGJZewgAAAAAAJ8joAAAeENIAQAAADB4T0luksyFEwAAAAAAx0NAAQDwG0IKAAAAgMFZJfme5HY9Gz9W3gIAAAAAwI4JKAAA/kLTdlcpvzw/rbsEAAAAgC9wl+RmPRvf1h4CAAAAAMDXEVAAALyDkAIAAADgqPxI8n09Gy9rDwEAAAAA4OsJKAAAPmATUlwluai7BAAAAIB3ekpyk3Jx4rH2GAAAAAAA9kdAAQDwCU3bTVMuUggpAAAAAA7bQ0o0Ma89BAAAAACAOgQUAAA7sAkprpJ8q7sEAAAAgDd+JJmvZ+NF7SEAAAAAANQloAAA2KGm7SYpFymEFAAAAAD1PCW5SQknlpW3AAAAAABwIAQUAABfoGm7UZLrzXNSeQ4AAADAUKySfF/PxvPaQwAAAAAAODwCCgCAL7QJKa5SQorTumsAAAAAjtaPlGsTi9pDAAAAAAA4XAIKAIA9adruKiWkOKs8BQAAAOAYPCW5SQknlpW3AAAAAADQAwIKAIA9a9pumuR7kou6SwAAAAB66SHJzXo2ntceAgAAAABAvwgoAAAqadpukhJSfKu7BAAAAKAXfqSEE/e1hwAAAAAA0E8CCgCAyjYhxVWS6yQnVccAAAAAHJZVkpsk8/Vs/Fh7DAAAAAAA/SagAAA4EE3bjZJcplylOK27BgAAAKCqnynRxG3tIQAAAAAAHA8BBQDAAWra7jLlIsVF7S0AAAAAe/KUZJ7kZj0bL+tOAQAAAADgGAkoAAAOWNN25ykhxbfaWwAAAAC+yF3KtYl57SEAAAAAABw3AQUAQA80bTdKCSmukpzWXQMAAADwaU9JblOuTdzXHgMAAAAAwDAIKAAAeqZpu6uUmOKs8hQAAACA93pIcpPkdj0bP9YeAwAAAADAsAgoAAB6qmm7acpFim91lwAAAAD8J9cmAAAAAAA4CAIKAICea9pukhJSXCc5qToGAAAAYMu1CQAAAAAADoqAAgDgiDRtd5USUpxVngIAAAAMk2sTAAAAAAAcLAEFAMARatruPCWk+FZ7CwAAADAIrk0AAAAAAHDwBBQAAEesabtRSkhxleS07hoAAADgyLg2AQAAAABArwgoAAAGomm7y5SY4qL2FgAAAKDX7pLM17PxvPYQAAAAAAB4DwEFAMDANG03yfYqxUnVMQAAAEBfPCWZp1ybWNadAgAAAAAAHyOgAAAYsKbtrlJiirPKUwAAAIDD9DPl2sRt7SEAAAAAAPBZAgoAANK03XlKSHEZVykAAABg6FZJbpLcujYBAAAAAMAxEVAAAPA/TduNUiIKVykAAABgWJ6S3Ca5Wc/G97XHAAAAAADAVxBQAADwS65SAAAAwCDcJZmnXJt4rLwFAAAAAAC+lIACAID/5CoFAAAAHJ1VSjQxX8/Gy7pTAAAAAABgfwQUAAD8NVcpAAAAoLeektymRBOLylsAAAAAAKAKAQUAAO/mKgUAAAD0xl3KtYnb9Wz8WHkLAAAAAABUJaAAAOBTNlcprjaPqxQAAABQ3yrJTUo0say8BQAAAAAADoaAAgCAnWna7iolpLiouwQAAAAG5ynJbZKb9Wx8X3sMAAAAAAAcIgEFAAA717TdJNurFKc1twAAAMCR+5lkvp6Nb2sPAQAAAACAQyegAADgSzVtd5nkMsm32lsAAADgSDwkuUlyu56NH2uPAQAAAACAvhBQAACwF03bjVJCiuskZ5XnAAAAQN+sso0mlpW3AAAAAABALwkoAADYu6btJikhxWWS07prAAAA4GCtktwmma9n4/vaYwAAAAAAoO8EFAAAVNW03WVKSPGt9hYAAAA4AE8p0cTteja+rT0GAAAAAACOiYACAICD0LTdKCWkuE5yVnkOAAAA7NvPlEsTogkAAAAAAPgiAgoAAA5O03aTJFeb57TmFgAAAPhCP7O9NvFYewwAAAAAABw7AQUAAAetabvzlKsUl0lOKs8BAACAz3pIchPRBAAAAAAA7J2AAgCA3mja7jLlKsU/lacAAADAezwkmadEE8u6UwAAAAAAYLgEFAAA9E7TdqOUixTXSc4qzwEAAIBfEU0AAAAAAMCBEVAAANBrTdtNUmKKq4gpAAAAqEs0AQAAAAAAB0xAAQDA0Wja7jwlpLhMclp3DQAAAAMhmgAAAAAAgJ4QUAAAcJRexBRXSU6qjgEAAODYiCYAAAAAAKCHBBQAABy9pu0uU65SXEZMAQAAwMeIJgAAAAAAoOcEFAAADIqYAgAAgHcQTQAAAAAAwBERUAAAMFhiCgAAAH5BNAEAAAAAAEdKQAEAwOA1bTfKNqT4p/IcAAAA9u9nkkVEEwAAAAAAcNQEFAAA8IKYAgAAYDB+JrlNiSYea48BAAAAAAC+noACAAB+401MMU1yUnUQAAAAn/GUEkwsIpoAAAAAAIBBElAAAMBfatruOaa4jJgCAACgD1bZBhO3lbcAAAAAAACVCSgAAOADxBQAAAAHa5VyaWK+no3va48BAAAAAAAOh4ACAAA+6UVMMU1yWncNAADAID0kmadcmljWnQIAAAAAABwqAQUAAOxQ03bnSa5SggoxBQAAwNf5mXJp4nY9Gz/WHgMAAAAAABw+AQUAAHyRTUwxTQkqzqqOAQAA6L9VkkVKMHFbeQsAAAAAANBDAgoAANiDpu0mKVcppkn+qToGAACgPx6yvTJxX3sMAAAAAADQbwIKAADYs6btRtnGFJdJTqoOAgAAOCw/U6KJxXo2XlbeAgAAAAAAHBEBBQAAVNa03cuY4rTuGgAAgL1bZRtM3NYeAwAAAAAAHC8BBQAAHJCm7c5TYoqrJGdVxwAAAHydu2yjifvaYwAAAAAAgGEQUAAAwIFq2m6UcpXi+ULFSdVBAAAAH7dKssg2mnisOwcAAAAAABgiAQUAAPRE03bPIcVlktO6awAAAP7IlQkAAAAAAOCgCCgAAKCHmrabZHud4qLuGgAAgCSuTAAAAAAAAAdOQAEAAD3XtN0o28sU07hOAQAA7I8rEwAAAAAAQG8IKAAA4Mg0bXeebVDhOgUAALBLDylXJhbr2fi28hYAAAAAAIB3EVAAAMARc50CAAD4pKeUYOL5ysSy6hoAAAAAAIBPEFAAAMCANG03yTam+KfqGAAA4FDdZRtM3NceAwAAAAAAsCsCCgAAGLCm7abZBhVnVccAAAC1PKRcmVisZ+PbylsAAAAAAAC+jIACAABIkjRtN8o2ppgmOa25BwAA+DKrbIKJJLfr2fix6hoAAAAAAIA9EVAAAAC/1LTdebYxxTTJScU5AADAxz1lE0ukXJlYVl0DAAAAAABQiYACAAD4K03bTbONKS5qbgEAAP7TczCxSAkm7quuAQAAAAAAOBACCgAA4N2athvl9XWKs4pzAACA5GcEEwAAAAAAAP9JQAEAAHzam6DiMslpzT0AADAAd9kGE4u6UwAAAAAAAPpBQAEAAOxc03aTvL5QIagAAIDPEUwAAAAAAAB8koACAAD4coIKAAB4l6eUWOI+ggkAAAAAAICdEVAAAAB7J6gAAIBXnoOJRUowcV91DQAAAAAAwJESUAAAANW9CCrON++zinMAAOCrrbINJu4FEwAAAAAAAPshoAAAAA5O03ajvL5QIagAAKDPHrKJJVIuTCyrrgEAAAAAABgoAQUAANALTdtNsw0qLmpuAQCAP7jL62Dise4cAAAAAAAAEgEFAADQU03bnef1lYqTinMAABiuVTahRJL79Wy8qLoGAAAAAACA3xJQAAAAR6Fpu0lKSPEcVpxVnAMAwPF6yOvrEsuqawAAAAAAAPhrAgoAAOAoNW03yjammG4+u1IBAMB7POV1LLGougYAAAAAAIBPEVAAAACD0bTdebZRxXlcqQAA4LW7lFjCdQkAAAAAAIAjJKAAAAAGy5UKAIBBW2V7XeLedQkAAAAAAIDjJ6AAAAB4oWm7SbYxxXmSi5p7AADYiadsrkpsnvv1bPxYcxAAAAAAAAD7J6AAAAD4g6btnq9UPEcVZ1UHAQDwJ3d5fV1iWXUNAAAAAAAAB0FAAQAA8AFN203zOqo4rbkHAGDA7rIJJVJiifvKewAAAAAAADhQAgoAAIAdaNpulBJSTCOqAAD4KmIJAAAAAAAAPkxAAQAA8EVEFQAAnyKWAAAAAAAAYKcEFAAAAHv0JqqYbD6fVZwEAFDbU0oksdi8l2IJAAAAAAAAvoKAAgAA4AA0bTdNiSkmm/dFzT0AAF9kle1ViUVKLLGsOQgAAAAAAIDhEFAAAAAcqKbtXgYV0837pOIkAID3uEuyzCaYWM/Gi6prAAAAAAAAGDwBBQAAQI80bTfKNqiYbB7XKgCAmlYpocQiJZZYrmfj+5qDAAAAAAAA4FcEFAAAAEfgF9cqJklO6y0CAI7QUzbXJLK5LOGqBAAAAAAAAH0ioAAAADhiTdtNsw0rnp+TipMAgH64S4kklimXJZbr2XhZbw4AAAAAAAB8noACAABgYJq2G2UbU0wirACAIRNKAAAAAAAAMBgCCgAAAJL8NqyYJDmttwoA2BGhBAAAAAAAAIMnoAAAAOCPmrabpsQUkyTTJKMkZ9UGAQC/8pTkfvM8RigBAAAAAAAArwgoAAAA+LCm7c5TYopptoHFeZKTaqMA4Pg95EUgsXnu17PxY71JAAAAAAAAcPgEFAAAAOxc03ajlJBikm1UMYmrFQDwt1bZhBFxTQIAAAAAAAB2QkABAADAXjVtN8k2qni+XjGKuAKA4XlKCSSWeRFLrGfjRb1JAAAAAAAAcLwEFAAAAByMX8QVz++LeqsA4FOeL0k8PyIJAAAAAAAAqERAAQAAQC80bfcyqDhPCS2en9NauwAgyUOSxySLzdeLlEjivtYgAAAAAAAA4N8EFAAAAByFpu3eXq14+T6pOA2A/nt7ReL5uV/Pxo+VNgEAAAAAAADvJKAAAABgEAQWAPyH3wUSy/VsvKwzCQAAAAAAANg1AQUAAAAkadpukuTl8zKyOKs0C4DduNu875M8vngLJAAAAAAAAGBABBQAAADwl5q2m24+PocVk2xjC5EFQB0P2cQQm+c5kMh6Nl7UGgUAAAAAAAAcHgEFAAAA7FDTdm/jiiSZbt7nSU72Pgqgv95ejhBHAAAAAAAAAB8moAAAAIA9a9pulBJTJNtrFsk2tJgkOd3vKoC9eg4jlpsnSRbP31vPxssAAAAAAAAA7JiAAgAAAA7Yi4sWL6OLSbbXLSYRWwCH4SHlQkSyjSH+dzEiyf16Nn58+5cAAAAAAAAA9kVAAQAAAEfiRWyRvL5s8fbzyZ6nAf20yvY6xMsQYvni+65FAAAAAAAAAL0hoAAAAICBatpuku0li5cXLpJk+uLzJK5cQN89ZRtAZPP5+RrEMoIIAAAAAAAAYAAEFAAAAMC7NG03ffHlJNsII3l97eL5axcvYHcesg0fktchxMsrEYkYAgAAAAAAAOAVAQUAAACwN03bvQ0sJnkdYCSvr19k8/NnXzYK9meV7aWHZ4s3X78MIhIRBAAAAAAAAMDOCCgAAACA3mnabpRy3eKt6S++N8m/I41EmMF/e3vp4dnbwCH59+WHJHlcz8ZvvwcAAAAAAABARQIKAAAAgDeatpvk19HFs+kf/onfBR6/c/GOnx2C38ULv7L4w58v8++rD89EDgAAAAAAAAADIqAAAAAAOAJ/EX3sy3I9Gy9rjwAAAAAAAACAt/4/xaA+Cnpbyv8AAAAASUVORK5CYII=;" vertex="1" parent="1">
          <mxGeometry x="60" y="230" width="50.73" height="40" as="geometry" />
        </mxCell>
        <mxCell id="Ryg6QgMLUXYhueZ2bqbR-27" value="&lt;b&gt;Table&lt;/b&gt;&lt;div&gt;&lt;b&gt;Lookup&lt;/b&gt;&lt;/div&gt;" style="shape=internalStorage;whiteSpace=wrap;html=1;backgroundOutline=1;" vertex="1" parent="1">
          <mxGeometry x="650" y="575" width="90" height="80" as="geometry" />
        </mxCell>
        <mxCell id="Ryg6QgMLUXYhueZ2bqbR-28" value="" style="shape=image;imageAspect=0;aspect=fixed;verticalLabelPosition=bottom;verticalAlign=top;image=data:image/png,iVBORw0KGgoAAAANSUhEUgAAAgAAAAIACAMAAADDpiTIAAABhlBMVEUAAACFsfd2pveRufivyvmEr/hOjfV0pviCsvdmnfaPt/iuy/qBrvdChfRFh/R/rPhPjfWArfhZlPVjmvZJivRTkfVemPZOjfVYlPVjm/ZJifRUkPVel/VEh/ROjvVim/ZTkPVlnfZdl/VEhvRimvZIifREh/VOjPVYk/ZIivS1z/rK3fzb6P3n8P70+P73+v////9EhvW0z/rQ4fzu9P5NjPS20Pr8/f9Xk/awzPrT4/z7/f+60/vv9f7H2/z7/P9Sj/XO4Pz+/v9cl/VmnPZOjfRHifW20PtSkPVdlvVDhvRXk/VIifXo8P7o8f75+//9/v9hmvZHiPVRj/Vcl/ZlnPZWk/VhmvVclvZknPZMi/RWkvVblvZMi/VgmfVGiPRDhfRhmfVHiPRRj/RknPVgmfZGh/RQjvRChvRLi/VVkvVfmfZblfZkm/VQjvValfVfmPZkm/ZKi/VPjvVjnPZLivVVkfVKivRUkfVFiPRZlfWCr/eGs/h8q/iUuvmvy/qTufmEsPiWcXuNAAAAgnRSTlMAXOvPuNL6mHr///////+w/6//////////////////////////////////////////////////////////////////////////////////////////////////////////////////////////////////////////////Ss6rj6huTLo7GgAACFRJREFUeAHs0oMRAwAABLDato39N+wI9emTGVJ4CwAAAAAAAAAAAAAAAAAAAAAAAAAAAAAAAAAAAAAAAAAAAAAAAAAAAAAAAMXSy8oVfq5ae1m98A+N5sta7Z+j031Vry9AdIDBUIDoAKPsAAKMowMIMGlGBxBgmh1AgFl0AAF6zegAAsyzAwiwyA4gwDI6gACrZnQAAdbZAQTYRAcQYNuMDiDALjuAACMBsgPsBYgOMGkKEB3gIEB2gI0A0QG2RwGiA8ybAkQHWAiQHWAvQHSASVOA6AAHAbIDnASIDnA+ChAdYN4UIDrAQoDsABcBogNcmwJEBzgIkB3gJEB0gNtRgOgA9we7dHEdMRQEAfD8kzCzBb0sXmbMPxrfzdKM3ix0xVDuogMwwAsDXHaA64sOwACvjgEuOsANA1x2gDsGOA5v754fhPgiDHzv/a22AI1bxwD2mq02ftVuNesJ0HEMYK7r9fCnntetI0DEANbiJMW/pEmsH+CaAYxlOf4tz7QDPDoGsFX0UUK/UA4wYABbwxFKGQ11A4wZwNQQpQ01AzQmDGCpGKG0UaEYYOoYwFDWRwX9TC9AxACG4hyV5LFagAcGMJSgokQrwMwxgJ15iorSuVKABQMY8lCZpxRgyQB2mj1U1muqBFjdMoCdFgRaKgE6jgHstCHQVgmwZgA7bxB50wjwwAB23iHyrhBg4xjAjgcRTyHAggEMbSGyVQgwPukAO2PSAAFEAnmA1e1JB4AxaYA9RPbyAB3HAIYBDhA5yAOsGcAyAIQ+2LuL7bqOKAzC4aw9MTMzCtpsoZnZFl/JYmYzhd488+CVztFqS1X1DN+w+9/FATxDAxDA80ADEMALNgABtKEBCOB+OxqAAC4EGoAAOtgABNCJBiCA24EGIICrbAAC6EIDEMDhbjQAAfQEGoAAKmwAAuhEAxDA7UAD8EHICzYAn4T1rgEANZlbzY9C77evfgAF8ll4X6AB+DGkwgbg17CXaAB+Du0PNAC/h79gA3AgogsNwImYgXY0AEei+gINwJm4ChuAQ5GDaABOxQ4FGoBj0cNsAM7F96IBeDBiYAQNwJMxfYEG4NGoChuAZ+NG0QA8HDkWaACejh1nA/B4dC8agOfjJ0YEAOrvACYDDUAAU2wAAphGAxBAf6ABCGCcDUAAM2gAAhiYRQMQwGSgAQhgig1AAKNoAALoDzQAAcyxAQhgHg1AAAPdaAACmAw0AAFMsQEIYAENQADrAg1AAHNsAAKYRwMQwMAiGoAAXgUagACm2AAEMI0GIICxQAMQwGs2AAHMowEIYOANGoAA3gYagADesQEIYBoNQADrAg1AAHNsAAKYZwMQwCIagADeBxqAAD6wAQhgGxqAAD4GGoAANrABCOCTANB93pkZwJdfqu7X36z0fv+l6v74xszMzMzMzMzMzMzMzMzMzMzMzMzMzMzMzMzMzMzMzMzMzMzMzMzMzMzM1mrffld13/9gpffjT1X3s2PRa/Z8fDWtW48GIIANzsWzAWxiAxDAZjQAAWwJNAABbGUDEMA2NAABrAs0AAFsZwMQwA42AAHsRAMQwK5AAxDAbjYAAexBAxDA3kADEMA+NgABbGIDEMB+NAABbAk0AAEcYAMQwB40AAHsPYgGIIDtgQYggB1sAALYjwYggC2BBiCAA2wAAjiEBiCAwwfRAASwPdAABLCDDUAAR9AABHA00AAEcIANQACH0AAEcOwgGoAAjgcagABOsAEIYD8agABOBhqAAA6wAQjgkAC+jk6drqmtq09/q76utub0qRUDcOZgCCB/Z8+dT//Z+XNnVwbAhRBA9i7WXEr/26WaiysB4LIActfQ2JSqqqmxoXwA+wWQueaWVHUtzWUDOBoCyFvrlbSErrSWDOCqAPJ27XpaUtevlQvghgCydi0tuWtlAjhzUwA5a72eltz11hIB3AoBZKz5SlpGV5rLA3BZABlraEnLqqWhNABHBJCxxrTMGssCcDsEkK87TWmZNd0pCcBdAWSsJi27mpIA3BNAvs5eSsvu0tlSANw/KIB8nUsFOlcKgAshgHydTwU6XwqABwLI16lUqFNlADgigHydToU6XQKAhyGAfNWkQtWUAOCuADL2KBXqUQkAbqxqAI8zVxRAXSpUXXEA9w+uagApc0UBPEmFelIcwIUQQEYAT1OhnhYH8EAAOQGkghUH8AwNQADPAw1AAC/YAATQhgYggPvtaAACuBBoAALoYAMQQCcagABuBxqAAK6yAQigCw1AAIe70QAE0BNoAAKosAEIoBMNQAC3QwDoByEvBMB+Eta7BgDUZG41Pwq9376KARTPZ+F9IQD0x5CKANhfw14KAP05tD8EgP4e/kIA7IGILgGgJ2IG2gWAHonqCwGgZ+IqAmAPRQ4KAD0VOxQCQI9FDwuAPRffiwbgwYiBETQAT8b0BRqAR6MqbACejRtFA/Bw5FigAXg6dpwNwOPRvWgAno+fGBEAqL8DmAw0AAFMsQEIYBoNQAD9gQYggHE2AAHMoAEIYGAWDUAAk4EGIIApNgABjKIBCKA/0AAEMMcGIIB5NAABDHSjAQhgMtAABDDFBiCABTQAAawLNAABzLEBCGAeDUAAA4toAAJ4FWgAAphiAxDANBqAAMYCDUAAr9kABDCPBiCAgTdoAAJ4G2gAAnjHBiCAaTQAAawLNAABzLEBCGCeDUAAi2gAAngfaAAC+MAGIIBtaAAC+BhoAALYwAYggE8CQPd5Z2YAX/5kD44NAIBgAIA5HPjcCdCOSdq1Pkg327VVAAAAAAAAAAAAAAAAAAAAAAAAAAAAAAAAAAAAAAAAAAAAAAAAAAAAAACAV3sjG4wCADKjYV05yzSqAAAAAElFTkSuQmCC;" vertex="1" parent="1">
          <mxGeometry x="160" y="720" width="60" height="60" as="geometry" />
        </mxCell>
        <mxCell id="Ryg6QgMLUXYhueZ2bqbR-29" value="" style="shape=image;imageAspect=0;aspect=fixed;verticalLabelPosition=bottom;verticalAlign=top;image=data:image/png,iVBORw0KGgoAAAANSUhEUgAAAgAAAAIACAYAAAD0eNT6AAA3X0lEQVR42u3dCZgdRb33ccK+h+UKooCIoCiyXmRRRIJckO3KNiAKkuV090xirkZRRBFGIexrIIGT09UniWEbSQIIvAp4g4iASYCLCEICAgpIIGSZOVV1ZiZJv1UzAwnJzGSWs3X19/M8/weQCGRq+/VWtd56AAAAAAAAAAAAAAAAAAAAAAAAAAAAAAAAAAAAAAAAAAAAAAAAAAAAAAAAAAAAAAAAAAAAAAAAAAAAAAAAAAAAAAAAAAAAAAAAAAAAAAAAAAAAAAAAAAAAAAAAAAAAAAAAAAAAAAAAAAAAAAAAAAAAAAAAAAAAAAAAAAAAAAAAWEMmV9ixPq93W70yOXVofU4f2W2F8oA1f72fXTyUnyQAAFXSMGnptnaBDkJ5kh/qc71QX+CH8tJAyLwv1CwvUrPNHxeYettUXIZaaeo1X+jnO/5dobrTEzI0f32xH6lx9r/JF8VjMrnWz49rijejxQAA6IPRE+Mt/Xxhn44FPlL/YxbY6wKhZpo/PmsW3iVlWtTLWe8EkXrS/PGOIJKXmfJtQAjyxT0bG+MNaXEAQOr4+da9gpw61RfyV/bqvevKPU5RtZl6zgSd27xQneeH8gQ/K3eiZwAAnFDXFG9sn7mbRe77fqhzZtGba0qmbLHvT73f9SjjxkDoUd7klr3pRQCAmjc8v2Sbjlv4Ql0ehOox80fFoj7IitRiU/f5Qv80k9df5f0CAEDVjQr1p+zLb+ZqdbIf6b+xYFekWk095Ql1rR/Kk23ooicCAMpq7IR4Ey8qHt2x+Aj1dxbjmqjlpj0eD0J9oZeXX6KXAgBKoiEq7u5HssEX+n6z2BRYcGu+FnpCTvVD9e0xU5u3pwcDAPrMj9QhQaSuNovJfBbURNcKU0/YPRMyOf1pejYAYC2ZnPxPL1JXdG52w+LpaM3p+Owwq3elxwNAqhf9wr5eJC/xQ/UKi2Pq6s+mflA/VX2SkQAAKTBSyE/4kf65mfxfYhGkurY4/qMfycw50+ItGCEA4JC6pniDru/z7zXVzqJH9VAtvtBZviYAgITr/E5fXmom9jdZ3Kh+VccZDHIM+wwAQELYg2aCSJ0eCP27rtu7LGbUYErZzwq9SH2Z0QUANWikiLcKhPqhH6k3WLSocn1F4Ieqzj5SYsQBQJXZt7g7v9nXS1mgqArVa/aAJ3uEMyMQACrMyxf2N1djv+46WpZFiarKQUUde0dwlDEAlF+QK/6XL+TDLEBUTR1QFMkpmVzr5xmhAFBi9Tl9ZNcRuyw4VM0eTGTvSo0Ki3swYgFgkOzb12ZifYTFhUpQtfuRFPV5vRsjGAD6e6tfyIN8oR9kMaGS/GjAE/oWthsGgD7w84V9vFDdw+JBOVRFUzdmcoUdGeEAsIb6aS07eEKGXUe4smhQLlazPZp47IR4E0Y8gNSra4o39iP1E1/IZSwQVErq1SCnTmX0A0itIJLfNJPhAhYEKo3lRWq2PZKamQBAem73hy1f5M1+iur6dFDorJ9t/g9mBgDO8rOLhwZCTeRIXopaq5aY+gHnDABwb/EP5clmgnuLiZ6ienksINRfeCwAwJGrfrmTmdjuZnKnqD5Xmy/keL4WAJDcxT+Sma5bm0zqFNX/ejmT119lJgGQGHYvdPuGMxM4RQ26VvqRvtW+P8PMAqBmNTbG65sJ68emFBM3RZW03vJDeQKzDICaMzpSu3DVT1Flr5vHNcWbMeMAqAl+qOr8SC1mcqaoSpR8wcsX9mfmAVA1I0W8VSBkngmZoip/0mAg1A/Xi+MhzEQAKnvVH6lDzJX/K0zEFFXVuwEPjxTyE8xIAMrO7lTmC/0LdvOjqJqpRXajLWYnAGUzZmrz9l4kH2LCpaiarGsaG+MNmakAlPiWvzzQTDCvM8lSVG2fMFg/rWUHZiwAJRFEeoSZXDQTLEUlov6VyalDmbkADFhdU7xxxy5kTKgUlcCvBGQ9sxiAfjNXEDubSeQpJlKKSm7Zz3SH5+NNmdEA9O2Wf6iPMJPHQiZQinKinraBnpkNQK88ob9jJowikyZFuXWWQH0oD2CGA9DTlf+FHaePMVlSlIvVEuTl8cx0AD5kvx32hYyYICnK+Wr3I9nArAdgPXvOuJkUHmFipKgUvRwYqavt8d3MgEBqF3+9qy/080yIFJXCTYOE+g1HCwMpZF8IMpPA20yEzpV9h+M1G+zsrnDmz++wn4J9UH6kbjJ/7+JuK9S5j/xaoWZ1/TPm01ecvRPwpN3imxkRSIlAqMPM4F/CBJi8l7g67thE6j5z9TbBHgdr/niKl5dfqs/r3fxsvHm5+86ocNl29t+VyeuvmsXjLC/UFwRCT+46I2I+h0QlsfTzo/OFjzMzAq7f9hd6WOdCwsRXywu9Wdj/4gl9i1nkx9p9GUZELR9L1KOlUJ7gheo88/u43fx+njPVRrvWdM237cYMCbi6+JtJ2Qx0xWRXU6WCUD3mReoKe6TrqLC4h5N9LxtvlMkV9g0ifbb5Pd/sh+pZPjmtuXrd1f4HpPu2f6ROt/uDM8lVvd61z9bt7Xt7YIs9byGtfXLs9HhrLyoc6wv5q64vUbgzVf16O4hav8CMCbiy+Av9XTOwlzO5VaXsre9H7bNyL1/Yn97Ys47Dp4Qe1nE3hK9Tqlnv2eO/6ZFA0m+9RrLBDOgVTGoVrTftG/WeUKeNFPFW9MKBsfvXm/A6yn6uZn6mzfSritYSE8S+TC8Ekrr4hzLgOWvl9lo3daO5cj2cnleGxwUT4k3sOxJ+pG4zP+cC/a0i1VwfqoPpfUDCeKE+hyv/stc7fqgmeZH+2npxPIReVxl28xr7Tksg1F2mDST9sKz1fiAK+9HrgIQIcupUvscu4zP9SM3whDyurinegN5W5btc2XjzINIjTLs8Qd8sWy1sEMXP0duAWr/yNwsTb/uXpRYEoTo/kyvsSC+r0b4/uWVv007Xm1pEfy15/SuT05+mlwE1qj6nj+Q7/xJf7Yfqzkykj6J3JYd9X8DuUmj3V6APl7RerZ+qPkkPA2rtVmikDuE76lKVXOYJde3oSO1Cz0q2QMiDut4V4JFYaerv9dNadqBnATUzyRX2MwFgMZPT4G9zmvqRPSKZXuXY3bG83i2I1A2E5JLU/w3PL9mGXgVUmf1WumvhYmIa+BX/ix1b1GbjjehRbmuYtHRbX+ifdmx2Q98fTD3CeAGqyG4yY9M4k9HAX+yzn0vyNn86x04Q6gu5czaIo4SFzNOTgCqwi5a5kvl/TEQDqtfsDnONjfGG9KR0s7eyO88ikMsYF/0vL9IX0YuACjOLf5YJqN/1b7s1cpoP4EH3xkxt3r7zDAKlGSf9qpX28Rk9CKgQ+z06E0+/qmjqcvblx7rYlwX9SDUxZvpVrfYTZHoPUGaeUGewxW8/KlIzGqLi7vQc9C9k6yNM/3mGMdTncbbYz7fuRc8ByjUpCXUYtyj7XM/Zo2XpNRioxsZ4fT+SGbsVLuOpT/UPP9v8H/QcoMRG5wsf7zpxjomm9yqYq5FxvNmPUrH7QnhC38LJmn37PJCxB5T2SmRDM7D+yOSyrs+S9O/sM1x6DMohk9dfNf3sJcbaOipUV9JbgFJdgXQecMLE0nMtst/z01NQbvacAV/I8R3nRDDuevwywBPqNHoLMEj2UBMmlF6+Qxbq9hFRy8foKajo3YBcYV/T/+YwBnus5kyu9fP0FGCgV/75wj4dz7SZTLqrJSYcnUkvQbXYR3NeJC8xfXE547H7g4P49BYYgM4dytQCJpFu61E/q3ell6AmgrrQh9vdJRmX3X+GSw8B+iOOh5iBcx8TyFrV5oX6Avt5Fp0ENRUCsouHmjF7G2O0m5dzQ3U+PQTo62QSqXFMHGvVfHu2O70DtcwT+jucK7BWtWdy6lB6B7AOXS8XFZk0PlL3jp0eb03vQBI0iOLnTAh4gXH7kU8DX+F9AKAXw/Pxpn6k/8aE8WEtNz+Pn9tHIvQOJMnoifGWnCnA8cFAn5kJ4yYmilXf9vuieAy9Aoke00L92N4CZzx/+NnuGfQKYA1BXh7PVqMf1jPs6Ad3QoAexnkCqw4NGh2pXegVQJf6aS07mMHxDhOEvU2oZvrZeHN6BVwyKtSf4r2ArrsAkZrNlzzAqiuE+5kYOm4PXsvEAFfZvT1MwP0DY92W/ik9AqkXCFnPZKCW+6H6Hr0Bzof9bLyRH8kpjHnV6uUL+9MjkFr1U9Un+WZYtXiRPJHegJTd9bs49Y/7IjWPo4OR4klA3ZvySWBhJif/k56AdN79099N+xcCXqjOoycgfYt/qOpSvvi/6edb96InIM08oU6xt8NTPA/Ihqi4Oz0BqdEwaem2puP/O8WD/h8MeqDrTkBY+IZdCNM7H8iH6QVIz9V/JEWKF/+XMjm1M70AWO1OQKS/ZsZGc3q/ANLD6QVwXibSR6V4w5/n7J4H9AKguwsDdYjdKCelc8P7mVxhR3oBnDWuKd7MHoqR1sV/VLhsO3oB0LP6UB5gxsqSlB4YdCc9AO4m/FBemtbb/lz5A30TCHWY/Tw2nXMF53/AxWSf17uZDq7T+MIfz/yBfl4sdJ4foFL4QuALjY3xhvQAuDWg03k06Ju87Q8M8E5A5wFhqftEMBBqLK0PdwZyqI9I4eL/Lt/5A4OcOyJ1esdW2Sl7IZD3heAEe7iNPd42ZQO4wA5/QGl4QnopPDb4JloeiedHMpO2g33Y2x8o8Twi1OUpm0favckte9PySKyx0+OtTUd+J2Wf8nCqH1BqcTzEjK87UvZC4O9peCQ5tV+VssX/OlodKNMFxYR4EzPO/pSqFwJDeRItj8QZFepPpekN3kComfZ9B1oeKJ8xU5u3N+NtfopCwN85MhiJ4wkZpmiQPm13OaTVgfIL8sU9U7VbYKjPpdWRoKv/4h6m47alZIAuspsc0epABS8wInmiGXsrUvJo8RU/G29EqyMRTKedlp43/gvH0uJAFe4EhPKX6TktUHq0OGp/8c+37pWajTsi/XNaHKiOzj1G9IMp2RfgjbqmeGNaHbUdAEJ1ZyoSeajusZ8m0eJA9TRMWrqtGY+vpuSzwDG0OGr46r+wT0qey833s4uH0uJA9QWisF9KDhp7i5eNUcMDUc1MwSBsC4Q8iNYGamruGZuSRwHjaG3UnPpQHmA66Er3b/3rC2htoMbE8RAzNh9IQQh4h7sAqDkmmd6WgsH3KJv9ALUpkyvsaMboQvc3HZP1tDZqZ/HP6l1T8N3/Evv7pLWBGp6LQnlCCu5EvsyFCGqGJ9S1zqfuSJ1JSwMJCAFC3ez+fCS/SUujBq7+Fw/1hVzm9iYc6nZaGkgG+4zc9fMCglA9Rkuj+lf/oTrP8bT93oio5WO0NJAc9Tl9pPOPAiJ1CC2NKl79xxuZjvhPx9/6P4eWBpInEHqy4wGgiVZG9QZYpM92+21b/TtaGUim4fkl25hx/LbLZ5E0RMXdaWlU5w5AqJ51eHAVOOUPSPhFSk6d6vj7SRNoZVR+8Rf6cMef/f+AVgYcCAFu71DaPHpivCWtjMoGgEhOcXhQPVfXFG9AKwPJl8mpne0dPYcfVY6ilVG5xb/j0z8l3Q0AehitDLjDi/RFDu9R8iQtjMoNplCOdvjN2hm0MOCWjr0BIvWGs/NWvrAPrYzK3AFw9+W/Im/VAq5euKhv8TIgMAj2KFyHn/1fTgsDDocAoR539M7l4uH5eFNaGOW9+hc66+ji/++RIt6KFgacv4BZ4ea7APpsWhhlYz83sZ+duJmgZQMtDKTiLsDtrh5XTuuifAMn1CMdHTiv1TXFG9PCgPsaRPFzdhc9B+exld7k4mdpYZSF6WCP8B0tgMTPZc7uY6IvpnVRcplcYUdHU/OCxsZ4Q1oYSNFdgKi4uxn7be7NZ/IFWhcl5+q3/5z2B6STs6cFsicASn7LTKhHHUzLL5qr//VpXSCFc1pW72r3/nDuoiaSl9C6KJmRQn7CxU9n+GwGSPuFjZOfNb9My6KEt8rUWAcHyT/9bLwRrQukV9cXAc5d3Hj5wv60LkrCxd2zvFCdR8sC8CN1H7uaAt3oOkpzpWPP/pfZEw1pXQBBqI9wLgCE6hVaFqVIx+McPDjjWloWwIfznFBzXJvnMjn5n7QsBjswXNv8p82+/UvLAvjwLkCkznTvawB9ES2LAeva+9+1z2TuoGWTYczU5u0DIfOlLtMHrrI7ppWlsnInWi556priDfxIveHWV07qSVoWA0/FoTzJwa0yh9GyyTAq1J/itisqd7fThjin5rvlNkTTshjYgAjVJNe2/V0vjofQsgQAAgDWuuMZqV1c2+48iNRZtCwGmIjVP5waDKE6n1YlABAA0MtdgPvdeuFZTqVV0f+BkG/dy7WX/+yBRrQsAYAAgJ7vesqTHZv33uGuJwZy9f8DpwZCpGbQqgQAAgB6Y08GNe34Np8DIuUBQP7esVthx9GqBAAmW6xLEMnL3Lr40T+nVdFn45rizUzH0S7dBrOf+dCyBAACANYdAFq/4NhjgD/Rquiz+pw+0qmX/4SaSKsSAAgA6PsdUP1Xh+bAVntRR6uib50/0j93bEesr9GqBAACAPp8FyDUF7r1BZQ+glZFX9Pvgw51/rcaG+P1aVUCAAEAfeVNLn7WsQ3QfkqrYp3sYmk6zBKHOv+NtCoBgACA/l8IqWccegz6W1oU61QftnzRpeRbH6qv0KoEAAIABnAn9KcOzYXvsx8A1t3pQxk41OnfpNMTAAgAGNBcOKX4Gbe2BW79Aq2Kdd32muZMpw91jhYlABAAMIj58CWH9kLxaFGsq8O/6kzizalTaVECAAEAAxVE6gZ3NgSSU2hR9Lz4Z+VOLu3972cXD6VVCQAEAAyUFxWOdeo0VKDHtBvKkxzq7I/SogQAAgAGY3g+3tS0q3RkTlzZMGnptrQqur8D4NQGQHz3SgAgAKAEdwFC/QAbAsH9ABCqO5154SVf2J8WJQAQADDoO6NCjXXnwkiOoUXRfQAQ8kVHOvpCPv8jABAAUJJ5Md+6l0N3RrO0KNbS9ayr3ZFdr2bSogQAAgBKd3Gk3nMkBDxBa2LtDh7JAx16AfBHtCgBgACAEgaAex2ZG5u5O4q1O3ioz3Vo3+vDaFECAAEApbtAUj9xZX5siIq706L4CE+oax3p4KquKd6YFiUAEABQKvZMEXd2SJUn06JY4xaXfNiNz1zUY7QmAYAAgFIaOyHexLRv0ZEXAX9Bi2KNAKDediThXk5rEgAIACjDXdLHHXlEehetiVWLfzbe3O4S5caBF+oUWpQAQABAyefJUF3nyEXSXFoTH7LHRDrzfGtK8TO0KAGAAIDS3wHQwx2ZJxfRmlgVAPLyeEc6dgufuBAACAAoB9u2rlwojRTxVrQoOpNtKEc78WwrUk/SmgQAAgDKwaXN0vx8YR9aFJ13ACJ1NdtcggBAAEDvTBv/3Y2vpeRJtCY67wAI9Rs3vm9V36M1CQAEAJTtYkmou5yYKyP1P7QmPrgDMI+jLkEAIABgHXcAXDkyPVTX0Zr44LbWIhc69Yio5WO0JgGAAICyXSzl1KmOvAg4i9bEemOnx1s78wUACAAEAJT1DoAjh6aF6llaEw6dda2fpzUJAAQAlFPDpKXbOnLB9C6tifXMwnm4Iy+13EdrEgAIAKjAnLnUgTlzeWNjvD6tmXJBJL/pyBbAE2hNAgABAGUPAKF61oU5c1S4bDtaM+0BQOhRjtwBGEdrEgAIACj/HQA1y4mvpvLFPWnNtHfmSP2EQ4BAACAAoM93AJw4FCgQ6jBakzR7lRudWR5EaxIACACowEXTOCcumiJ5Iq2Z+s4shQuduT6vd6M1CQAEAJSbF+pz3LhrqofTmqnvzOoeFzrz6InxlrQmAYAAgHJz6PTUH9GaaQ8AQj3uQEcu0pIEAAIAKqE+VAe7cXqqvIzWTDlHTrd6i5YkABAAUJE5c0rxM268N6Un05oEgH860JmfoyUJAAQAVGTOzC4e6sin07fRmgSAdxzozP9LSxIACACoiDgeYtq6zYFPp39DYxIAljgQAO6mJQkABABUcN5cyPbpcKEjSwdOtvo1LUkAIACggvPm6w68A/A7WpKOvDz5SVYKWpIAQABABefN+cnfCEjNpiVTrK4p3sCRs60n0ZoEAAIAKhYAIv03B+bOP9OSae7E2XhzN75nVTe41C4z57bFtVQz/tJalXMWCACo4TsATzswd86lJVNseH7JNo7cAbiSAEAAIACgUsxFx5PJnzv1X2nJFMvkCjs6cqjFJQQAAgABABW8A/CoA3PnS7RkqgOA2tmNPa31LwgABAACACrFXHQ85MDc+Q9aMs0pNit3cuMOgL6IAEAAIACgcncA5MMOzJ0LaMkUGzO1eXs37gDI8QQAAgABABV8BPBHB+bNF2jJFBsp4q0c+QrgagIAAYAAgEpx4yVA9QwtmWJ1TfHGjpxrfSMBgABAAEAF7wC48BngU7QkHXll8ncC1LcSAAgABABUbt7UzzsQAP5ISxIAig48y4oIAAQAAgAqOG++7MC8+TAtSUdu5lxrAgABgACAfs2brznw+fT9tCQd+T0HbmXNIgAQAAgAqOC8uSj5pwGqmbQkHfmtxHfkUD1GACAAEABQCY2N8fqmrVc4cOF0B61JAHjVgWdZLxIACAAEAFSCM/unRHIKrZlyQaTmOdCZFxIACAAEAFRkzswX93Tk8+nrac3U3wGQv3egI7evF8dDCAAEAAIAyi2TU4c6sYFaqC+kNdMeACJ1mwuduWHS0m0JAAQAAgDKPmeG8gQnAoCQ9bRmynlCTXChM48Ki3sQAAgABACU/RGA0N914hFAqOpozdQ/AtAXu3EioPoyAYAAQABA2QNAqM535Bj1YbRm6gOAHOPIgUBnEQAIAAQAlP+uqb7FhTkzkyvsS2umvTOH6ltO3AEI9QUEAAIAAQAVuGv6oAtzZv1U9UlaM+0BICoe7cYLLXoyAYAAQABABe6avujCnDl2QrwJrZly9aE8wI13AORDBAACAAFgrb704sx5ba/VTM1t/WLyA4AqODBntrD6YT17G8iRTS0WEAAIAASAtfqSrKW+NOvptkTfIamf1rKDI/Plq6x++GBfaweOBFat9vdCACAAEAAIAOXi5eWX3Hhkqv7A6ocPbmnNdyLVZvWuBAACAAGAAFAuQaTPduQcAMHKh85UG8mHnHgPQMjjCAAEAAIAAaB8c6W6gm2A4dgdAJ11o1Or8wkABAACAAGgjHPl/W7sm6LPZuVDZ6oN9QWOPNeaTgAgABAACABlfFz6uiO7AB7OyoeuAODGZkCmU/+VAEAAIAAQAMph7PR4a9PGK9kECE5x5XhL+yVAXVO8MQGAAEAAIACU/EIpUl92ZJ4suvLFFEpgdL7wcUc6thP7WxMACAAEgBq8/R/KwJF58mVWPawSx0NMp5COnAlwDgGAAEAAIACU/A6AkKEbAUD+nkUPa6Rb9awjLwJOJAAQAAgABICSz5FCvuDIHYAbWfGwZrqd6kjn/j8CAAGAAEAAKKWGSUu3Ne27wpFNgDKsePhoAAjVeY4EgOX2bV0CAAGAAEAAKOEF0nGuvCdVH6qDWfGwxu2t4jGudHAvKhxLACAAEAAIACW8/f8rR+bHFedMi7dgxcNHO3hW7uRKAAhC+UsCAAGAAEAAKGEAeNiR+XE+qx166OTqXUc6+SMEAAIAAYAAUAqNjfGGpm2b3Xj+r2aw0qGnAPCIIwGgJckbAhEACAAEgNpRH6qvuHJ31Bf6YlY69BQArneoow8jABAACAAEgMGyjxSdeTyaU6ey0qH7jh7pEe4EAHUVAYAAQAAgAJTgwugpV+bFUWFxD1Y6dN/RI3mgQ3cAEnswEAGAAEAAqA2jwmXb2U+LHdkBcBlnAKBHXS+7tDgSAlZmcmpnAgABgABAABgoT6gz3Pk8Wj7EKod13e56xJm7AAnd8YoAQAAgANRKAHBl/39eAEQfuPTCi6m7CQAEAAIAAWBAOg9Je8udOwDFo1nhsI47AO7sCGifeY2dEG9CACAAEAAIAP3l1ud/qn30xHhLVjj0yu6j785LL6ZCeTIBgABAACAADOBxqEOfRaunWd3Qt47vyNHAHbe9hLqdAEAAIAAQAAZw+/+fDs2DE1jZ0CeBUBMdSr4t45rizQgABAACAAGgrzI5dahDc2DshepbrGzo6x2AbzvV+YU6jQBAACAAEAD6cfv/GpfmwNGR2oWVDX3r/Fm9q0ud349UEwGAAEAAIAD04/b/6w7Nga+zqqG/CfglhwaATNIZ2AQAAgABoIqPQEN9hFMXQKHOsaKhf4MgUje4NAjsOQcEAAIAAaCqpWfMi3eq+YufSE7hEShSzYsKxzqVgoX6MwGAAEAAqGI/mtN6Sa2Pva7PoAsOzXttfnbxUFY09MvwfLyp6TzKqSQ8uWVvAgABgABQjWr/1++fq/3HcEEkfccufP7IaoaB3QoT+kHHBsP1BAACAAGgCs/+57aelYw5z52jfzs//9MXsJJhYGlYqLGOBYBFSdga2Fwt3UMAIAA4FAD+lIjHnpNb9nZsvou9fGF/VjIMLADki3u6NiCCSNX8lcg9c9QuZtJsIQAQABwIACtmzGs7MBHznWMvPpt6237SyEqGwdwSW8AzsSpM3PPaf0gAIAAkPQDMmtuWiC1oO1/+k8vcmutkxAqGwQWASN3k3m0x+aVa/7k3NcUbmAn0WQIAASDBAeCVJLz41/W484fOzXNCncEKhkHeAdDDXBsYfqjuTMLP/p55bYfYW6gEAAJAAgPAihlz2o9IwjirM2HbtN1rjs1zaqSIt2IFQykGx78dGxzt9Xm9WxJ+/jPmtt1EACAAJC4AzGu7ISlzXBCp0527yInUDFYv8Big55cBEzFB/XZevLmZUP9OACAAJCYAzGubb/ttcu5yqj9z+x/oQSavv+pcQhaqZXh+yTaJuAswr+1AM7G2EgAIAAkIAMtnzG3/SoIubg5xcG4rJOnsE9S4xsZ4fdOp3nQuJSdok4yZc9t/TAAgANR6ADCL/8+SNLcFQv3WububQt3FqoVSPye7wcGk/F5SXpRpjOP1Z85p+wMBgABQuwGg9f44Qd+d26+BTJutdC4A5NSprFgodVI+zMEAEAehvjApbdD0hPqkmWjfJwAQAGouAMxre63piXi7JM1pvtD3OzinNY9rijdjxUJpmWTvR+oNB9+WXZyUdwGsu59uP9Y+ZyUAEABqKAAUZ8xp+1KSprP6UB3s4tW/mc9uY7FCuR4DXO3iXQBfyF8lqR0q/T4AAYAA0Otuf/PaGpI2l3mhfsDFucwT8r9ZqVCeQePgYRldAWDZmKnN2ycrBLTdTgAgANRAALg1afOYo2/+xx37tWTjjVipUL7B4+A3s127A16ZpHZoeiLezEy+TxMACADVCgCz5rY+YLesTtyFTKRmO3n1H6krWKFQ5scAeoSj6VknZXfAD0PAPL3rzDltCwkABIAqBICnm16It0zcBUwoT3Z0/lo5KizuwQqF8g6gbLy5L/RSJwdRpJqS1h6z5rYdPGNuW4EAQACoYAB4fca8eKekjZW6pnhj00bzHQ0A/8vqhAqlaDXJ0UFkPws8ImntMWte+zHl3CmQAEAAWK2W3D2nde9EzluRGufsvBWps1iZUKGBJA90dSCZesbufJi0Npkxp/XMcp0cSAAgAHRVS5K2+V2dfcnXfvLr6Jy1aOyEeBNWJlSMSZzznA0BkcwksU3s51gEAAJAmQJAyz1Pt381qfOVJ9QEhy9armdFQmUDgJD1Dg+ohX528dAktsuMee2/IAAQAEoZAOw7JjPmtB+R1LnKyxf2t0eAuzpf2c+zWZFQUWOnx1vbbSfdvQugb01q28yc034RAYAAUKIAIGfNbT8yqWOh6yCzOQ5frPyJ1QhV4YfqOocH1ookvhC42p2AHxEACACDDABy5tPtRyV5jvJC9X2H56jYE+oUViKsV8UJut3hAfZSkl+umTGnbXQpXgwkAKQyALw74+m2Q5M8P42O1C5O36UUakESX1iGS3cBhLrD5YTth/LSJLfPzDltIwZ7eBABIHUB4JW7nyrumfi5KVL3OX31H8rRrECoqkDIg5wOAEK1ZXKFfRMdAua11plJXREACADr3t63be69T8U7Jn5eitTpjs9L79lN2ViBUHWu7q29Ws1pbIw3THIb2du5ZoJ/hwBAAOi5Wh/8/XPxFkmfj+qntezQ8SWP03NSsk4whdMBQJ7oeABwYsDNeEZ/ykz0zxMACADdfOp30+zZyQ65q+5Kqt86Ph/pTK6wIysPakMcDzEL5IuOD7rlvtCHJ72p7n083spe6REACAAffuY3p/VsV6YiP5SB8xcjoc6x6KC2Bl4kM+7fBVCvJXWDoNXZI1xnzW27ngCQ7gBgrvoX3P10676uzEHe5OJnTRsUHJ+DVvj51r1YcVBTOk7aitQbzoeASN3mSpvNnNN6qj3chQCQvgAwY277fU3z4qGu9GU/G2/k+IY/H3z3/xtWG9RmAhfSS8FdADMI9XdcabNZT+rdzIIwhwCQmgDQOmtu+0/iOB7i1B3IUF6agrlnRRC1foGVBrWcwl9NwQuByxpE8XOutFt2XryRWRiuM7WSAOB0AHjWpVv+Hwjy8viOW+OOzzuBUNNZZVDjSVyfm4a7ACYEvDB6YrylS213z5ziSd19KkgASHwAaJ85t3W8DXquzTeZnP60+bm/n4I5p92+48AKg5pW1xRvYLfQTUUIiFSTa+3X9ES8nVkwphIA3AgAs+a2PXPPvLZDXJxrhufjTc3P/JmUXHBErC5Ixi25SJ2VjkFpt+NU57nYhjPntH/DLB5vEACSHQAeXJDcsyzWebfRLIopmWfa7J0OVhYkQucRnPr5lAzOdvN7HeZiO9o9A2bNa5s4a17ryQSAZAYAV6XlheOkH02O1A5QdVpqBqhQC+vzejdX29LuG0AAIADUivpQfcXuhpeSuaVoTzWk1ZEscTzEhIC/pCcEyBeG55dsQ8MTAGi5cvaJ4h4dB+Gk5RGjUNfS6kikQKjDTCdemZbBan6/f7CfQtLyBACUoz8s2878jF9O0Z3Fd7moQNJDwPQUDdjYj+QUWp0AgNIaOyHexPx8/5iquSSUAS2PRMvk1M4p2J97jdIX0/IEAJRIHA9J3YWEUM/VVendG6CkvEhflLLBuzIQ+ru0PAEAg+cLOT5l80fs6pdFSKFxTfFmqTgoaM2du4Q6hdYnAGAwi7/6ceoW/0jNoOXh1l2AUH0rfSletQZh4Ru0PgEAA1j8I9mQwjmj2BAVd6f14V4IEOrxFA5o5UX6a7Q+AQB9Zx+hpeGAn27qclofTqoP5QGdO+elblA3+5E6hB5AAEAfFv9InW5+lstTOE/8c6SIt6IHwN3bekJdlcKBbZ/rLbYBiB5AAEAvdwkjeaJ9dJbGOcL+3ukBcFrHC4GheiWVIUCoJXZzJHoBAQA9XvmncvE3c+Kd9ACkQibSR6Vph8A1qoVPfAgAWGPx73zmvzylc8L7mVxhR3oB0vMoIJIipYO948XAIC+PpxcQAGC/EJKjU/rCX9d+/3o4vQCp0jBp6bam8/87xSGg1d7ypCf07Jxp8Rbm5/QDT6gJgVC/tQcu2fBUa1dvdtc2L9QP+EJn/azciZbrx4VAGr/z/+ghYg/TC5DOwR+qunQPfrXcnmtOT+hnvzGLbCDkQeZnd5wf6nPt1svmZ3mzH6nbvEjNtmX++rWu6sczZb101f9P/3XVP0vf37G4C/2Lrn/fsCBf3NO+z0JrDGbxT+MOfx8pyTf/SPsVwL0pnwTiIJKX2f3O6Q3lVz+tZYf6vN7tg/Kzi4fyU6kse7BPCvf2X/vWf6jOozcg9VdzaTrfu7e3gO3ESI+Ay+yRvkGoHkv94i/U4xz2A6xnP/+R30x9AOisP42Z2rw9PQJuLv7FPUwff5lxrpfau0/0COCDOwEdz1gJAabm2+fL9Ai4pD5UX+FO3weP/PTZ9Ahg9QCQjTc3g+MlJojOKwR2BYMr7Iuu9pAbxnXHjqC30SOAbthvqFO7E9jatSII5S8bG+P16RlIouH5eFNfyIix/GG9zkunQC+CUJ3PRPGRuwEP2j0T6BlIVpjXnzb99xnG76o6+Vr1a178A3phr3jNYPlfJoyP1KuBKOxH70ASdOzPEKnFjNtVdfoEGR81vmBKzjiyMd6QXgL0ePWgdjaDZhETxxrbBws1lt6BGg7vG3Zt7rOC8bqqvnurir/esfgXCAFAX/iieEyKDwfpZfMQ/QAHh6DmrvonFz9r+uccxuhHa9RkFR9z+eqLPyEA6GMI0D9jEum2FvqhPIEegloQCFlv+mSBcbnWZj/xCVfLbhb/zvr6eHk3IQDoSRwP8UJ1D5NJj3Uz+9GjWuy2yp2HNDEWu6tTr+958ScEAH25C5BdPJTdw3rfOMiL9NfoKajoVX+kTu+4E8X467a+PXHdi/9qjwN+QwgAeuBNbtnbDKoWJpYea2Ug9OTh+SXb0FtQTqMjtYsfqfsYcz3X8KyMj76sPwGAEAD0HgKEOoPJZZ31dpBTp9JbUGr2+3UvVN83fayZcdZzZXIy/saV/V38u+oy2UQIAHpgBtg1TDJ92GtcqJn2U0p6DEoSvvOF/XnDv2910jWFgS3+q4UANgsCergK4aWjPpf0hb6YlwQxUPZkSj9SN5m+1M54WneddoMc3OK/qu4iBADdOGdavIUZbE8z4fT58JE3gkidRc9Bn++0ZeONTL8Zx25+fa9v3aRKtfgTAoDeJyi5k13YmHj69U3y44GQB9F70OvYCuXJ9ssSxkzf6+xb5Bo7/ZWmhl1WuJMQAHSjPmz5oj02lwmofycMmiBwe4Mofo4ehI+OJ3WwF6nZjJH+vvGv4qMvlyVf/AkBwDp4UfFoMwjbmIj6Xe1+JKc0RMXd6UUpH0N5+SW7vTRjov81ssdtfgkBQEUEkR7BZDTgarP7B/hZvSs9KWXjRsiDfKHvZwwM8HO/UMbHXVX+xX+1uoMQAHR7J0BewqQ0qCqaxSDLowH3+ZE6hC9pBr/H/4nXVHTxJwQAvU5soZrE5DT4HQVN3RuE+gh6lDs6NvER6jTTtk/Qxwdf/32drMbi37VPQOF2QgCwpjgeYp9rM0GVrOba3ReZbJJr7PR4647P+YR6jf5cmjr5ukL1Fn9CALDOK53fMFGVtP7pRfoidhZMDnt2RhCpG3whl9F/S3i63w2y+ov/qrqNEACs+SjAbmLCy03lqOUdP9dQntzIfuU1Z6SItwoi6Zt2eoq+Wvo6/caaWvwJAUBPhufjTQOh/sDEVcZDhyJ5WSbX+nl6W3XZ9zW6Hn1J+mV56owJNbn4f/CJ4HRCALCGri2Deemp7KWfN/WLIF/ck15XoUVfqMO6DsZ6nf5X3jrzptpd/AkBQK93ApZswylmFa1nvFBfwAZDZXi0JfTh5ud7vX0ng36W2P39y1m/JgQAa+h4E1qoPzGhVbxe7nwRrXiMfSRDT+yfhklLtzU/vzP9SArzs3yT/lTh2/4JuPLvLgQ0NsbrM3qA1a+esvHmXiQfYmKr6tHED/qh+p6fb92LHrk2e/VWH6qvBKH8pVn4n7TnNtBvqlN1ExK5+HfWpYVphABgzTsBE+JNvFDdwwRXE7Woqy1+bBc92zbpC6WLhwZ5ebwv5K9MPWx+Fs30i+rXaTcmePEnBAA9s5+vmUF+BxNdLW5FrP7sh+o6T+jhfiQPdOmxgX0MlcmpQ83vq8EPdc6P9N9o89qrU653YPHvqq+PL0wlBABrh4D1PSFDJrwEbEtsFsrOjZ30z4KcOrU+lAfYZ+O12rfqp7XsYE/XM0Hm2+a//6qOPfcj9QZtmYAd/q4vOLP4EwKA3thtg4W6kYkvsZ8eLjWL7LPmz2fZuwYd292G+lz7wqEXqS/X5/Vu9hZ7qbrLiKjlY/afab+5D8LCN+y/KwjV+Z7Qt3S82yDki3yHn9yDfb55nXRu8ScEAOt6Dhupn/CylfP1r6698D+oJ0xImN1dde0bsfqvfY+fn8NH+uZkfOLV7i7+H+4TcGlhCiEA6C4EhKrOTAaKCZGi0lMjJ6v4uCsLzi/+hABgHextYzMpvMvESFHu17lZFf/X5elZ/FerPCEA6MaosLiH3byGCZKi3K3vTFLx0ZfJNC7+hACgN2OmNm8fhOoxJkqKYl9/Z+vSQkQIALphN6VhrwCKcqtOvYHFnxAA9JH9zMtMHMuZPCkqyW/6q/jEq1nwe/hEUBACgB5DgP46LwdSVEJf9rtVxcdcwUJPCAAGaHSkdjGTyVwmVIpK0FG+N8v46MtY4Pv4iWBICAB6ey/A7uHOxEpRNb+zn0t7+lcyBNgdUpntgR74kcx0HVzDZEtRNVajcio+/moW/4FXS44QAPSi47CXzm1imXQpqkbqnFtkfMzlLOKEAKDcjwSmx1v7ofo1Ey9FVf+W/2l84kcIACotiNRZHSfTMRFTVDXq5VOuk+NZsMuxT0DLZEIAsA6jQv0pdg+kqMpWIPTkc6bFW9gxaBasK1i0CQFAVdQ1xRv4kf65mZjamJwpqqy1yA/lyWuOwWGXFq5k0S7HPgEtWUIA0Af1oTrYTFALmKQpqgzP+yP50EghP9HT+CMEEAKAqvKz8eZmsrqGbYQpqmS1xBPS68v4IwSUaZ+A8S23EgKAvr4gKORBfqieZfKmqEFUpGb4WblTf8YeIYAQAFRdY2O8oS/0T81EppnMKapf9ZYn1CkDHXuEgLJ9IngLIQDoz92AfHFPM6E9yqROUeuslSY0Z/3s4qGDHXeEAEIAUDPsc0z7PJNJnqK6rflBqI8o5ZgjBJSr5CRCANBPI6KWj9lvmHlJkKI+KLksCNX5dU3xxuUYc4QAQgBQW48FRGE/L1KzmfypFNcKP5IikyvsWO7xRggo1yeCciIhABjwYwF1mpkI/8FiQKVqJz+7e2YkD6zkWCMElOvrAHkzMzkwQGMnxJv4Qv/MTIzNLA6U4/V6EKkzqzXWCAGEAKAm2e+d7S1RM0m2s1BQrm3mE4T6wuH5eNNqjzNCACEAqN33A+xng53HDfOiIJX0avZDeWnDpKXb1tIYIwSUqS6TNzGDAyWQybV+PhDqrs5vo1lMqESVNHWVn23+j1odX4QAQgCQgCBQ2NcL1T0sKlQCqmjqxkq82U8IqOlPBCcwcwOlfDQg5EFeqB9gkaFqceH3hL4lk1M7J21cEQIIAUBi+PnCPn4kp5hJt5WFh6pyLfKFHD86X/h4kscUIaBM+wRcVriRGRsoRxDIyp28SF3hR2oxCxFV0QrVK6a+Z4+/dmU8EQIIAUDijJ4Yb+mF6vtmYn6NxYkq6wY+kXrSbl7V2Biv7+JYIgSUrW5gpgbKqK4p3sBMzmeYifrPLFZUCavN1N1epL6chnFECCAEAIkWRK1fMJP29Z3PaFnEqAHVAj9SP0nKG/2EgCR8Ili4ntkZqBC7zbAXqm8FQv2BBY3qQ2lPqNt9oYelfewQAggBgDP8KcXPdLw0KNS/Weioj5Z+3r5HMipcth0jhRBQgbqO3gVUIwhk442CsPCNQMi83aOdxS+9B/P4obrS7i/BqCAEEAKAlKlrijf2InmiWQymcRphKupfZtG/LpNTh9L7CQFVP0DossK19C6gBtiT2vxQnuxH6jazUBRYLJ2ptzyhJvhCH04vJwQQAgD0alxTvJkn5HEmDNzU8TY4i2iSyh4e9VQQyl8GQh22XhwPoUcTAmq8rqF3ATVqVFjco2PnN6Ef7DrpjYW2tupde4R0EOmza/kEPkIARQgAkv6oQBSP6dhnIFTPclxxVUoFoXrMi/RFfqQOoVcSApyoSwtX07uABBkp4q28qHCsveVsFqZHTLWwQJe8FgZCzTT1Q7vg25c36XmEAEIAgJpityT2I3mgWaj+xyxYd3FGQb9ruS/0XwOhJ/uhPjfIF/ekVxECUnWA0PjCVfQuwBFjp8db2xfSfCHHmAXuZlNPmD9fxmKvFna9V3GNF+pzvHxhf67uCQFUx52Ay+ldgMPq83o3T8j/DkJ1vh9J0bVl8T8ce69AmbDzol3oze9vovnrH3hR8egxU5u3pwcQAqhePhEcL0fSu4CUhoP6nD4yiPQI+36BCQpTvUjN9iP9txp6rKDtf0sQqXleJB8yi3zWXMlfYP76LLvZzuh84eO0JCGAGnCpI69UO9O7AKzlnGnxFjYo2BfjMpE+quOZuVBjzUJ88apSV9ltj1evruNtZ9syv376mn/fLOaXrP7PMOHD80P17Y5AIgr72X9nY2O8IS0AQkC5S06iZwEACAHpq/dM2F6fngUAIASkrI7+VWEfehUAgBCQupcBC8fSowAAhAACAAAAhAAeAQAAQAjgJUAAAAgBfAYIAAAhgI2AAAAgBLAVMAAAhAAOAwIAgBBQpSt/87OhhwAACAEs/gAAEAJY/AEAIASw+AMAQAhg8QcAgBDA4g8AACGAxR8AAEIAiz8AAIQAFn8AAAgBLP4AABACWPwBACAEsPgDAEAIYPEHAIAQwOIPAEA6QwCLPwAAKQsBLP4AAKQsBLD4AwCQshDA4g8AQMpCAIs/AAApCwEs/gAApCwEsPgDAJCyEMDiDwBAykIAiz8AACkLASz+AACkLASw+AMAkLIQwOIPAEDKQgCLPwAAKQsBLP4AAKQsBLD4AwCQYEddWri83wHA/H/4yQEAkPQ7AePlSLOw6z4s/tr+Wn5iAAA44sgr1c5HjZeTzCL/XjcL/3v279lfw08KAAAXxfGQYVcU9vv6+MJ/2bJ/bv83fjAAAAAAAAAAAAAAAAAAAAAAAAAAAAAAAAAAAAAAAAAAAAAAAAAAAAAAAAAAAAAAAAAAAAAAAAAAAAAAAAAAAAAAAAAAAAAAAAAAAAAAAAAAAAAAAAAAAAAAAAAAAAAAAAAAAAAAAAAAAAAAAAAAAAAAAAAAAAAAAAAAAAAAAHf8f3W5QwzLjQwxAAAAAElFTkSuQmCC;" vertex="1" parent="1">
          <mxGeometry x="480" y="720" width="70" height="70" as="geometry" />
        </mxCell>
        <mxCell id="Ryg6QgMLUXYhueZ2bqbR-30" value="&lt;b&gt;&lt;font style=&quot;font-size: 16px;&quot;&gt;GDELT Project&amp;nbsp;&lt;/font&gt;&lt;/b&gt;&lt;div&gt;&lt;b&gt;&lt;font style=&quot;font-size: 16px;&quot;&gt;Events 2.0&lt;/font&gt;&lt;/b&gt;&lt;/div&gt;" style="ellipse;shape=cloud;whiteSpace=wrap;html=1;fillColor=#fad9d5;strokeColor=#ae4132;" vertex="1" parent="1">
          <mxGeometry x="110.72999999999999" y="50" width="200" height="140" as="geometry" />
        </mxCell>
        <mxCell id="Ryg6QgMLUXYhueZ2bqbR-31" value="BRONZE" style="swimlane;whiteSpace=wrap;html=1;fillColor=#fad7ac;strokeColor=#b46504;" vertex="1" parent="1">
          <mxGeometry x="155" y="570" width="130" height="120" as="geometry" />
        </mxCell>
        <mxCell id="Ryg6QgMLUXYhueZ2bqbR-14" value="csv Files" style="shape=document;whiteSpace=wrap;html=1;boundedLbl=1;" vertex="1" parent="Ryg6QgMLUXYhueZ2bqbR-31">
          <mxGeometry x="25.73" y="45" width="60" height="42.5" as="geometry" />
        </mxCell>
        <mxCell id="Ryg6QgMLUXYhueZ2bqbR-33" value="&lt;b&gt;&lt;font style=&quot;font-size: 15px;&quot;&gt;GOLD&lt;/font&gt;&lt;/b&gt;" style="text;strokeColor=none;align=center;fillColor=none;html=1;verticalAlign=middle;whiteSpace=wrap;rounded=0;" vertex="1" parent="1">
          <mxGeometry x="585" y="545" width="60" height="30" as="geometry" />
        </mxCell>
        <mxCell id="Ryg6QgMLUXYhueZ2bqbR-34" style="edgeStyle=orthogonalEdgeStyle;rounded=0;orthogonalLoop=1;jettySize=auto;html=1;strokeWidth=5;" edge="1" parent="1" source="Ryg6QgMLUXYhueZ2bqbR-3" target="Ryg6QgMLUXYhueZ2bqbR-31">
          <mxGeometry relative="1" as="geometry" />
        </mxCell>
        <mxCell id="Ryg6QgMLUXYhueZ2bqbR-35" style="edgeStyle=orthogonalEdgeStyle;rounded=0;orthogonalLoop=1;jettySize=auto;html=1;entryX=0.606;entryY=0.019;entryDx=0;entryDy=0;entryPerimeter=0;strokeWidth=5;" edge="1" parent="1" source="Ryg6QgMLUXYhueZ2bqbR-5" target="Ryg6QgMLUXYhueZ2bqbR-15">
          <mxGeometry relative="1" as="geometry" />
        </mxCell>
        <mxCell id="Ryg6QgMLUXYhueZ2bqbR-36" style="edgeStyle=orthogonalEdgeStyle;rounded=0;orthogonalLoop=1;jettySize=auto;html=1;strokeWidth=4;exitX=0.5;exitY=1;exitDx=0;exitDy=0;" edge="1" parent="1" source="Ryg6QgMLUXYhueZ2bqbR-9">
          <mxGeometry relative="1" as="geometry">
            <mxPoint x="670" y="400" as="sourcePoint" />
            <mxPoint x="630" y="510" as="targetPoint" />
          </mxGeometry>
        </mxCell>
        <mxCell id="Ryg6QgMLUXYhueZ2bqbR-37" value="" style="endArrow=classic;html=1;rounded=0;entryX=0.5;entryY=0;entryDx=0;entryDy=0;entryPerimeter=0;strokeWidth=3;" edge="1" parent="1" target="Ryg6QgMLUXYhueZ2bqbR-13">
          <mxGeometry width="50" height="50" relative="1" as="geometry">
            <mxPoint x="630" y="450" as="sourcePoint" />
            <mxPoint x="460" y="410" as="targetPoint" />
          </mxGeometry>
        </mxCell>
        <mxCell id="Ryg6QgMLUXYhueZ2bqbR-42" value="" style="edgeStyle=orthogonalEdgeStyle;rounded=0;orthogonalLoop=1;jettySize=auto;html=1;endSize=7;strokeWidth=5;" edge="1" parent="1" source="Ryg6QgMLUXYhueZ2bqbR-40" target="Ryg6QgMLUXYhueZ2bqbR-22">
          <mxGeometry relative="1" as="geometry" />
        </mxCell>
        <mxCell id="Ryg6QgMLUXYhueZ2bqbR-40" value="&lt;b&gt;REPORT&lt;/b&gt;" style="shape=note;whiteSpace=wrap;html=1;backgroundOutline=1;darkOpacity=0.05;fillColor=#f0a30a;fontColor=#000000;strokeColor=#BD7000;" vertex="1" parent="1">
          <mxGeometry x="577.5" y="820" width="115" height="70" as="geometry" />
        </mxCell>
        <mxCell id="Ryg6QgMLUXYhueZ2bqbR-41" value="" style="shape=image;imageAspect=0;aspect=fixed;verticalLabelPosition=bottom;verticalAlign=top;image=data:image/png,iVBORw0KGgoAAAANSUhEUgAAAgAAAAIACAYAAAD0eNT6AAA4WUlEQVR42u3dCXgdVd34ccommyyCgIiKghsgIAiCULx3Ji0WReWvYW2SClJeFVxABUXttZmZtCBFC703YREFBam+iPAiLggIiqCVkqQFFGkhSaFsXTJn5qa9N53/OUkoRbplmTtzznw/z3Oe9mFJ7p3fOed3ZuYsW2wBAAAAAAAAAAAAAAAAAAAAAAAAAAAAAAAAAAAAAAAAAAAAAAAAAAAAAAAAAAAAAAAAAAAAAAAAAAAAAAAAAAAAAAAAAAAAAAAAAAAAAAAAAAAAAACQEfOejXZ4tHv1UZ3dlVxnd3Vye0+1qaO7/3ud3f3TXikdXf3fVf98QU8lv6A7OmDevGgbrhwAAJqYG0VbdTyz+giZ0L/U0V29Tib6R+WfVVmiYZZV8mf8s6Or2irL5x7pivbh6gIAkDLtPauPbu+u/Egm7udGkOw3s/S3d3RXvq+eEHDFAQBISHtPtG9HT6VZJudF8SX9DZYH1SsDXhUAAFAjCxdHe8sEPFuWvgQS/3+XJZ1d/V9X8wyIDAAAMWhfGu0p7/gvl0m3nILEv56BQPUsNQeBSAEAMAaiKNqys7v/fJlk/RQm/teU9u7++e3Prj6cqAEAMAqdXdH+6n172hP/f5VKe1fFW7gw2pYIAgAwTO1d1dNkMl2pWfJft/x94bPR24kkAACbQT3yH3rXr2viX7e81PlMZQJRBQBgI9qXRjt29FR/Y0jyf/WVQE+1kegCALAeC1+IdpLJ8n7Dkv8rZU17d/83iDIAAOt44sXojRpO9ht26ezqv5BoAwAgqd30OnqqfzA9+b/yJKCjp/9cog4AyDyZFG/MSPJ/pfTLciKRBwBkVkdX/wUZS/6vlOXtS6L3UgMAAJnT3lUZr2bIZ3QAIEvlcc4QAABkypNPRju3d1efzm7yX1uuojYAADKjs7t6Dcl/cFJgZ1dlIjUCAGC8jq7K8QOz4Un+r5RFixdH21EzAADGUtv8qhPzSPr/dYpgV/8l1A4AgLE6uqqfI+Gvt/iPdEX7UEMAAMaRd//jOnoqj5HsN1C6KrOoJQAA46jNb5JPtP0LOrqqf+zoqV7f2VVx23sqP5D//CZZ7lMn9yX8+cS8Z6M9qCkAAKPIBHd3Iu/Xu6v3dHb3nz9/cbTfpj5j55LKRzq6KzPUxLxkPmulQE0BABhjQc/qQxOY+X//giWVY0fyee+Noq07evqnyp/xXI0/c5eaKEmNAQAYQd6FX1vDJLpS/r7PjMnnXhrtqN7N1/gpwMeoMQAA7ak7WpnYnq/R9rr/6ng2et9Yf4f2nmqT/Pl9NTkyuKd6M7UGAKC9R7tXH1WT5N/TP2/+4mjX2L7HM5Xj1ES9GnyXFeqIZGoOAEBramJbDZJmTy3W0bf3VD9bi7kMC3oqeWoOAEBrMqH9PeaEGXY8s/qImn2fnsr02F8DdFcupeYAALT1yHPRm2VC64/30X9lei2/0+Cchv72mOcBPEDtAQBoSz3Kjvlu+bmFL0Q71fp71WBTo0AtRaQGAQC01NHTf27Mh+h8IbHvNrh7YIyvAVYdQg0CAGipo6dyeYxJctW8p6JdEvtu3dUzY97B8DNpiiUAAJtNJrE7YkySdyX53TqeiXaTn2F1bE8Auvq/Tg0CAGhpYGOe+Nb9T036+6lzBmIc4FxFDQIAaCnOE/bUBkPJf79KS4wDgJuoQQAALckktjyuBFmLjX82pbO7/8sxzgG4gxoEANCSTGS9MSXI1Wk4Na+jp1of4xOA+6hBAAAtqfXsMSXH5Wn4fu09FTvGAcC91CAAgJbUUr2YkuOaxYuj7ZL+fu1d1dNiHAD8nhoEANCSTGJ+XAly/uJov6S/X2dX/4XxLQOs3k4NAgBoqaOn8liM++V/IgXfL76Njnqq11ODAABakonst/FtA1zxkv5+nd3Vh+Mb4FQcahAAQEvtXdWSqXfIj3ZHb1VzEUw85wAAgFHp6O6/OKYE+ef2pdGOSX43laBjPQugp2JTgwAAWursqZ5iYvJXexDIwU1HnAOAec9Ge1CDAABaUrv1jfFj8sSTv9LRVf1cnMlfliXUHgCA1jq6KwtNSv4Pdkfby8/SHfMAYC41BwCgNZnMrjQl+Q99nxtjTv7qpMNzqTkAAK11dFU/bU7y778o9uQvy4Lu6ABqDgBAa/MXR7vKpFbRPfm391Qb5efpj38A0N9JrQEAbNKZs6Od0/4ZO7urv9I1+Q/O+K/MrMWd/+Dyv/5vU6sBIKMaS+FbG1qDExtbwwvk3+c0lMJfNRbDB+TfF8uyWpZoA2XV0H+jysNNpfDmhmLgNRaDzze1lu2zrgz2SeL7jODUvHTM9n8mepf8LHfVKvkPrJiQv5MWAAAZUD8n2mlKq/iYStQyYd/fWCqv2EiCH4vyrCy3ykHFhfL3HVs/K9o+7u8o76LHybvoJ3RJ/moNvvwcs2M8zXD92/92V39HiwAAg53ZuupAmei/q+7SZanGnPA3Vcrys9zZ0Fo+u6Hk7xnXd27v7v9KUsl/QdfqIxf0rD50bhRttcHPtzTas7OrelZ7d/UO+TnCWib+dcokWgcAGGZK26r3DTyOL4X/Tjjhb6z0q6cQsnzt9LbeMd2JbmgyoKh18pcJ/TPyZ68e+h0ysfcvkH/eOzAvoaf6B7Wjn/z7iwkl/HVKZaF6UkJLAQADTLk+2q6pVD5z8NF+apP+hkpfY2t4oyzHjNX16OipNNcy+cs7+lNHsQKhpkUNVGgxAKC5xqt6d28sBdNlEn1Zw8T/+tIazlevCKa2RduM5ro8+WS083rutmNJ/vLnnilLVYfkL8vfufsHAI1NmSP2biyGl8sijEj8/1UaSuFTTa3lxvq5G36Xvilql7vYH/v3VJs0Sv5rOroqx9N6AEBDaiZ/UylwBifUmZf4X1+CxxqKYf1IrpW60+3sqT4Q42P/s2qzYc+YPfq/lhYEAJopFKItm4rlzw0trctA4n9debCh5B883OvW/nT0zlge+/f0T9Up+Xf0VJd2PBPtRksCAI2oxNdQCv+e0cS/blmtnn6oCY9JxqO9q/+LY3z0cNyl/9Guygm0JADQRK4Qbd1QKl8ytOte1pP/uuXfU0rlXBIx6ezu/7JmyT/q7Kq4tCYA0IRayy8T3TyS/cb2EQic0UwSHK6Orv4LdEr8A6Wr+seNbUoEAEiRxtbwVJngeknym7Vs8J7TrxF7xR2Tju7+b2qX/Lv72+c9Fe1CiwKAlFNr3xuL4WwS+/DPHGhqLce2vE2dmqdf8q8+094T7UurAoCUO/valW8aOoWPhD6y5YI/iSMund3907RL/j3VxWr1A60KAFJuSqm8n0xij5PER1xuiGMuwEa2E05zebJzSfQ2WhUApNzktuDwDK/tH/2OgcXgp2qPhLGOS0d3ZYaGyf/P6nhhWhUApFxDW/jhxlKwkkQ+stJUCq6PI/m391R+oFvy7+yuXjNv3ujOTwAA1EBDa/ChxtZwOYl8pLP/gx/Hkfw7uys/1Cz5r5DJfzItCgA0MPTYfxmJfMQT/q6LI/k/9nT0FnVankbJ/97Hno3eQYsCAA1MntN3gExiL5LER1rK12wR43G2URRt2dHdf566s05x4u9RRxDTmgBAEwNL/UrhEyTxEU74ay23bVGjs+zVZLrO7sqlMtEGKUr8y9q7K4WFL0Q70ZoAQBP1c6NtG0rhvSTyEd/5t9Yq+a+rc1G0V0d3ZWZnd/XFBBP/c2ozoiefjHamJQGAZtSja5L4CGf7F8ulJJL/uhYvjrZr76k2qffuNToGuCLLnXLgcfK9UbQ1LQgANNRYLE8mkY+4zEk6+f+3gacCPf3nygR9myzLx3Ap34tykPELNau/45loN1oOAGis8eq+93Cwzwjv/FvDq2KJSWt4TEMpvHCsft6CntWHyqR9dkdP5XKZyP+vo7vyhPzzhY1s1bu0o7u/U/79VjXPoLOn2jC/O3o3rQUADHH+7OgNMpE9QjIfQSmGs+OIiTo0SP58X5ZVjUVxSNx1oH1ptOP8xdF+qvAOHwAyorEUuCTzEcz2L4U/iiMek1v7JsifH7y6k2D4z1yB9+sAgDE0pU18QCaZ1ST0YT/2vyKOeDQVg4/Ln19+/WCjfAm1FQAwJtQudY3F8CES+rDv/GfFEQ/5s08eeOS//t/b19TWtz+1FgAwajKpnGfI2vsV8s/H1f4F6xb5zx6UZbEsL43ZnX8p/EEssWgNT5U/v7KJ3/9Lai0AYFSmti3bZSwTYw1LubE1+L1M+t9tmtM38fRrxF6b833PvCbcV/5/n5L/3zT5M26T5eURTPi7LI5YNBbLTfLnVzfjM6xRKwOovQCAEWsoBp5GSV/dGd+q7pIbboh2HIvvrybVNZTKltq2d3OWP8o7/5lxxKGpGEyVP79/GNfir9ReAMCInHVlsM+6s8xTWwaOIQ6mq88b5/WonxPt1FQKviDv8Bdt4LO0xPF75fc7f+CufvjX5mRqMQBg2IbuetOc/AN5Z/z9KVcs37WW12VqW7SNvDZny9+/5NXPErhx/K6m1vDro7g+D1OLAQDDMmWO2FvNKE9x8r/tjKvKiZ4df9Z10Rsbi+HlahASx89X8xdGvwyxfDy1GQCw2ZpKgZPSxN/bUCo3mH79x2rTpaZieDu1GQCwWaa2RTukc+Z/uSMLa9zVU4UxvG79U9pWvY9aDQDYpIGJbmnbVKdYvks9cjf6wkfROHVgkC5bEQMADKP2lE/Vdrql8Ob6udFWJl/zgd0WS+VrYrqGz3NGAABgo5qu8g8i+deW+n7yu94Q6xOU1uBEajcAYIPURjYpGgD8SS25M/l6qztz+T1vqcG1vInaDQBYr8HH0GF3SpL/E7Ve319r8s5/26bW8Ne12jPB+DkUAICRmVIMj07NPv5FcYjR1/r6aLvGUvm3td0xMfgUtRwA8DpqO92UDADOM/k6Dy2zvDuB6zqHWg4AeB2ZIP6RguT/V7UcztRrPHieQHh/Qtf2SWo5AOA11HG5wzxtLp7T/Ax+9K/mNMjv+Lckr/FZxb53UdsBAGs1lMLTkj/VL/ix0de4GNYnvqyyGEyltgMA1pIDgFkJJ6fVDdeU32nyNR5a7//vhLdTvpraDgBYSyaHvyQ8ALglG9e5fFbC1/kf1HYAwAC12Y5MDGGiiakYTMrQte5Kcokl2wIDAAZMbhWHJnxX+qzp2/2uq7E1nJHk9Z7SJj5ArQcAqIT02WQn/4WXZul6NxWDI5I9WTE8g1oPAFDvpS9O9vG/2bv+rU9DKXwqwYmAF1PrAQDqjvTaBJPRCpM3/tmQxmJ4eWJLAVvDq6j1AAB1N3pvgk8A7s7iNW9sDU9N8JrfRq0HAGzRVAoWJvj+f0YWr3nj1X3vSXAAMI9aDwBQewA8l9jj6FL4mUxe9CgaJ79/b0LXvYdaDwBQA4BVid2NyjvhzF73YvhQQtf9ZWo9AGScOp0uyRUA6hCirF77xlL5t8msuggFNR8AMu5zs/03JzkAmNoW7ZDVay+//00JXfcqNR8AMi7hAUCmE1FDKSwmOPDahtoPABnWUPL3THQPgAxrLIaXJXXt62dF21P7ASDDkh0AhMuyfO3VhjyJDQAydPYCAGA9zr525ZsSHACsyfKdaFMpuD6h616h5gNAxqk7QZkQ+pMaBEye03dAVq+9/P6/TOi6+9R8AIDalnZ5cifTlT+a2eteCv+R0OZLS6n1AAA1GW0RR9MmcN1L5RUJXfd2aj0AILE70YEBQGvQnMVrrjZASm775eAP1HoAQJLvolX5WyaveWvwqQQPYLqRWg8AUHMAZiS5GdCUK5bvmrlrXgp/mNw1D1xqPQBgi4ZScE6S2wE3tIb/L2vXXH7vRxO75sVyE7UeALBF45xyPskBQFOxXMrS9VZLH9UeCIkNuNrCD1PrAQBbNF7Vu3uSCUmWZ3OFaOvMXO9SUEj2AKZlu1DrAQADGkrhU4k+BSiFn8nEhY6icfL7/ifBa72Y2g4AWEsm4JuTHADI8qcsXOdEZ/8PDrRuprYDANZqbA0vSHgAEDW2lY8z/jonuOfC0BLAr1DbAQBrTZkTHJn4AKAU3m3yNW4sBpOSvsZMAAQAvEahEG0pE8QLKRgEnGzi9a2fG20rv9sTCV/bZRwDDAB4nYZS+LMUDACebrgh2tG0a9tULH8nBdf2Fmo5AOB1GovlySlIUlFDa7nNpOt6ZuuqA+X3ChO/rqXyFGo5AOB1hvYDWJ2GQYAprwLq50Q7NZaCx1JwPatT5oi9qeUAgPVqKoa3p2MAEKxsuso/SPvrmfzyykwtswQAjJBMWKekJGFFjcVwUUPJ31PXa9lQDLy0XMuG1vLZ1G4AwAbVz4q2V3ffqRkElMqdp7f17qHbdWxqLX8rPdcwLGfxxEUAwDDJpHt1ipKXKo/q9P56aC5FNS3Xj93/AACbRb17T/hwoPUuD1Sz6XW5hvLz3pGiAcCx1GoAwGZpbA1+n7IBgHodsKKxNfysDtevqRh8PCXJ/5/UZgDAZkvDtrUbTGrFcums66I3pvn6De2suJi1/wAAvQweW9ue1kGALF3qZL00X8LGUvnihK/R4qlt0TZUZgDAsDS0BieleADwSrmvsTU8JpXXr+TvKT9fX3J3/8E51GIAwIjIRPJXDQYBqvxZ7R6YtsNu5Ge6ibt/AIB2Gorlj2oyAHilPCfLlVNK5ZxMgDskff0mF8vjE3r330DtBQCMikwot2k2CHilVNQseDUgUAcdTWkTH5ADg/3UOv3aXr9yZ413UHxIzeGg5gIARqWxrfx2mVh8TQcBGyt9coDwtbivX0Mx+FINv1N/Q1v4YWotAGBMNJTCCw0cAAysJoh73sCZs6OdazaAag1+TG0FAIyZXCHaurE1nG/iIGByMfh03NevsVRurcF3WcKe/wCAMddYFIeog2XMGwQEf4z72k2ZIw6rwff4BLUUABCLxtbwfAOfAqyZXOx7b+zXrhQ+GGPy/wm1EwAQq6ZieLuBg4Afxn3d1NK8mD774/Vzop2omQCAWJ3e1rvHwFa8Jg0AWsPlDTdEO8Z53aZcH20nf9eLY/zZg4aSfzC1EgBQEwPvtIuhMGkQ0FQMpsZ93eQ1u4zDfgAAWlOz59W6c4MGAY/Gfc2a2vr2H7Nr1hpeSi0EACSioRR+06inAKXw2LivWWOp/Lsx2O3vf9WRw9RAAEBimlrDKwwaBPw87us19ORkNJ/xb/Wzou2peQCAxDWUwqIhA4BVp18j9orzWqmdB0c6iVKdbXBGccVu1DgAQDpE0bimYnCtCYOAhlL5krgvV2Op/N3hf7ZyR60PMgIAYJPUO2lDngTEfj7A5LbgLfL3rB7OBMWGkr8ntQwAkFrqDprzATZN/p5fbubnuW9q27JdqFkAgNRrKpY/JxNXhfMBNkwOlKzN+Cy3qg2EqFEAAG00tZZtmcCe53yADYiicfL3PLGRz9AS96sIAABiceY14b5q2RrnA6xfQzH86nrW+IumUngKtQcAoLWpbdE2MqnN5nyA11NL+tR+/uu8enhMHbtMrQEAGKNpTt9E3Q4Rqsn5AKXguqHfdyUb/AAAjHTm7GjnxlL5Gs4HeNXkVnFoYzGYRO0AABhvcAZ8uZPzAQAAyBg1w72hNfgfmWRfzPr5AAAAZM6UK5bv2lgK3MZSeUVWzwcAACCzBgcCA3vkv5TF8wEAAMi0+jnRTo2twRfVBLwsnQ+QNMspvyPv9R5b1+znVLFdMdn2RJMqecf/suUG0waLX7Bccb38e/HVfzZY5P9z4cB/74oz1M+Q/+zwXEt5v2NY3QAAGI6GtvDDQ8vk/CycDxAXlYQtxz9eJWZZviGT9I9sN/iVTOQPydItS1SjsliWP8tyoxxIOHk3mCo/zwlysPB+dj0EALyO2g+/oTU4qakUXC+T8TJTzwcYrUmFl3e2nN6PyGR/Xt71W+Ud+T9ksg1qmOBHU1Zbnuiw3OCXthd8L+/4n8lP9w9Sp0zSAgAAW+QK0dZNreXjh+YL3P3anfQ0Px9gGGRy30smyk+rZCnvpm+VifM/miT64RYx8NTAEZdZTnhybma4L60AAKCWE247ZU5wpLxDP7ehFP6osTW8Z0yWFhZDIX/WfPn3G+SfF0xpFR9T8xOS+p7q7j7vBZ9Uj+/lnfICQ5P95pYllhfMlYOfc3MtKw+gFQAA1hoYGJTK+zUUyx9tag1PbyyWmwYP3ylPe00plr+t/p0qk1v7JjRd5R+kViQk/flzhWi7vCvsvOO7Q+/qqxlP+hsrT9uuuE7NcVBPRqj9AAAtyYR2iyxlEvtIS/BXyxMXT2he+W5qEwBAG/Iu9lKS+JiVx9WKA8sJj6JmAQBSzWpesb9MXP0k7zF/MvCkmjSplkVSywAAqWQ54vck7FjL/ZYXnJMrJD/fAwCAtdSSN5J0TUo574if2C3BkdQ6AEDi1H4HMjn1kKBrV4Y2TpqiVmBQAwEAick7/vdJzImUl9REzPFu8BZqIQCg5iY64dtkMqqQkBMrfZbjX81yQgDAa+Sbe2PfGthy/d+QiBMvVbXzYF1L8EFqPQBkmDpZzxo81S6om7Fsl1h/lxtMIgGnqDjizpwrDqMVAECGqM1kZBL4w2uTgn9+nL9TnYaXd8Uikm+qyhpZbubVAAAYLuf6B8sO//YNJIOFcf9+OQD4Fkk3laWi5ghwQiEAGMb2eneXd/gla1MH8Tj+8XF+jonT/D3l71lFwk3vXgKyDjSfVIh2oNUAgMbUGnzbFV+RHfuyzUoAnrgp7s+U98QvSLTpLnlXdNmufxotCAA0JDvxE6yBA2SGt1xsvOe/Oc7PVdfs50iy2pQ/52eIQ2lNAKABtemL7Qa/GvEucp74ZtyfcQQDE0qSSwfdYPaxM198I60LAFJKHQojO+zlo+vwg/9sEUXjYv2cjvgqiVW78ozdIj5GKwOAFMm1rDxAdtD3jVln3yImxvl5j2tZsZv8PSFJVcv9A244obDyTbQ6AEiQWluvHtkPzN4e047evzXuz65OriOhalo88bzl+PW0QABIQN2M8tutwV38YlkXPmFmsE+cnz/nhEeTTLUvN04qvLwzrREAasRyxOmy810RZ+due8H34v4etivmk0S1XzK4yHJ6P0KrBIAYqf368574WY069+76udFWcX4fOcg4lyRqRKlYrl+Iu74AQCbZLcGRsqNdXNO7Oyf4VJzfKVd4YSf5e3pJoKaU4K9sJwwAYyjvBlMtdaZ7rR/vOuKuuL/b0BbFJE+TJgg2+xatFgBG4ZhZ0fayU70+wQ69f2Jz+Z1xfke10xyJ07xXArXYUAoAjKQSr+WIR1Kw7rsl7u9quf6DJE0jXwn8LzsIAsAw5F1hW5t7gE/8ZWl9Ido2zu8r7xabSJbGlsfVRlW0agDYhLwbnCU7zdVp6sRtxz81zu889KrjZZKlseXFOqf3OFo3AKxPFI2zXeGlsQPPe+LeuL++5YkrSJRGl768K86goQPAOgbugL1gboo77zU5r/d9cV4D9fPV7yFRGl3W1GKDKQDQgu317m67/t806Lx/GPe1kL/jHpKk+UWdA8GmQQAybbwbvMXyxAJNOu5l6klFnNcj7/qnkCCzUvxfT5odvYFeAEDmDCzzc4P/aNZxT4nzmhzRFm2jVh2QHDNT7la7QdIbAMgM2/MPlJ3fEt06bPWqIvZrk9KJkJTYykMnFFa+iV4BgPHyLcERalmUrh12zhWHxXl9ci3l/eTv6ScxZqh4okMO/PaidwBgLMsNDpcd3nKtJ3C5fmv810n8lsSYubJwvOe/mV4CgHHkHc4hspN7yYCOujfu7V3zXvBJEmImS7taFUNvAcAYdc3++wdOSTOlo3aC/4nzeqklYnlXdJEQM1n+eVzLit3oNQBob0LzynfLu/9nTeqk5feZH/d1UxvGkAwzWx6eVHh5Z3oPANqynPI7TL2Ttb3wmDiv3YSZwT7y91RIhtkseTd4IO59JwAgFuoxpprYZGoHbbvip3FfQ3Wc7DA/V1WWxQM7KzriDvn36+XPmJZ3/C+qEwdVyTvBp+qa/dz6ivz/8oP/XXD24P8nZqqfkffEH+WfT8gSkpxrWfxbC4VoS3oTANrIFaLtZAd2v+EddBj3+m05yJiwgd+9Uibov8iE3WZ54utq0qA6S6AW28uqmeqWEx41dGrjD+Rn/D/mK8RZgiI9CgAtqDuWlB/sM4aPacXXYr2YUTRO/p5/qTkH8m6wpJJu3XTxgTTGfeI0f8/B1Qu+Iz/zH2QRJO8xGwRcQs8CIPUydqztEypJE/XXqy9E29pe73g5ICgMPQ1iPsPIizolcgq1CkBqyc7+/Kx1zuq9OZHftIE5IZ5okHezv5TFJ6kPu6zOe/5HqUkAUkclwoze5d1C9IdHnYJnOeHJQ5Mc+0jum11eUCtrqEEAUmNo/3pt9/cfZVnFPu6jqDuF5btaXnCOvI4PkeA3ozji0YmXRTtScwAk7qRCtIPqlLLcKedd8S1qwujVtQQftBz/anlNA5L9RicF/pK5JwASpx6B0yGLxazXHjt1M5btopY3mraD5JgWL/gONQVAYmQHfSGd8dBTAC84kRoxtgZXEqhNiQY2IaKevbb0511hU0sA1JzaDEa9/6YjXltup1bEQz1dsR1xpuUGT1LPXjMf4LncpWJvagiAmhl4ROv6T9EJry1VtVEPNSNeuUK09dCEwW7q3NpyN6+fANQM7/1fLbYrfpef7h9EragdtdX00GmJTBYcmIQafJdaASB2srOZSqc7UP6Vd8UJ1IjkTHTCt8k4/Jy6KKqW4x9PjQAQG3XgjMWJcH3qpDw1QY0akQ4q+akBWcbr5TOTCi/vTG0AMObUSXMWm7XcY3u976E2pI/aXTDv+K6M0erMvgpwxLXUBABjzvbENzOc+AN5l3ketUCDeuqKQ7K8MRXLUQGMKdvzD5SdSzmjnepD3PXrRb2ekXH7gVorn8H6ukQdvEQtADBqQ4/+H87o0r6C+v7UAj1Zzb6VxSWDeU/8jOgDGDXZoVyUueTviefrmkUd0ddfrtC7h4zpHzK3PNULPkH0AYzY0Cl/WVtrff+EmcE+RN8caqMcy/Gbs/RKIO+KReqgLqIPYERs178tW8k/KKrd5oi8mfJu8HEZ55XZWRXgu0QdwLCpR4gZSv4VOdj5ElE3X871D5bxXpyRer2qrtl/P1EHsNmOmRVtrx4hZqSTXG67YgJRz46J0/w9Ldd/MCP1+x4iDmCzybvh6ZmYKOWKZ+umiw8Q8exR5wnIQcCvM1HPHXEmEQewSXUzym/Pxpr/4MmJzeV3EvHsGlrien0GBgHPqAEPEQewUZYjbjC+Q3TEI/Lufy+ijS2iaFzeE5dnYGnrxQQbwAblXHFYBpZK/fOEwso3EW2sa2iZoMn1foXaE4FIA1gv4zdMkXf+JH9siO0Kz+ynAMGVRBnA61gtYqLhE/7mk/yxyXbgihkGt4PVE5pXvpsoA3hVFI1TCdLoCX/T/D0JNDaH7QZzjN0cyBO/IMIA1rK94NMmL/Vjtj+GY2DrYC+Ya2ib6GdzIABryU5hnqmb/ORniEOJMIZr0uzoDZYn/mRou/g5EQbwyv7oJnZyFU70w2hMKry8sxwELDCwbVTzzb3vJcJAxsnO4CEzZ/z75xFdjFZdS9+7ZH16ycAVMTcQXSDDzJ3575eILsZKXbOfUzPoTXtCxooAIMPynrjXwAHA/RzpizFvK47/RQNXxxSJLJBBQ7v+GbbRiXjecsK3El3EQdavmwxrMwF7YwBZ7Mwc8WPTljdxrC/ilCu8sJOsZ08Y1m4uIrJAhgyeh27WiX95x/8+kUXc1PHRsr6FxrQbV3TxygzIENsLvmfYXcxDdGKoFbXCxKzNsvzTiCqQAfWFaFvLEc+Z9B7T9nrfQ2RRM4NHCP/RpAE0QQUywHb8U1nvD4xObma4r6x/y415FcCOmYD55N3/743ptDxxr7obI6pIgu2JJmNeA3jiR0QUMFjdjPLb1Wx5QzqtPrYzRdIMOi/gJXX+AREFDGXW5D+/QESRfJvqfY8ajJqxIsA/hYgCJlITl1yxyJABwL+4W0FaWG4wzYz5NOL3RBMwkEz+tjnv/oMTiSjSIleItpP1crEJm2mp14REFDBM3hHXGjIA+APRRNoYs7rGE18nmoBBjmiLtpGN+2UDOqiq2omNiCJ1omic5foPGtDGHiaYgEHsFvExQ9b8X000kVY5Jzxa1tM1mrezNbmW8n5EEzCE7YrrTFj2N9EJ30Y0kWaynt7OawAAqWDK4/+8G1xFNJF2lhscbsBTAF4DAIZ0SJMMuPsvW074VqIJPdqc/2teAwBInO0Gc3QfAKjvQCShi5wrDtP/KYB/PpEENGfA5j9rcl7v+4gkdKKWq2q+KdCdRBHQmEqcrPsHak8OvE/QvN0F7LYJ6N0JfU3/pX/BSUQS2hnYF0B06v3qTUwgkICmtH8M6fpPFQrRlkQSOrK94GzNB+CziCKgoYmXRTtamp9SZjviAiIJzdvgCo3b4EKiCGhIPb7T/O5D5ArLdyWS0Jnl+iW9X8Gx/BbQTt7xv6/54/8SUYTuhjYG0ngDLv8Uogho1/GIe7R+/N8SHEkUYUhb/Ke+bTGYTQQBjQxt/xtoPAB4mijCFGpvfY3b4j+JIKCRoVPJ9H3s6InLiSJMoQ6x0nhnwMqxM198I1EENJF3xTf0nnjU+xGiCLPaZPCAru2xrlnUEUFAE7Yb/ErjAcAStYkKUYRJLMc/T+N5ANOIIKBLZ+P6T2nb2XjBlUQQxrVJp/wOfXcE9G8jgoAG6mYs20Xj941RXbOfI4owkaXv1sCLiR6ggbznf1Tfu3/xfP3caCuiCCPbpiNmato217ApF6AByxFf1fdRo/gpEYS5bdM/Xt+Juf7xRBBIOXmX8RN9dx0LphJBmErv/Tn884kgkHKWIx7RdQCQc/2DiSCMbp+uuFvLwbkjriV6QPo7mF5NBwDLWP4H09le8D1NnwA8SPSAFBvvBm/R9x2juJMIwnRqlYuuE3SJHpBiOk8ykndG3yaCMN1JhWgHtb2ujm2ULYGBFJNJ9GzW/wPpput+ADlXHEb0gPR2LDM0HQCsVndGRBCZaKeOuEHLiYCe//+IHpDWjsUNfqnpAIAjR5EZeVd8Tc9luuIbRA9IKTVTV9MBwM1ED1mh7URA1y8RPSCl1J7dmnYsDtFDVuQuFXtrOlC/negBaRRF42QD7dN0idHnCCCyRNP9Oh4ickAK2V7v7vruAcA+48gWNe9Fw7bKqYBAGqltdHUdAEyYGexDBJEleU/8QsO2GhA5IIVsV0zQdAAQsAUwMtheL2UzIABj06E4/qmaDgA6iR6yRtb7i7Rsr80r9id6QNo6FC84R8stgF3/NqKHzLVXN/i8lrsBOuHRRA9IGdsRF2i6BPAaooessZzwZB3ba12zqCN6QNo6FNcvaLoE8Aqih6yxvd7xem4HHHyS6AEpIxvnLE1fAUwnesga2/MP1HPJrjid6AEpk3fEtVoOADzxTaKHrLFdsZeer+yCzxM9IGVk4/y5lo8UHf+LRA9ZkytEW8v6v0bD9vplogekjKYbi6gTxhqJHrJI1v/lGrbXbxE5IG2diRfM1fOdYngy0UMm26wrlmr4CmAakQNSxnaDX+k5CVBMIHrIIln/X9bvCUDwXSIHpK4z8W/VcxJg73iih2y2WbFSv2W7wXeIHJAyakc9LV8BtIiJRA9ZJOt/qOErgEuIHJC6zsT/DXMAAJ3arFjNJEAAY9GZ3KLpHIDJRA8ZbbPaLQO0PHExkQNSJu+In+g5ByA4l+gha4b2AWDjLgCjZ7lBUdN9AL5G9JA1cgCwnZ5P7PwvET0gZfKeuFzLOQDMKkYGHTvzxTeycReAMWE5frOekwBFC9FD1tS19L2LSbsAxoTtBd/WskNxg9lED1kjB+zH69he65pFHdEDUkYdqqPlI0VP/ILoIXPt1RVnaPoE4CiiB6SMvKOo1/MJgPg70UPWqNn0ej4B8N9P9ICUkQ0zp+kA4GWih6xRr750bK+5S8XeRA9IGdvzD9R0ABDlCst3JYLIEk3P7qgUCtGWRA9ImfGe/2ZdBwDybuhwIogsUa++NGyrS4gckEJqZC4baFXPiUV+PRFEltiueFbDtjqPyAEpZTniOU2fAlxE9JAVx8yKtpd1vl/DPTvuIHpAStmu/zdNtxdtI3rIipwTHq3pk7qriR6QUpYnbtJzO2DxJ6KHzLRTxz9Pzyd1foHoASmVd3xX01cAK5hdjOy0Uz1P7pQD9QaiB6SU5Qaf13UlgO2KQ4ggMtFOPbFAy+W6Tng00QPS2rE0+5a2SwE9/wtEEKabeFm0o66rdWyvd3ciCKS1c2kuv1PXAUDeEz8jgjCdTKLj2bETwJgb2gsg0HIA4IpFRBCmk/X8a5oOAB4iekDKabrD2ECZMDPYhwjC8Pb5c03b541ED0g52xXXaTsR0PM/SwRhMlnPuzV9QvctogeknBwAfEXfiYDiCiIIU+Wn+wdpO0fHFScQQSDltF4J4Ip2IghTafz+P5o4zd+TCAIpp/epgANLjd5DFGGivCPu0rRd9hA9QBOqweo7AAi+TQRhmlzhhZ1k/S5r2S45BAjQh+UFc7V9CuCIR4ggTGM7/qn67tLpTyeCgCZ0ftc4UJpX7E8UYRKdB+V5L/gkEQQ0kffCD2s9AHDFRUQRpjhmVrS95Qa+pm1xDVsAAxqpL0TbyoYb6vvIUfyDKMIUedc/ReOluQuIIKBdpxM8oPETgDXqXAOiCBNYjrhT37YYFIkgoJm8I2bq/Bog74pvEEXobrwbvEXW54rGk3JPJ4qAZmxXTNB8HsDjW0TROCIJnamBrM7tMDcz3JcoAprJFaLtdJ4HMLT8KE8koS05gJX1+F8aP/7/D0EENGW74ndaPwXwgrlEEdq2vxbxMb0H4MEcogjo2gE54gLNXwOszl0q9iaS0JHek//UPJzg40QR0JTOp4+9WnyHSEI3uZaVB8j6269x2wtPKkQ7EElAY5am54+vU5apfdSJJPRqd0FR67t/R9xFFAHN2a7fpvtTAPUqg0hCF0NL//Q8+OfVJ2/nE0lAcwYsB1Sl+4i2aBuiCR3I+voD7dsc53EA+ssVoq1lg35J+w7JCf6HaCLt1L75Gu/7/8rmP5zICZhCNugfG/AUoEcdqkI0kfK2dpn2bc0TFxNJwBB5LzjRgAGA6pi+TjSRVhOd8G36v/sXa+pa+t5FNAFDDJ0OuMKAQcCLx8588Y1EFGlkyJO2vxNJwDC2K35qwlMAdcgR0UTa5Fz/YFk/qzxlA5A6al99I14DuKJPbbJCRJEmsl7eY0Db6q+bUX470QRME0Xj8q5YZMQgwBF3EFCkhe34pxoyuL6baAKGstxgmiEdlSzBJCKKpE28LNrR0n+3zcENt1z/NCIKGCrXUt7P0nt/8nXLYtX5ElUkyYhNfwbLS5NmR28gooDJHZYn/mTOUwDxQyKKpOS98MNGTPxTd/+e+BERBQxnO+JMgwYA/TknPJqootbU3bKsfwtNaUt108UHiCqQjY5rqUGDgMfYIRC1po6pNqgNPUREgex0XgWDOq8o7wZXEVXUSt7rPdaUR/+D7UecQVSBjMhdKvaWDX+VQYOANbYXfILIIva2U1i+q6xvTxvUdrrVgWFEFsgQyxE3mPQUwPLE82pgQ2QRa7txxS1GtRtXXERUgYzJOcGHDOvIVLmPuxnExfaCcw1rL+K4lhW7EVkggyw3+Itpg4C8Jy4nshhrarWJrF99JrUV2w3mEFkgo/Ju8HEDnwJEedc/hehirNiu2EvWqx7D2kmVMzWAjJMdwTzzBgGBn3PFYUQXozV0lPb9xrURR9xAdIGMs73g0yY+BVCzmy0nfCsRxmgYN1l26O4/39z7XqILZF0UjZMdQruJgwDbFfNzhRd2IsgYibzjf9/IV2Se+BnRBTDAcvx6Q58CqEedd7IyAMNle6LJ0DZRzXm97yPCAAYUCtGWlicWGDsI8MRN6jsSaWyOvBN8StabiqltgQgDeI28F3zS2AHAwOsAv40oY1NsV0wwbbnfOmX1hOaV7ybKAF5HbaRj8iCAPQKwMUN7/Atz20AwmygDWC+7JThSdhRrTB4EWJ64gkjjv1mOf7xaPmpw3V+RK/TuQaQBbJDsKG42egAweCdUVKsfiDaUocf+geH1nj3/AWzcxObyOw1+B7ru6oAf18+NtiLi2aZOkZT1oWx4fX86V4i2I9oANkkmx8vMfwowMAi446RCtAMRz6a8G5xl7Gz/dee+uOIMog1gs6jNcyy1k14WBgGueHi857+ZqGeL5QbTMlK/7yHaAIbF9vzPZqSDVHMCnmRzlGw4oi3axnbFdRmp26uo1wBGJO+Iu7IzCBAr1ftgom4udapf3g0eyEqdzju+S9QBjIjVvGL/DEyQWrf0W25wCZE3T84JPpSh11rqvf+iY2ZF2xN5ACMm74q/l6EBwECxXf+241pW7Eb0zWB5wTkZG8jKAUDwcSIPYFQGzkP3REfWBgGyPGM5vR+hBuirbsayXWQcb8la3eW0PwBjpq4l+KDsWFZncBBQsb3g2+wXoB/LCY9Sj8EzWGeX8PQKwJjK4quAdV4J/C3f3PteakH6qSdWtiu8LKzvX//df3AitQDAmMoVoq1lBzMvq4MAWULbERdwrHB65VuCI2ScOrM7UBXXUQsAxCI/3T/IysI2wRsvD1lucDi1IT3UxlUy+V2a1bv+V+asTCq8vDO1AUBs1F1wxgcAqlQtL7hSTTKjRiQr7/qnZGl534bqY97zP0ptABCvKBqn9tBnEDBQlqolZkwSrL2c6x+c98QfqYMiUvNzqBEAauKEwso35V3RRee7tixk3XVtTHTCt8nrff3AUxjqXWR54k/MSwFQU2qNfMbfua5v/fW9dc1+jtox9tSBTUPv+TO1oc+mnkCNd4O3UDsA1JzsgC6iE15v+XPeFTY1ZPQmzAz2kXe5V8hrGlCvXlP6rRYxkRoCIBnMB9j0igHHr1dLKKksw1PX7L/fcv0Sq042VIJp1BIAiRrabvUxOuSNL9GSd7FfZ4e2TZADSnUio+2K31FnNlb8W9W1osIASNyE5pXvlh3TMjrmTZY+2w1+JZPcp9WOddScQQMT+7zgOzKxPUUd2eSkvw617wG1BkBqyLu2CczMHlZ5yXKDou2Fx2SxvqgkJpNZw9BSvjXUh82rMxOby++ktwGQOpYjvkonPaL3uf9R73Rtzz/Q5PqhXoHYnmgamjfCbP7hlYrV7Fv0MgBSy3L8q+msR1WWyAR5Q94VjZYTvlXryjAwSTQ8Sg5uLpHf6z4rmydKjtGj/+AcehcAqaZ2xZMd1u102mNWHlfbDue94JNp3+tdbRBlt4iPWZ64WCb9/5Wf/WXiN/qSd/zv07MA0MIxs6LtLdd/kM47phUF6hG6Iy5T79DrWoIPqutd6xirZC+T/KS8K76lZqXLz/U0sYkj+Ytr6VEAaMX2encfuHulE6/dkwKViL3gSjWfQD0ytl3/NLUzoZpboGbab27sJk7z98zPEIeqBG97wdnq56lEJH/Hb+XA41E58Hie6x1/sV3xf5wzAUBLllN+h+zIeujMKZRhl4dPKkQ70IsA0FZ+un+Q7MxeoEOnUDazOOIRNo0CYATbFYfIju1FOncKZZOlM1fo3YNeA4Axcq44zGJWOIWy0Xkcav4FvQUA4+RbgiMstgymUNZX/s3RvgCMZrcER8rObjkdPoWytjyRmxnuS+8AwHgDS8wc8RwdP4UJf+IRHvsDyJRcy8oD8q5YRBKgZLcEf1HHadMbAMicCTODfWRHuJBEQMlasV3xO9b5A8i0oR0DHyYpUDJTvGBufSHaltYPIPMmXhbtaLv+bSQHiukl74iZ6pREWj0ADCkUoi0HDrghSVDMLBWO9AWAjbDc4PMW58ZTzCor6ppFHa0bADbBavYtiw2DKGaUxeo8DFo1AGymCc0r3215ooMEQtG1qJn+JxRWvonWDADDpJZJyY70RpIJRbPSb7v+dDWvhVYMAKNgef4XZKe6isRC0aAst73gE7RaABgjlhMeJTvXZ0gwlBQ/8p9vNa/Yn9YKAGPsuJYVu6lNVEg2lLQ98s974nI29wGAmOVd0Sg73ZUkHkoKyhKW+AFADeVayvupw1RIQJTkin+r2sqa1ggANVY/N9rK9oJvM0GQksBEv7NpgQCQsLpm//08DaDU6q5fnWJJqwOAtIiicXnH/yJzAyixFEc8J+vXZ2hoAJBSuZnhvrLDvp2kRRmjssZ2xXVqBQqtCwA0YDnBSZYbPEkCo4y0yMT/D9sLj6E1AYBm1Lps2xPf5LUAZZhlad4NzlKvlWhFAKCx3KVib9mpXy9LP8mNspGijqH+waTCyzvTagDAIJYbHJ53xF0kOsp/FbWT389yLSsPoJUAgMFsr3e87PT/TOKj2K5/W871D6ZVAECG5F1xgkwC80iEmSx3573ww7QCAMgwdXyrTAj3kxTNX9Jnuf5v8l7vsdR6AMBaltP7EZUgBhMFCdOkyX15R/wkP90/iFoOANgg2/MPHFo10Efy1Lr0yjJLbQ5FrQYAbLZcoXePvCu+IcsikqlOE/vEfNsLzp14WbQjtRgAMHLqnAEvONFyxB3sJZDaUpbxuSHnhEdTYQEAY65uRvntQ0cQP0bSTcUyvr9Zrn++7fXuTu0EANREzgk+JJPQD2VZSjKuafm35QbTrOYV+1MLAQCJyRWira0WMdFy/KttVzxLgo6jBE9ajrjMbgmOpMYBAFJJLSeUAwFPJq5/kbhHXPrzbvCA5YmL882976VWAQC0Ynu978k7/hct179VJrUVJPaNlm41kc/2RNN4z38ztQcAYIRCIdrScsKj8q74Vt4Tfxxap57dhO+I5+Qd/k2WF5zDQTwAgEyxXXGI5QafV/MHZFJsN3gXQjXYuU8OfC6X37WehA8AwDpyhRd2GnxKEEyVd8dXyAHC7zRbZVCRZaHl+r+Wf86wHXEmW/ACADBCx7Ws2E1tcmM7/qm2J75pu8EcyxF3ykHCAssN/Bon+afl7/yr5QVz1Va7cpByYd4JPlXX7L9fveYgWgAA1EoUjcu1lPermy4+IBNxznb902wvOHtgvfza4heGzjh4Xcm7futr/lvP/4KajCf/Pmng53n+geypDwAAAAAAAAAAAAAAAAAAAAAAAAAAAAAAAAAAAAAAAAAAAAAAAAAAAAAAAAAAAAAAAAAAAAAAAAAAAAAAAAAAAAAAAAAAAAAAAAAAAAAAAAAAAAAAACTr/wPeQ3gA78VQPwAAAABJRU5ErkJggg==;" vertex="1" parent="1">
          <mxGeometry x="530" y="810" width="70" height="70" as="geometry" />
        </mxCell>
      </root>
    </mxGraphModel>
  </diagram>
</mxfile>
